<svg width="108" height="114" viewBox="0 0 108 114" fill="none" xmlns="http://www.w3.org/2000/svg">
<g filter="url(#filter0_f_5301_520)">
<ellipse rx="27.5" ry="7.5" transform="matrix(0.967204 0.254 0.254 -0.967204 42.4057 99.7146)" fill="#707070" fill-opacity="0.3"/>
</g>
<path d="M96.8762 67.4935C94.0132 78.3955 86.7328 87.6602 76.6367 93.2493C66.5405 98.8385 54.4557 100.294 43.0406 97.2966C31.6255 94.2989 21.8153 87.0931 15.7681 77.2645C9.72086 67.4359 7.93198 55.7895 10.795 44.8875L53.8356 56.1905L96.8762 67.4935Z" fill="#F3F3F3"/>
<ellipse rx="44.5" ry="18.5" transform="matrix(0.967204 0.254 0.254 -0.967204 53.8355 56.1904)" fill="#5B5B5B"/>
<ellipse rx="28.5" ry="12" transform="matrix(0.967204 0.254 0.254 -0.967204 53.9627 55.7068)" fill="#242424"/>
<mask id="mask0_5301_520" style="mask-type:alpha" maskUnits="userSpaceOnUse" x="36" y="0" width="49" height="66">
<path fill-rule="evenodd" clip-rule="evenodd" d="M84.8022 9.00857L50.4992 0.00016934L36.8509 51.9712C36.8448 51.9928 36.8389 52.0145 36.8332 52.0362C35.755 56.1418 42.56 61.4865 52.0325 63.9741C61.505 66.4617 70.058 65.1501 71.1362 61.0446C71.1362 61.0446 71.1362 61.0446 71.1362 61.0446L71.1369 61.0447L84.8022 9.00857Z" fill="#C4C4C4"/>
</mask>
<g mask="url(#mask0_5301_520)">
<ellipse cx="54.0661" cy="56.2306" rx="17.7331" ry="16.9728" transform="rotate(14.7143 54.0661 56.2306)" fill="#FFC806"/>
<mask id="mask1_5301_520" style="mask-type:alpha" maskUnits="userSpaceOnUse" x="36" y="17" width="52" height="48">
<path fill-rule="evenodd" clip-rule="evenodd" d="M77.8404 39.2008C81.3804 36.3349 85.9567 31.4483 87.0147 26.0949C87.3003 24.65 86.152 23.3706 84.684 23.4902C79.5116 23.9118 75.177 27.5942 72.4006 31.0063C70.6315 29.6801 68.434 28.6374 65.7413 27.9302C60.2529 26.4889 55.3212 27.107 51.215 29.0481C49.8421 25.3221 46.6402 19.7239 41.5576 17.8886C40.1546 17.382 38.7408 18.4059 38.757 19.8944C38.8146 25.1736 42.3458 30.7208 44.8649 33.7142C42.2093 36.5512 40.3055 40.067 39.3331 43.7701C38.9347 45.2872 38.3454 46.2279 37.8321 47.0475C37.12 48.1845 36.5539 49.0883 36.8463 50.9744C37.5086 55.2479 46.0088 60.4409 55.4797 62.928C69.0029 66.4794 73.4038 63.9911 76.581 60.9538C78.9442 58.6945 78.6274 55.6283 78.4038 53.4634C78.3267 52.7177 78.2607 52.0789 78.3191 51.6169C78.8957 47.0541 78.8523 42.8251 77.8404 39.2008Z" fill="#FEDC08"/>
</mask>
<g mask="url(#mask1_5301_520)">
<path fill-rule="evenodd" clip-rule="evenodd" d="M77.8404 39.2008C81.7498 36.0359 86.923 30.4065 87.2259 24.4057C87.2506 23.9154 86.8771 23.5018 86.387 23.4722C80.4654 23.1137 75.4766 27.226 72.4007 31.0063C70.6315 29.6801 68.4341 28.6374 65.7413 27.9302C60.0817 26.4439 55.1216 26.8966 51.0923 28.7228C49.4252 24.404 45.4292 17.9091 39.0303 17.3248C37.6467 23.1933 41.8067 30.0252 44.735 33.5587C42.5868 36.1089 41.0761 39.2667 40.3086 42.7737C40.0648 43.8879 39.6182 44.7149 39.1716 45.5419C38.5392 46.7129 37.9068 47.8841 37.8498 49.8715C37.7264 54.1744 46.8731 59.4152 56.3439 61.9024C69.8672 65.4537 75.6049 62.4055 77.5298 59.1532C78.8631 56.9003 78.6187 55.0178 78.4183 53.4741C78.3294 52.7893 78.2491 52.1711 78.3191 51.6169C78.8957 47.0541 78.8523 42.8251 77.8404 39.2008Z" fill="#FFEC3D"/>
<ellipse cx="49.8008" cy="42.4195" rx="2.07133" ry="1.98253" transform="rotate(14.7143 49.8008 42.4195)" fill="#0D0D0C"/>
<path d="M36.9517 15.236L48.1138 20.2256C48.1138 20.2256 43.8008 19.4073 41.2895 21.083C39.4776 22.83 39.1565 26.7874 39.1565 26.7874L36.9517 15.236Z" fill="#191919"/>
<path d="M82.4478 38.0463L91.2464 24.0332L82.1209 16.5819L72.9533 24.6794C72.9533 24.6794 79.4771 25.888 82.2194 29.42C83.934 32.6755 82.4478 38.0463 82.4478 38.0463Z" fill="#191919"/>
<ellipse cx="68.11" cy="46.9999" rx="2.07133" ry="1.98253" transform="rotate(14.7143 68.11 46.9999)" fill="#0D0D0C"/>
<path d="M78.3032 57.6687C77.5483 59.6791 75.4153 60.7524 73.539 60.066C71.6628 59.3797 71.1989 57.3105 71.9538 55.3002C72.7087 53.2899 74.8417 52.2166 76.7179 52.9029C78.5942 53.5892 79.0581 55.6584 78.3032 57.6687Z" fill="#FC4012"/>
<path d="M38.223 47.4223C37.8994 49.501 39.1575 51.436 41.0329 51.7444C42.9084 52.0527 44.2195 50.3406 44.5431 48.262C44.8666 46.1833 43.7354 44.3782 41.8599 44.0698C39.9845 43.7615 38.5465 45.3437 38.223 47.4223Z" fill="#FC4012"/>
<path fill-rule="evenodd" clip-rule="evenodd" d="M54.9122 50.1388C55.281 50.2357 55.5049 50.6004 55.4122 50.9534C55.2306 51.6448 55.2861 52.2142 55.4651 52.6144C55.6384 53.0017 55.9338 53.254 56.3275 53.3574C56.4339 53.3853 56.7348 53.4117 57.0172 53.324C57.2485 53.2521 57.4498 53.1167 57.6325 52.9641C58.0578 52.6088 58.562 52.7175 58.7325 53.2447C58.8021 53.46 58.8959 53.6687 59.0823 53.8663C59.2851 54.0814 59.5602 54.2063 59.6665 54.2343C59.9692 54.3138 60.3361 54.2173 60.7234 53.8748C61.1079 53.5347 61.4102 53.031 61.5337 52.561C61.6264 52.208 62.0005 52.0003 62.3693 52.0972C62.7381 52.194 62.962 52.5587 62.8693 52.9117C62.6837 53.6184 62.2493 54.3447 61.667 54.8597C61.0875 55.3722 60.2575 55.756 59.3308 55.5126C58.992 55.4236 58.4736 55.1719 58.0716 54.7455C57.9842 54.6529 57.9018 54.551 57.8277 54.4405C57.7089 54.5004 57.5871 54.5486 57.4655 54.5864C56.9058 54.7602 56.3306 54.7247 55.9918 54.6357C55.1561 54.4163 54.534 53.8583 54.2021 53.1165C53.876 52.3876 53.8385 51.5092 54.0766 50.6026C54.1693 50.2496 54.5434 50.042 54.9122 50.1388Z" fill="black"/>
</g>
</g>
<mask id="mask2_5301_520" style="mask-type:alpha" maskUnits="userSpaceOnUse" x="10" y="13" width="89" height="65">
<path d="M92.0059 34.7246C98.0982 44.6504 99.7661 56.4888 96.8812 67.4744C94.2756 77.3961 72.8934 80.3788 49.1228 74.1363C25.3521 67.8938 8.1944 54.7902 10.8 44.8684C13.6849 33.8829 20.9543 24.3915 31.1374 18.7398C41.2379 13.1339 53.3252 11.6687 64.7403 14.6664C76.1554 17.6641 85.9631 24.8793 92.0059 34.7246Z" fill="#F22424"/>
</mask>
<g mask="url(#mask2_5301_520)">
<path d="M92.0059 34.7246C98.0982 44.6504 99.7661 56.4888 96.8812 67.4744C94.2756 77.3961 72.8934 80.3788 49.1228 74.1363C25.3521 67.8938 8.1944 54.7902 10.8 44.8684C13.6849 33.8829 20.9543 24.3915 31.1374 18.7398C41.2379 13.1339 53.3252 11.6687 64.7403 14.6664C76.1554 17.6641 85.9631 24.8793 92.0059 34.7246Z" fill="#F22424"/>
<path fill-rule="evenodd" clip-rule="evenodd" d="M10.6815 42.6852C10.3812 43.8288 11.1467 45.363 12.3748 47.4342C13.6172 49.5295 19.5354 55.1997 22.7213 57.6328C29.0815 62.4902 38.7332 67.1036 50.1802 70.1097C61.6272 73.1158 72.3003 73.84 80.2265 72.7344C85.2844 72.0289 93.614 69.3761 97.2879 65.9257C100.043 63.3382 98.6751 57.3503 98.6751 57.3503L102.146 64.5526L101.088 68.5792C100.086 72.3965 97.3436 75.2213 93.9461 77.1754C90.5729 79.1155 86.3236 80.3477 81.6513 80.9995C72.2924 82.305 60.389 81.3992 48.0653 78.1629C35.7417 74.9266 24.9292 69.8668 17.4194 64.1314C13.6701 61.268 10.5745 58.1069 8.58986 54.7598C6.59088 51.3885 5.59056 47.5809 6.59302 43.7636L7.65045 39.737L10.6815 42.6852Z" fill="#393939"/>
</g>
<ellipse cx="49.3908" cy="73.1164" rx="13.5" ry="13" transform="rotate(14.7143 49.3908 73.1164)" fill="#393939"/>
<ellipse cx="49.3906" cy="73.1165" rx="9.5" ry="8" transform="rotate(14.7143 49.3906 73.1165)" fill="#F3F3F3"/>
<defs>
<filter id="filter0_f_5301_520" x="11.7383" y="85.6443" width="61.3348" height="28.1406" filterUnits="userSpaceOnUse" color-interpolation-filters="sRGB">
<feFlood flood-opacity="0" result="BackgroundImageFix"/>
<feBlend mode="normal" in="SourceGraphic" in2="BackgroundImageFix" result="shape"/>
<feGaussianBlur stdDeviation="2" result="effect1_foregroundBlur_5301_520"/>
</filter>
</defs>
</svg>
