<svg width="89" height="132" viewBox="0 0 89 132" fill="none" xmlns="http://www.w3.org/2000/svg">
<g filter="url(#filter0_f_5301_525)">
<ellipse rx="27.5" ry="7.5" transform="matrix(1 0 0 -1 44.5 119.633)" fill="#707070" fill-opacity="0.3"/>
</g>
<path d="M89 73.1329C89 84.8025 84.3116 95.994 75.9663 104.246C67.6209 112.497 56.3021 117.133 44.5 117.133C32.6979 117.133 21.3791 112.497 13.0338 104.246C4.68838 95.994 1.78207e-06 84.8025 0 73.1329L44.5 73.1329H89Z" fill="#F3F3F3"/>
<ellipse rx="44.5" ry="19" transform="matrix(1 0 0 -1 44.5 73.1329)" fill="#5B5B5B"/>
<ellipse rx="28.5" ry="12.5" transform="matrix(1 0 0 -1 44.5 72.6329)" fill="#242424"/>
<mask id="mask0_5301_525" style="mask-type:alpha" maskUnits="userSpaceOnUse" x="27" y="18" width="36" height="64">
<path fill-rule="evenodd" clip-rule="evenodd" d="M62.4668 18.1329H27.0006V73.3904C27.0002 73.4123 27 73.4343 27 73.4562C27 77.8211 34.9394 81.3596 44.7331 81.3596C54.5268 81.3596 62.4662 77.8211 62.4662 73.4562C62.4662 73.4562 62.4662 73.4562 62.4662 73.4562H62.4668V18.1329Z" fill="#C4C4C4"/>
</mask>
<g mask="url(#mask0_5301_525)">
<ellipse cx="44.7331" cy="73.1269" rx="17.7331" ry="17.4532" fill="#FFC806"/>
<mask id="mask1_5301_525" style="mask-type:alpha" maskUnits="userSpaceOnUse" x="20" y="32" width="49" height="48">
<path fill-rule="evenodd" clip-rule="evenodd" d="M63.4021 49.9798C66.1048 46.1955 69.2988 40.1195 68.9441 34.5073C68.8504 33.0249 67.4037 32.0673 66.0079 32.5753C61.1249 34.3521 57.8752 39.1382 56.0593 43.2505C54.0114 42.3936 51.6211 41.9305 48.8371 41.9305C43.1626 41.9305 38.5496 43.8333 35.0712 46.8364C32.7986 43.4918 28.2852 38.7652 22.9088 38.261C21.4217 38.1216 20.3043 39.4957 20.686 40.9459C22.0685 46.1982 26.9094 50.8106 30.1144 53.1357C28.2666 56.651 27.3182 60.645 27.3182 64.582C27.3182 66.1949 26.9873 67.2845 26.699 68.2336C26.299 69.5505 25.9811 70.5972 26.7429 72.3968C28.469 76.474 38.0094 79.4187 47.8014 79.4187C61.7832 79.4187 65.4077 75.7945 67.7092 71.9437C69.4211 69.0795 68.3359 66.1126 67.5697 64.0179C67.3058 63.2964 67.0797 62.6783 67.0188 62.2036C66.4175 57.5149 65.3014 53.3202 63.4021 49.9798Z" fill="#FEDC08"/>
</mask>
<g mask="url(#mask1_5301_525)">
<path fill-rule="evenodd" clip-rule="evenodd" d="M63.4021 49.9798C66.3816 45.808 69.9582 38.851 68.7192 32.8006C68.6199 32.3155 68.1497 32.0063 67.6647 32.1059C61.8511 33.2997 58.0733 38.6896 56.0594 43.2505C54.0114 42.3936 51.6212 41.9305 48.8372 41.9305C42.9856 41.9305 38.3031 43.6762 34.8699 46.5449C32.1605 42.685 26.6459 37.2689 20.3083 38.3592C20.4607 44.5573 26.2196 50.2655 29.9494 53.015C28.5194 56.1125 27.8603 59.6478 28.0088 63.3362C28.0559 64.5081 27.8341 65.4472 27.6122 66.3863C27.298 67.7162 26.9838 69.0462 27.4334 71.0377C28.407 75.3495 38.5849 78.1729 48.3769 78.1729C62.3587 78.1729 67.134 73.6426 68.1696 69.9051C68.887 67.3162 68.1724 65.5077 67.5865 64.0248C67.3266 63.3669 67.0919 62.773 67.0189 62.2036C66.4176 57.5149 65.3015 53.3201 63.4021 49.9798Z" fill="#FFEC3D"/>
<ellipse cx="37.0997" cy="60.5047" rx="2.07133" ry="2.03864" fill="#0D0D0C"/>
<path d="M17.7673 36.8246L29.8308 38.8718C29.8308 38.8718 25.4514 39.1844 23.4481 41.5069C22.1394 43.7177 22.8339 47.7375 22.8339 47.7375L17.7673 36.8246Z" fill="#191919"/>
<path d="M67.5653 47.6281L72.516 31.393L61.7972 26.3655L54.987 36.8135C54.987 36.8135 61.6038 36.3117 65.1534 39.1083C67.6386 41.8983 67.5653 47.6281 67.5653 47.6281Z" fill="#191919"/>
<ellipse cx="55.972" cy="60.2781" rx="2.07133" ry="2.03864" fill="#0D0D0C"/>
<path d="M68.5407 68.2267C68.3212 70.4233 66.5307 72.0479 64.5417 71.8554C62.5526 71.6628 61.5783 69.726 61.7979 67.5294C62.0174 65.3328 63.8078 63.7082 65.7969 63.9008C67.786 64.0933 68.7602 66.0301 68.5407 68.2267Z" fill="#FC4012"/>
<path d="M27.1724 68.5043C27.3874 70.6563 29.0957 72.2522 30.988 72.069C32.8803 71.8859 33.7135 69.8406 33.4985 67.6887C33.2834 65.5368 31.7308 64.0369 29.8386 64.2201C27.9463 64.4033 26.9573 66.3524 27.1724 68.5043Z" fill="#FC4012"/>
<path fill-rule="evenodd" clip-rule="evenodd" d="M44.0042 66.8471C44.3855 66.8471 44.6946 67.1513 44.6946 67.5267C44.6946 68.2617 44.8929 68.8136 45.1677 69.1648C45.4337 69.5047 45.7835 69.6785 46.1906 69.6785C46.3005 69.6785 46.5983 69.6262 46.8491 69.4652C47.0521 69.3349 47.211 69.1506 47.3478 68.9538C47.6703 68.4898 48.1928 68.4674 48.493 68.9461C48.6139 69.1391 48.7569 69.3193 48.9843 69.4652C49.2351 69.6262 49.5328 69.6785 49.6428 69.6785C49.9558 69.6785 50.2861 69.4868 50.5737 69.0449C50.8592 68.6063 51.0237 68.0263 51.0237 67.5267C51.0237 67.1513 51.3328 66.8471 51.7141 66.8471C52.0954 66.8471 52.4046 67.1513 52.4046 67.5267C52.4046 68.278 52.1689 69.1138 51.7365 69.7781C51.3062 70.4392 50.6009 71.0376 49.6428 71.0376C49.2925 71.0376 48.7272 70.9227 48.23 70.6036C48.122 70.5343 48.0164 70.4545 47.9167 70.3639C47.817 70.4545 47.7114 70.5343 47.6034 70.6036C47.1062 70.9227 46.5409 71.0376 46.1906 71.0376C45.3265 71.0376 44.5831 70.6452 44.0737 69.9941C43.5731 69.3543 43.3137 68.4905 43.3137 67.5267C43.3137 67.1513 43.6228 66.8471 44.0042 66.8471Z" fill="black"/>
</g>
</g>
<mask id="mask2_5301_525" style="mask-type:alpha" maskUnits="userSpaceOnUse" x="0" y="0" width="89" height="64">
<path d="M75.9662 12.828C84.3798 21.1088 89 32.4473 89 44.1269C89 54.6754 69.0767 63.2266 44.5 63.2266C19.9233 63.2266 0 54.6754 0 44.1269C0 32.4473 4.6202 21.1087 13.0338 12.828C21.3791 4.61437 32.6979 -1.2562e-06 44.5 0C56.3021 1.2562e-06 67.6209 4.61438 75.9662 12.828Z" fill="#F22424"/>
</mask>
<g mask="url(#mask2_5301_525)">
<path d="M75.9662 12.828C84.3798 21.1088 89 32.4473 89 44.1269C89 54.6754 69.0767 63.2266 44.5 63.2266C19.9233 63.2266 0 54.6754 0 44.1269C0 32.4473 4.6202 21.1087 13.0338 12.828C21.3791 4.61437 32.6979 -1.2562e-06 44.5 0C56.3021 1.2562e-06 67.6209 4.61438 75.9662 12.828Z" fill="#F22424"/>
<path fill-rule="evenodd" clip-rule="evenodd" d="M-0.669158 41.9864C-0.669158 43.2023 0.460917 44.5282 2.17483 46.2674C3.90872 48.0269 11.0731 52.1206 14.7725 53.7084C22.1579 56.8782 32.6649 58.9456 44.5 58.9456C56.3352 58.9456 66.8421 56.8782 74.2276 53.7084C78.9404 51.6856 86.323 46.8716 89 42.4804C91.0075 39.1873 88.1635 33.5891 88.1635 33.5891L93.3496 39.8459V44.1269C93.3496 48.1853 91.415 51.711 88.6253 54.5419C85.8555 57.3525 82.0585 59.6879 77.7049 61.5565C68.9846 65.2994 57.2415 67.5076 44.5 67.5076C31.7585 67.5076 20.0155 65.2994 11.2951 61.5565C6.94153 59.6879 3.14452 57.3525 0.374767 54.5419C-2.41497 51.711 -4.34961 48.1853 -4.34961 44.1269V39.8459L-0.669158 41.9864Z" fill="#393939"/>
</g>
<ellipse cx="44.5" cy="91.1329" rx="13.5" ry="13" fill="#393939"/>
<ellipse cx="44.5" cy="91.1329" rx="9.5" ry="8" fill="#F3F3F3"/>
<defs>
<filter id="filter0_f_5301_525" x="13" y="108.133" width="63" height="23" filterUnits="userSpaceOnUse" color-interpolation-filters="sRGB">
<feFlood flood-opacity="0" result="BackgroundImageFix"/>
<feBlend mode="normal" in="SourceGraphic" in2="BackgroundImageFix" result="shape"/>
<feGaussianBlur stdDeviation="2" result="effect1_foregroundBlur_5301_525"/>
</filter>
</defs>
</svg>
