<svg width="111" height="116" viewBox="0 0 111 116" fill="none" xmlns="http://www.w3.org/2000/svg">
<g filter="url(#filter0_f_5301_521)">
<ellipse rx="27.5" ry="7.5" transform="matrix(0.956901 -0.290413 -0.290413 -0.956901 68.5004 100.396)" fill="#707070" fill-opacity="0.3"/>
</g>
<path d="M98.0138 44.4124C101.287 55.1983 99.9403 66.904 94.2693 76.9544C88.5983 87.0048 79.0677 94.5766 67.7743 98.0041C56.4808 101.432 44.3495 100.434 34.0491 95.2308C23.7487 90.0276 16.123 81.0451 12.8496 70.2592L55.4317 57.3358L98.0138 44.4124Z" fill="#F3F3F3"/>
<ellipse rx="44.5" ry="18.5" transform="matrix(0.956901 -0.290413 -0.290413 -0.956901 55.4316 57.3357)" fill="#5B5B5B"/>
<ellipse rx="28.5" ry="12" transform="matrix(0.956901 -0.290413 -0.290413 -0.956901 55.2866 56.8572)" fill="#242424"/>
<mask id="mask0_5301_521" style="mask-type:alpha" maskUnits="userSpaceOnUse" x="23" y="0" width="50" height="67">
<path fill-rule="evenodd" clip-rule="evenodd" d="M57.0871 0.923707L23.1495 11.2235L38.7543 62.641C38.7604 62.6626 38.7667 62.6841 38.7733 62.7056C40.006 66.7674 48.6025 67.7545 57.9741 64.9103C67.3457 62.0661 73.9436 56.4676 72.7109 52.4058C72.7109 52.4058 72.7109 52.4058 72.7109 52.4058L72.7115 52.4056L57.0871 0.923707Z" fill="#C4C4C4"/>
</mask>
<g mask="url(#mask0_5301_521)">
<ellipse cx="55.6491" cy="57.2492" rx="17.7331" ry="16.9728" transform="rotate(-16.8827 55.6491 57.2492)" fill="#FFC806"/>
<mask id="mask1_5301_521" style="mask-type:alpha" maskUnits="userSpaceOnUse" x="23" y="12" width="55" height="53">
<path fill-rule="evenodd" clip-rule="evenodd" d="M66.9763 30.2877C68.49 25.9919 69.8275 19.432 67.9239 14.3179C67.4101 12.9375 65.7617 12.4494 64.574 13.3205C60.3892 16.3895 58.6266 21.7972 58.0495 26.158C55.8478 25.9554 53.4298 26.2186 50.7657 27.0271C45.3358 28.6751 41.459 31.7854 38.9787 35.5902C35.857 33.1359 30.1966 30.0452 24.9059 31.145C23.4455 31.4486 22.7778 33.0614 23.5715 34.3207C26.3865 38.7872 32.3006 41.6618 36.0146 42.8916C35.2391 46.6994 35.4597 50.6915 36.5716 54.3552C37.0271 55.8561 37.0181 56.9661 37.0103 57.9331C36.9995 59.2747 36.9908 60.3411 38.2281 61.7944C41.0313 65.0873 50.9922 65.0569 60.3622 62.2131C73.7414 58.1526 76.1861 53.7274 77.3009 49.4757C78.1301 46.3132 76.2537 43.8675 74.9289 42.1407C74.4726 41.5459 74.0817 41.0364 73.8894 40.6123C71.9898 36.4238 69.7371 32.8445 66.9763 30.2877Z" fill="#FEDC08"/>
</mask>
<g mask="url(#mask1_5301_521)">
<path fill-rule="evenodd" clip-rule="evenodd" d="M66.9763 30.2876C68.648 25.5436 70.1047 18.0384 67.2187 12.7684C66.9828 12.3378 66.448 12.1813 66.015 12.4128C60.7835 15.2101 58.6889 21.3265 58.0495 26.158C55.8478 25.9554 53.4298 26.2186 50.7658 27.0271C45.1664 28.7265 41.1787 31.7108 38.7037 35.3774C35.0209 32.5723 28.2144 29.1339 22.4579 31.9889C24.3542 37.7124 31.4769 41.3519 35.8226 42.8272C35.329 46.1249 35.6967 49.6062 36.8804 52.9953C37.2565 54.0721 37.3094 55.0105 37.3624 55.9488C37.4373 57.2777 37.5123 58.6066 38.505 60.3292C40.6544 64.0589 51.1909 63.7304 60.5609 60.8867C73.9401 56.8262 77.2301 51.2237 77.1656 47.4449C77.1209 44.8274 75.9264 43.352 74.9469 42.1422C74.5124 41.6055 74.1201 41.121 73.8894 40.6123C71.9899 36.4238 69.7371 32.8445 66.9763 30.2876Z" fill="#FFEC3D"/>
<ellipse cx="44.7799" cy="47.7203" rx="2.07133" ry="1.98253" transform="rotate(-16.8827 44.7799 47.7203)" fill="#0D0D0C"/>
<path d="M19.593 31.2988L31.7147 29.7005C31.7147 29.7005 27.6123 31.2632 26.3513 34.0062C25.7234 36.4436 27.5232 39.9826 27.5232 39.9826L19.593 31.2988Z" fill="#191919"/>
<path d="M70.2958 26.8903L70.448 10.3446L58.7713 8.7792L55.2053 20.4795C55.2053 20.4795 61.3952 18.0909 65.5816 19.6625C68.7477 21.537 70.2958 26.8903 70.2958 26.8903Z" fill="#191919"/>
<ellipse cx="62.7747" cy="42.0287" rx="2.07133" ry="1.98253" transform="rotate(-16.8827 62.7747 42.0287)" fill="#0D0D0C"/>
<path d="M77.0466 45.7753C77.4569 47.8831 76.2025 49.9149 74.2448 50.3134C72.287 50.7118 70.8078 49.1925 70.3975 47.0846C69.9872 44.9768 71.2416 42.9451 73.1993 42.5466C75.1571 42.1481 76.6363 43.6675 77.0466 45.7753Z" fill="#FC4012"/>
<path d="M37.5396 58.0476C38.3531 59.9876 40.4385 60.9766 42.1975 60.2567C43.9565 59.5367 44.1762 57.3914 43.3627 55.4514C42.5492 53.5113 40.6399 52.5665 38.8809 53.2865C37.1219 54.0065 36.7261 56.1075 37.5396 58.0476Z" fill="#FC4012"/>
<path fill-rule="evenodd" clip-rule="evenodd" d="M53.178 51.6172C53.5429 51.5064 53.9246 51.6998 54.0306 52.049C54.2382 52.7331 54.5838 53.189 54.946 53.4361C55.2965 53.6751 55.6804 53.7353 56.0699 53.6171C56.1751 53.5851 56.4452 53.4499 56.6398 53.2273C56.7991 53.0449 56.8997 52.824 56.9753 52.5983C57.1514 52.0729 57.6378 51.9013 58.0593 52.261C58.2314 52.4079 58.4206 52.5365 58.6829 52.6072C58.9684 52.6842 59.268 52.6464 59.3733 52.6145C59.6728 52.5236 59.9347 52.2492 60.0852 51.7545C60.2345 51.2634 60.228 50.676 60.0869 50.211C59.9809 49.8617 60.1908 49.4889 60.5557 49.3781C60.9206 49.2674 61.3023 49.4607 61.4083 49.81C61.6205 50.5091 61.631 51.3553 61.4049 52.0991C61.1798 52.8392 60.6739 53.601 59.7571 53.8792C59.4219 53.981 58.8485 54.0382 58.2826 53.8856C58.1597 53.8525 58.0361 53.8089 57.9151 53.7535C57.8453 53.8668 57.7668 53.9717 57.683 54.0676C57.2974 54.5089 56.7889 54.7801 56.4537 54.8818C55.6269 55.1327 54.8047 54.9834 54.1333 54.5255C53.4736 54.0755 52.9814 53.3469 52.7093 52.4501C52.6033 52.1008 52.8131 51.7279 53.178 51.6172Z" fill="black"/>
</g>
</g>
<mask id="mask2_5301_521" style="mask-type:alpha" maskUnits="userSpaceOnUse" x="11" y="14" width="88" height="66">
<path d="M76.6967 19.0531C87.0863 24.3155 94.7096 33.525 98.0081 44.3936C100.987 54.2096 84.3376 67.9531 60.8201 75.0905C37.3027 82.2278 15.823 80.0564 12.8439 70.2403C9.54537 59.3718 10.7642 47.4787 16.4765 37.3295C22.1425 27.2626 31.6702 19.6815 42.9637 16.254C54.2572 12.8265 66.3913 13.8334 76.6967 19.0531Z" fill="#F22424"/>
</mask>
<g mask="url(#mask2_5301_521)">
<path d="M76.6967 19.0531C87.0863 24.3155 94.7096 33.525 98.0081 44.3936C100.987 54.2096 84.3376 67.9531 60.8201 75.0905C37.3027 82.2278 15.823 80.0564 12.8439 70.2403C9.54537 59.3718 10.7642 47.4787 16.4765 37.3295C22.1425 27.2626 31.6702 19.6815 42.9637 16.254C54.2572 12.8265 66.3913 13.8334 76.6967 19.0531Z" fill="#F22424"/>
<path fill-rule="evenodd" clip-rule="evenodd" d="M11.5991 68.4428C11.9425 69.5742 13.3983 70.4799 15.5295 71.6006C17.6856 72.7343 25.6973 74.4632 29.6857 74.8664C37.6481 75.6713 48.2861 74.5438 59.6111 71.1067C70.9362 67.6696 80.4065 62.6944 86.5784 57.5998C90.5168 54.3488 96.2217 47.7252 97.5431 42.8614C98.5341 39.214 94.2317 34.8304 94.2317 34.8304L100.961 39.1467L102.17 43.1304C103.316 46.907 102.461 50.7497 100.591 54.1942C98.7343 57.614 95.7605 60.89 92.1223 63.8932C84.8348 69.9086 74.2216 75.3738 62.0292 79.0741C49.8368 82.7744 37.9763 84.1299 28.5746 83.1794C23.881 82.7049 19.5881 81.6344 16.1439 79.8233C12.6749 77.9991 9.82793 75.2801 8.68176 71.5035L7.47273 67.5198L11.5991 68.4428Z" fill="#393939"/>
</g>
<ellipse cx="60.514" cy="74.0814" rx="13.5" ry="13" transform="rotate(-16.8827 60.514 74.0814)" fill="#393939"/>
<ellipse cx="60.5139" cy="74.0815" rx="9.5" ry="8" transform="rotate(-16.8827 60.5139 74.0815)" fill="#F3F3F3"/>
<defs>
<filter id="filter0_f_5301_521" x="38.0941" y="85.6589" width="60.8125" height="29.4746" filterUnits="userSpaceOnUse" color-interpolation-filters="sRGB">
<feFlood flood-opacity="0" result="BackgroundImageFix"/>
<feBlend mode="normal" in="SourceGraphic" in2="BackgroundImageFix" result="shape"/>
<feGaussianBlur stdDeviation="2" result="effect1_foregroundBlur_5301_521"/>
</filter>
</defs>
</svg>
