<svg width="89" height="103" viewBox="0 0 89 103" fill="none" xmlns="http://www.w3.org/2000/svg">
<g filter="url(#filter0_f_5301_519)">
<ellipse rx="27.5" ry="7.5" transform="matrix(1 0 0 -1 44.5 91.5)" fill="#707070" fill-opacity="0.3"/>
</g>
<path d="M89 45C89 56.6695 84.3116 67.8611 75.9663 76.1127C67.6209 84.3643 56.3021 89 44.5 89C32.6979 89 21.3791 84.3643 13.0338 76.1127C4.68838 67.8611 1.78207e-06 56.6695 0 45L44.5 45H89Z" fill="#F3F3F3"/>
<mask id="mask0_5301_519" style="mask-type:alpha" maskUnits="userSpaceOnUse" x="0" y="0" width="89" height="65">
<path d="M75.9662 13.6951C84.3798 21.9758 89 33.3144 89 44.994C89 55.5424 69.0767 64.0937 44.5 64.0937C19.9233 64.0937 0 55.5424 0 44.994C0 33.3144 4.6202 21.9758 13.0338 13.6951C21.3791 5.48144 32.6979 0.867064 44.5 0.867065C56.3021 0.867067 67.6209 5.48144 75.9662 13.6951Z" fill="#F22424"/>
</mask>
<g mask="url(#mask0_5301_519)">
<path d="M75.9662 13.6951C84.3798 21.9758 89 33.3144 89 44.994C89 55.5424 69.0767 64.0937 44.5 64.0937C19.9233 64.0937 0 55.5424 0 44.994C0 33.3144 4.6202 21.9758 13.0338 13.6951C21.3791 5.48144 32.6979 0.867064 44.5 0.867065C56.3021 0.867067 67.6209 5.48144 75.9662 13.6951Z" fill="#F22424"/>
<path fill-rule="evenodd" clip-rule="evenodd" d="M-0.669158 42.8535C-0.669158 44.0693 0.460917 45.3953 2.17483 47.1345C3.90872 48.8939 11.0731 52.9876 14.7725 54.5754C22.1579 57.7453 32.6649 59.8127 44.5 59.8127C56.3352 59.8127 66.8421 57.7453 74.2276 54.5754C78.9404 52.5527 86.323 47.7387 89 43.3474C91.0075 40.0544 88.1635 34.4562 88.1635 34.4562L93.3496 40.713V44.994C93.3496 49.0524 91.415 52.578 88.6253 55.4089C85.8555 58.2196 82.0585 60.555 77.7049 62.4236C68.9846 66.1664 57.2415 68.3746 44.5 68.3746C31.7585 68.3746 20.0155 66.1664 11.2951 62.4236C6.94153 60.555 3.14452 58.2196 0.374767 55.4089C-2.41497 52.578 -4.34961 49.0524 -4.34961 44.994V40.713L-0.669158 42.8535Z" fill="#393939"/>
</g>
<ellipse cx="44.5" cy="63" rx="13.5" ry="13" fill="#393939"/>
<ellipse cx="44.5" cy="63" rx="9.5" ry="8" fill="#F3F3F3"/>
<defs>
<filter id="filter0_f_5301_519" x="13" y="80" width="63" height="23" filterUnits="userSpaceOnUse" color-interpolation-filters="sRGB">
<feFlood flood-opacity="0" result="BackgroundImageFix"/>
<feBlend mode="normal" in="SourceGraphic" in2="BackgroundImageFix" result="shape"/>
<feGaussianBlur stdDeviation="2" result="effect1_foregroundBlur_5301_519"/>
</filter>
</defs>
</svg>
