<svg width="211" height="50" viewBox="0 0 211 50" fill="none" xmlns="http://www.w3.org/2000/svg">
<g clip-path="url(#clip0_1307_62942)">
<path d="M1.80981 45.4125L2.23069 45.3283L2.65157 45.2021L3.40914 44.9074L3.83002 44.7391L4.16672 44.5707L4.46133 44.3603L4.84012 44.1078L5.17682 43.8973L5.47143 43.6448L6.06066 43.0977L6.31318 42.8452L6.52362 42.5505L6.98658 41.8771L7.44955 41.2458L7.6179 40.9091L7.82833 40.5303L7.99668 40.1936L8.12295 39.8569L8.37547 39.0994L8.45965 38.6785L8.58591 38.2576L8.71217 37.5421L8.79635 36.7004L8.83843 35.8586V35.059L8.79635 34.2593L8.67008 33.4596L8.50173 32.6179L8.24921 31.9024L7.9546 31.1448L7.78625 30.766L7.6179 30.3872L7.19702 29.6718L6.94449 29.3771L6.69197 29.0404L6.18692 28.4091L5.89231 28.1145L5.63978 27.8199L5.00847 27.2728L4.67177 27.0202L4.25089 26.8098L3.49332 26.3889L3.11453 26.1785L2.69365 26.0101L2.23069 25.8418L1.80981 25.7155L20.0337 25.6313L20.7071 25.7155L21.0859 25.7576L21.4226 25.7997L21.7593 25.926L22.096 26.0101L22.6431 26.3047L22.9378 26.4731L23.2324 26.5994L23.5691 26.8098L23.7795 27.0202L24.3267 27.4832L24.7475 27.9882L25.0001 28.2829L25.1684 28.5354L25.4209 28.83L25.5893 29.1246L25.7997 29.4192L25.926 29.798L26.0943 30.1347L26.2206 30.4293L26.3889 30.8081L26.5152 31.1448L26.7256 31.9024L26.9361 32.6179L27.0623 33.3755L27.1886 34.2172V35.7744L27.1465 36.5741L27.0623 36.995V37.3738L26.894 38.1313L26.6836 38.8889L26.4731 39.6465L26.3469 40.0253L26.1785 40.4041L26.0102 40.7408L25.7997 41.0354L25.6314 41.4142L25.4209 41.7509L24.9159 42.3401L24.6633 42.6347L24.4108 42.9293L24.1162 43.2239L23.8637 43.4765L23.5691 43.6869L23.1903 43.9815L22.8957 44.1499L22.5169 44.3603L22.0118 44.6549L21.2963 44.9916L20.5809 45.2862L20.2862 45.3704H20.0758L1.80981 45.4125Z" fill="#F58131"/>
<path d="M1.80981 22.7693L2.1886 22.6851L2.56739 22.601L3.28288 22.3064L3.66167 22.1801L3.95628 21.9697L4.25089 21.8013L4.58759 21.5488L4.88221 21.3804L5.17682 21.1279L5.72396 20.6229L5.93439 20.4124L6.14483 20.1178L6.60779 19.5286L6.98658 18.9394L7.15493 18.6026L7.36537 18.266L7.49163 17.9713L7.6179 17.6346L7.87042 16.9191L7.9546 16.5824L8.08086 16.2037L8.16503 15.4882L8.24921 14.7727L8.2913 13.973V13.2154L8.24921 12.5L8.12294 11.7424L7.9546 10.9848L7.70207 10.3114L7.49163 9.59591L7.32328 9.25921L7.15493 8.92251L6.73406 8.24911L6.52362 7.99659L6.31318 7.65989L5.85022 7.11275L5.55561 6.81814L5.30308 6.56561L4.75594 6.01847L4.41924 5.80804L4.04045 5.5976L3.40914 5.21881L3.03035 5.00837L2.60948 4.88211L2.1886 4.75585L1.80981 4.62959L18.6027 4.54541L19.2761 4.62959H19.5708L19.9075 4.71376L20.2442 4.79794L20.4967 4.88211L21.0438 5.17672L21.2963 5.30299L21.591 5.42925L21.8435 5.5976L22.0539 5.80804L22.559 6.22891L22.9378 6.69187L23.1482 6.98649L23.3165 7.19693L23.5691 7.49154L23.7374 7.74406L23.9058 8.03868L24.032 8.33329L24.2004 8.66999L24.3266 8.9646L24.4529 9.3013L24.5792 9.59591L24.7896 10.3114L24.958 10.9848L25.0842 11.7003L25.1684 12.4579V14.6043L25.0842 14.9831V15.3619L24.9159 16.0353L24.7475 16.7508L24.5371 17.4242L24.4108 17.803L24.2425 18.1397L24.1162 18.4764L23.9058 18.7289L23.7374 19.0656L23.5691 19.4023L23.1061 19.9495L22.8536 20.202L22.6431 20.4545L22.3906 20.707L22.1381 20.9596L21.8435 21.2121L21.5068 21.4225L21.2543 21.633L20.9176 21.8013L20.4125 22.0959L19.7812 22.3484L19.1078 22.6431L18.8132 22.7272H18.6448L1.80981 22.7693Z" fill="white"/>
<path d="M15.6145 34.6799L16.0354 34.5958L16.4563 34.4695L17.2559 34.1749L17.6768 34.0065L18.0556 33.7961L18.3923 33.5857L18.7711 33.3331L19.0657 33.1227L19.4024 32.8702L19.9916 32.281L20.2862 32.0284L20.4967 31.7338L21.0017 31.0604L21.4226 30.387L21.5909 30.0082L21.8435 29.6715L22.0118 29.2927L22.1381 28.9139L22.4327 28.1564L22.5169 27.7355L22.601 27.3146L22.7694 26.557L22.8536 25.7153L22.8956 24.8315V23.9897L22.8115 23.19L22.6852 22.3483L22.5169 21.5065L22.2643 20.749L21.9697 19.9493L21.8014 19.5284L21.5909 19.1917L21.1701 18.4762L20.9175 18.1395L20.665 17.8028L20.16 17.1715L19.8233 16.8348L19.5707 16.5402L18.8973 15.951L18.5606 15.6985L18.1398 15.488L17.3822 15.0251L16.9613 14.8146L16.5404 14.6463L16.0775 14.52L15.6145 14.3517L34.4276 14.3096L35.1431 14.3517L35.5219 14.3937L35.8586 14.4779L36.2374 14.5621L36.532 14.6463L37.1212 14.983L37.4579 15.1513L37.7525 15.2776L38.0472 15.488L38.2997 15.6985L38.8468 16.1614L39.2677 16.6665L39.5202 17.0032L39.7307 17.2557L39.9832 17.5924L40.1515 17.887L40.362 18.1816L40.4882 18.5604L40.6566 18.9392L40.8249 19.2338L40.9512 19.6126L41.1196 19.9493L41.33 20.749L41.5404 21.5065L41.6667 22.3062L41.793 23.1059V24.7473L41.7509 25.5469L41.7088 25.9678L41.6667 26.3887L41.4983 27.1463L41.2879 27.9459L41.0354 28.7035L40.9512 29.1244L40.7408 29.5032L40.5724 29.882L40.362 30.1766L40.1936 30.5554L39.9411 30.8921L39.4781 31.5234L39.1835 31.818L38.931 32.1126L38.6364 32.4072L38.3839 32.6597L38.0472 32.9123L37.6684 33.1648L37.3317 33.3752L36.995 33.5857L36.4478 33.9224L35.7323 34.217L34.9748 34.5116L34.6381 34.6379H34.4697L15.6145 34.6799Z" fill="#FFD337"/>
<path fill-rule="evenodd" clip-rule="evenodd" d="M95.2019 12.037C95.2019 11.574 95.5807 11.2373 96.0016 11.2373H101.725C102.188 11.2373 102.525 11.6161 102.525 12.037V38.2154C102.525 38.6784 102.146 39.0151 101.725 39.0151H96.0016C95.5386 39.0151 95.2019 38.6363 95.2019 38.2154V12.037Z" fill="white"/>
<path d="M68.3922 17.719C67.0033 17.3823 65.3619 17.2139 63.9309 17.2139C61.0269 17.256 58.0386 18.1819 56.4393 20.3284C54.6295 22.6853 54.6295 26.5995 56.0184 28.9564C58.4595 33.1651 64.9831 32.9547 69.1498 31.9446C69.4444 31.9025 69.9073 32.0708 69.9073 32.4917V37.8789C69.8652 38.5944 69.4865 38.6786 69.1918 38.7628C65.404 39.7729 59.5959 39.6466 55.8922 38.4681C54.2087 37.921 52.8619 37.2476 51.8939 36.49C49.8737 34.9328 48.5689 33.123 47.8534 31.1028C47.138 29.0405 46.8013 27.0624 46.8434 25.2526C46.8434 21.9277 47.5168 19.2341 48.8215 17.0877C50.0841 14.8991 51.8097 13.2998 54.0824 12.1634C56.3972 11.0691 59.1329 10.3116 62.2053 10.3116C64.3518 10.3537 65.7827 10.1432 67.6767 10.522C67.9292 10.5641 68.4763 10.8587 68.4763 11.3217L68.3922 17.719ZM119.655 27.1887C119.529 26.852 119.444 26.5574 119.276 26.3048L118.897 25.6735C118.687 25.421 118.476 25.2106 118.308 25.0422C118.055 24.8739 117.761 24.6634 117.466 24.5372C117.172 24.3688 116.793 24.2846 116.456 24.2425C116.119 24.2005 115.741 24.1584 115.404 24.1584C114.604 24.1584 113.889 24.2846 113.3 24.5372C112.71 24.7897 112.205 25.1685 111.869 25.6735C111.7 25.884 111.574 26.1365 111.448 26.389C111.321 26.6415 111.195 26.8941 111.111 27.1466C111.027 27.4412 110.985 27.6937 110.943 27.9042C110.901 28.1988 110.859 28.4934 110.859 28.7459V29.8823C110.901 30.0506 110.901 30.1769 110.901 30.2611C110.901 30.3873 110.943 30.5136 110.985 30.6819C111.027 30.8924 111.069 31.1449 111.195 31.3974C111.279 31.65 111.364 31.8604 111.49 32.1129C111.574 32.3654 111.742 32.5759 111.911 32.7863C112.079 33.0388 112.332 33.2493 112.542 33.4176C112.752 33.586 113.089 33.7543 113.342 33.8385C113.636 33.9648 114.015 34.091 114.31 34.1331C114.604 34.1752 114.983 34.2173 115.362 34.2173C115.783 34.2173 116.119 34.1752 116.414 34.1331C116.625 34.091 116.793 34.0489 116.919 34.0069C117.087 33.9648 117.214 33.9227 117.382 33.8385C117.677 33.7543 117.971 33.586 118.182 33.4176C118.434 33.2072 118.645 32.9968 118.855 32.7442C118.981 32.5759 119.15 32.3234 119.276 32.1129C119.402 31.7762 119.529 31.5658 119.613 31.3133C119.697 31.0186 119.739 30.8082 119.781 30.5557C119.823 30.3452 119.865 30.1348 119.865 29.9244C119.907 29.8402 119.907 29.756 119.907 29.6298V28.4513L119.865 28.4092C119.865 28.1988 119.823 28.0304 119.781 27.82C119.781 27.6096 119.697 27.357 119.655 27.1887ZM112.458 39.2257C111.616 39.0995 110.816 38.889 110.059 38.6786C109.343 38.4261 108.754 38.1735 108.249 37.8368C107.702 37.5001 107.239 37.1213 106.902 36.7005C106.481 36.1954 106.103 35.7324 105.85 35.3116C105.513 34.7644 105.219 34.3015 105.05 33.7964C104.84 33.3335 104.672 32.7442 104.545 32.1971C104.377 31.692 104.251 31.187 104.251 30.6399C104.167 29.6718 104.167 28.7038 104.251 27.9042C104.293 27.3149 104.377 26.7257 104.503 26.1786C104.63 25.6314 104.798 25.0422 105.008 24.5792C105.177 24.0742 105.471 23.5271 105.766 23.022C106.061 22.517 106.439 22.054 106.818 21.5489C107.534 20.6651 108.628 19.9496 110.059 19.4867C111.49 19.0237 113.258 18.7712 115.404 18.7712C116.456 18.7712 117.382 18.8133 118.308 18.9395C119.192 19.1079 119.992 19.2762 120.707 19.4867C121.38 19.6971 121.97 20.0338 122.517 20.3705C123.022 20.7072 123.485 21.1281 123.864 21.5489C124.242 22.0119 124.621 22.517 124.958 23.022C125.252 23.485 125.505 23.99 125.757 24.5372C125.968 25.0422 126.136 25.5893 126.263 26.1365C126.389 26.6836 126.515 27.2308 126.557 27.82C126.557 27.9042 126.599 27.9883 126.599 28.0725C126.641 28.6617 126.641 29.4614 126.599 30.3032L126.557 30.4715C126.515 31.1028 126.389 31.65 126.263 32.1971C126.136 32.7021 125.926 33.2493 125.757 33.7964C125.505 34.3015 125.252 34.7644 124.958 35.2695C124.621 35.7325 124.284 36.2375 123.864 36.7005C123.527 37.0792 123.022 37.458 122.475 37.7947C121.97 38.1314 121.38 38.384 120.707 38.6365C119.992 38.8469 119.192 39.0574 118.308 39.1415C117.508 39.2678 116.667 39.3941 115.699 39.3941L115.53 39.352C114.352 39.4362 113.342 39.352 112.458 39.2257ZM192.466 28.8301V30.0085L192.508 30.0506C192.508 30.219 192.55 30.3873 192.593 30.5557C192.635 30.724 192.677 30.8503 192.719 30.9766C192.761 31.0607 192.803 31.1449 192.803 31.2712C192.845 31.4395 192.887 31.5658 192.929 31.692C192.971 31.7762 193.013 31.9025 193.056 31.9867C193.224 32.3234 193.392 32.5338 193.518 32.7442C193.687 32.9547 193.897 33.1651 194.066 33.3755L194.15 33.4597C194.276 33.5439 194.402 33.6281 194.529 33.6702C194.655 33.7543 194.823 33.7964 194.992 33.8806C195.286 34.0069 195.581 34.091 195.917 34.1752C196.254 34.2173 196.633 34.2594 196.97 34.2594C197.348 34.2594 197.727 34.2173 198.022 34.1752C198.232 34.1331 198.401 34.091 198.527 34.0489C198.653 34.0069 198.821 33.9648 199.032 33.8806C199.158 33.8385 199.284 33.7543 199.411 33.7122C199.537 33.6702 199.663 33.586 199.747 33.5018C200 33.2914 200.252 33.0809 200.421 32.8284C200.631 32.618 200.758 32.3654 200.842 32.155C200.968 31.9025 201.094 31.65 201.178 31.3974C201.263 31.187 201.305 30.9766 201.389 30.7661C201.473 30.4294 201.515 30.1348 201.515 29.8402V28.6617C201.515 28.3671 201.473 28.0725 201.431 27.82L201.389 27.6937C201.305 27.4833 201.263 27.2308 201.178 27.0624C201.094 26.8099 201.01 26.5995 200.884 26.3469C200.758 26.0944 200.631 25.884 200.463 25.6314C200.295 25.3789 200.084 25.1685 199.874 24.958C199.621 24.7055 199.284 24.5792 199.032 24.453C198.737 24.3267 198.401 24.2005 198.022 24.1584C197.727 24.1163 197.348 24.0742 196.97 24.0742C196.212 24.0742 195.497 24.2005 194.907 24.453C194.318 24.7055 193.771 25.0843 193.392 25.6314L192.971 26.3048C192.845 26.5574 192.761 26.8099 192.677 27.0624L192.55 27.4412C192.508 27.5254 192.508 27.6516 192.508 27.7358C192.466 27.9042 192.424 28.0725 192.424 28.2409V28.4934C192.382 28.5776 192.382 28.6617 192.382 28.7459V28.8301H192.466ZM194.108 39.2257C193.224 39.0995 192.424 38.889 191.667 38.6786C190.951 38.4261 190.362 38.1735 189.857 37.8368C189.352 37.5001 188.931 37.1213 188.51 36.7005C188.131 36.2375 187.752 35.7325 187.458 35.2695C187.163 34.7644 186.911 34.3015 186.7 33.7964C186.49 33.2914 186.364 32.7442 186.195 32.1971C186.069 31.692 185.943 31.187 185.943 30.6399C185.859 29.6718 185.859 28.7038 185.943 27.9042C185.985 27.3149 186.027 26.7678 186.153 26.2207C186.321 25.6735 186.49 25.0843 186.658 24.5792C186.911 23.99 187.163 23.485 187.458 23.0641C187.71 22.6011 188.089 22.0961 188.468 21.591C189.268 20.7072 190.32 19.9917 191.709 19.5287C193.14 19.0658 194.949 18.8133 197.054 18.8133C198.106 18.8133 199.074 18.8553 200 18.9816C200.842 19.15 201.641 19.3183 202.357 19.5287C203.03 19.7813 203.662 20.0759 204.209 20.4126C204.714 20.7493 205.177 21.1702 205.555 21.6331C205.976 22.0961 206.355 22.6011 206.65 23.1062C206.944 23.6112 207.197 24.1163 207.407 24.6213C207.66 25.1264 207.828 25.7156 207.954 26.2628C208.081 26.8099 208.123 27.357 208.207 27.9042V27.9463C208.249 28.5355 208.291 29.4614 208.207 30.3873V30.5978C208.123 31.187 208.039 31.7341 207.912 32.2392C207.744 32.7442 207.618 33.2914 207.365 33.7543C207.113 34.2594 206.902 34.7644 206.566 35.2695C206.229 35.7325 205.892 36.1954 205.471 36.6584C205.093 37.0793 204.63 37.458 204.125 37.7947C203.619 38.1314 202.988 38.384 202.273 38.6365C201.557 38.8469 200.758 39.0153 199.916 39.1415C199.074 39.2678 198.232 39.3941 197.264 39.3941L197.054 39.352C196.002 39.4362 195.034 39.352 194.108 39.2257ZM93.5605 30.5136V30.5978C93.5184 31.187 93.3922 31.7341 93.2659 32.2392C93.1397 32.7442 92.9292 33.2914 92.7609 33.8385C92.5083 34.3436 92.2558 34.8065 91.9191 35.3116C91.5824 35.7745 91.2457 36.2796 90.8248 36.7426C90.4881 37.1213 89.9831 37.5001 89.4359 37.8368C88.9309 38.1735 88.2996 38.4261 87.6262 38.6786C86.9107 38.889 86.111 39.0995 85.2272 39.1836C84.3854 39.3099 83.4595 39.4362 82.4073 39.4362C81.3551 39.4782 80.345 39.3099 79.4612 39.1836C78.6194 39.0574 77.8198 38.8469 77.0622 38.6365C76.3467 38.384 75.7575 38.1314 75.2524 37.7947C74.7053 37.458 74.2423 37.0793 73.9056 36.6584C73.4848 36.1533 73.106 35.6904 72.8535 35.2695C72.5168 34.7223 72.2221 34.2594 72.0538 33.7543C71.8434 33.2914 71.675 32.7021 71.5487 32.155C71.3804 31.65 71.2541 31.1449 71.2541 30.5978C71.17 29.6298 71.17 28.6617 71.2541 27.8621C71.2962 27.2729 71.3804 26.6836 71.5067 26.1365C71.6329 25.5893 71.8013 25.0001 72.0117 24.5372C72.1801 24.0321 72.4747 23.485 72.7693 22.9799C73.106 22.4749 73.4427 22.0119 73.8215 21.5069C74.537 20.623 75.6312 19.9075 77.0622 19.4446C78.4932 18.9816 80.2609 18.7291 82.4073 18.7291C83.4595 18.7291 84.3854 18.7712 85.3114 18.8974C86.1952 19.0658 86.9949 19.2341 87.7104 19.4446C88.3838 19.6971 89.0151 19.9917 89.5622 20.3284C90.0673 20.6651 90.5302 21.086 90.909 21.5069C91.2878 21.9698 91.6666 22.4749 92.0033 22.9799C92.2979 23.4429 92.5504 23.9479 92.803 24.4951C93.0134 25.0001 93.1817 25.5473 93.308 26.0944C93.4343 26.6415 93.5605 27.1887 93.6026 27.7779C93.6026 27.8621 93.6447 27.9463 93.6447 28.0304C93.6868 28.6197 93.6868 29.4193 93.6447 30.3032L93.5605 30.5136ZM78.4932 26.3469C78.3669 26.5995 78.2407 26.852 78.1565 27.1045C78.0723 27.3991 78.0302 27.6516 77.9881 27.8621C77.946 28.1567 77.904 28.4513 77.904 28.7038V29.7981C77.9461 29.9665 77.946 30.0927 77.946 30.219C77.946 30.3452 77.9881 30.4715 78.0302 30.6399C78.0723 30.8503 78.1144 31.1028 78.2407 31.3553C78.3248 31.6079 78.409 31.8183 78.5353 32.0708C78.6195 32.3234 78.7878 32.5338 78.9562 32.7442C79.1245 32.9968 79.377 33.2493 79.5875 33.4176C79.7137 33.5018 79.8821 33.586 80.0083 33.6702C80.1346 33.7543 80.2609 33.7964 80.3871 33.8385C80.6817 34.0069 81.0605 34.091 81.3551 34.1331C81.6498 34.1752 82.0285 34.2173 82.4073 34.2173C82.8282 34.2173 83.1649 34.1752 83.4595 34.1331C83.67 34.091 83.8383 34.0489 83.9646 34.0069C84.1329 33.9648 84.2592 33.9227 84.4275 33.8385C84.7221 33.7543 85.0168 33.586 85.2272 33.4176C85.4797 33.2072 85.6902 32.9968 85.9006 32.7442C86.0269 32.5759 86.1952 32.3234 86.3215 32.1129C86.4477 31.7762 86.574 31.5658 86.6582 31.3133C86.7003 31.0186 86.7844 30.8503 86.8265 30.5978C86.9107 30.3452 86.9107 30.0927 86.9528 29.8823C86.9528 29.6718 86.9949 29.4614 86.9949 29.4614V28.9143L86.9528 28.6197C86.9528 28.3671 86.9107 28.0725 86.8686 27.82C86.8265 27.6096 86.7423 27.357 86.7003 27.1466C86.574 26.8099 86.4898 26.5153 86.3215 26.2628L85.9427 25.6314C85.7322 25.3789 85.5218 25.1685 85.3535 25.0001C85.1009 24.8318 84.8063 24.6213 84.5117 24.4951C84.2171 24.3267 83.8383 24.2425 83.5016 24.2005C83.1649 24.1584 82.7861 24.1163 82.4494 24.1163C81.6497 24.1163 80.9343 24.2425 80.345 24.4951C79.7558 24.7476 79.2508 25.1264 78.9141 25.6314C78.7036 25.8419 78.5774 26.0944 78.4932 26.3469ZM153.03 27.6516V26.8941C153.03 25.3789 151.936 24.1163 150.379 24.0742H147.896V38.2577C147.896 38.6786 147.559 38.9732 147.138 38.9732H141.414C140.993 38.9732 140.657 38.6365 140.657 38.2577V26.8941C140.657 25.3368 139.394 24.0742 137.795 24.0742H135.648V38.2577C135.648 38.6786 135.311 38.9732 134.891 38.9732H128.998C128.577 38.9732 128.241 38.6365 128.241 38.2577V21.2964C128.241 20.118 128.872 19.3604 130.05 19.3604L152.231 19.4025C153.199 19.4025 154.251 19.4867 155.093 19.655C155.471 19.7392 155.892 19.8234 156.229 19.9075C158.291 20.4126 159.596 22.4749 160.017 23.5271C160.269 24.4109 160.396 25.3368 160.396 26.2207V38.2577C160.396 38.6786 159.933 38.9732 159.554 38.9732H153.746C153.325 38.9732 152.988 38.6365 152.988 38.2577L153.03 27.6516ZM169.276 24.0742V32.5759C169.318 33.3335 169.781 34.1752 170.833 34.2594L172.938 34.3015C173.064 34.3015 173.274 34.2594 173.443 34.2594C173.948 34.2173 174.537 34.091 175 33.9648C176.599 33.2914 177.231 31.7762 177.399 31.1028C177.651 30.0085 177.82 28.0725 176.978 26.389C176.726 25.884 176.389 25.5052 176.01 25.0843C175.21 24.453 174.032 24.0742 173.316 24.0321C173.064 23.99 172.98 24.0321 172.727 24.0321H169.276V24.0742ZM175.547 18.9816C176.431 18.9816 177.231 19.0658 177.946 19.2341C178.325 19.3183 178.619 19.4025 178.914 19.4867C179.209 19.6129 179.84 19.9075 180.008 20.0338C180.555 20.3705 180.724 20.5388 181.145 20.8335C181.355 21.0439 181.524 21.1702 181.734 21.3806C182.155 21.8015 182.828 22.8537 183.165 23.6112C183.291 23.9058 183.375 24.1584 183.46 24.4109C183.544 24.6634 183.628 24.9159 183.712 25.2106C183.838 25.7998 184.007 26.3469 184.049 26.9362C184.133 27.6096 184.217 28.1988 184.217 29.0405V30.219C184.217 30.6399 184.175 30.9766 184.175 31.3553C184.133 31.7341 184.091 32.0708 184.049 32.4075L183.965 32.9547C183.923 33.0809 183.88 33.2493 183.838 33.3755C183.165 35.5641 181.65 37.0793 179.63 38.1314C178.746 38.6365 177.609 38.889 176.473 39.0574C176.431 39.0574 176.347 39.0574 176.305 39.0995H165.109C162.837 38.8469 162.037 37.5843 162.037 34.8486V11.9951C162.037 11.5321 162.416 11.1954 162.837 11.1954H168.434C168.897 11.1954 169.234 11.5742 169.234 11.9951V19.0237H175.547V18.9816Z" fill="white"/>
</g>
<defs>
<clipPath id="clip0_1307_62942">
<rect width="210.438" height="50" fill="white"/>
</clipPath>
</defs>
</svg>
