<svg width="167" height="132" viewBox="0 0 167 132" fill="none" xmlns="http://www.w3.org/2000/svg">
<g opacity="0.7">
<g clip-path="url(#clip0_1489_25614)">
<path fill-rule="evenodd" clip-rule="evenodd" d="M44 -2.42088L44.303 -2.48821L44.6061 -2.55555L45.1785 -2.79124L45.4815 -2.89225L45.7172 -3.06061L45.9529 -3.19529L46.2222 -3.39731L46.4579 -3.53199L46.6936 -3.73401L47.1313 -4.13805L47.2997 -4.3064L47.468 -4.54209L47.8384 -5.01347L48.1414 -5.48485L48.2761 -5.75421L48.4444 -6.02357L48.5455 -6.25926L48.6465 -6.52862L48.8485 -7.10101L48.9158 -7.37037L49.0168 -7.6734L49.0842 -8.24579L49.1515 -8.81818L49.1852 -9.45791V-10.064L49.1515 -10.6364L49.0505 -11.2424L48.9158 -11.8485L48.7138 -12.3872L48.5455 -12.9596L48.4108 -13.229L48.2761 -13.4983L47.9394 -14.037L47.771 -14.2391L47.6027 -14.5084L47.2323 -14.9461L46.9966 -15.1818L46.7946 -15.3838L46.3569 -15.8215L46.0875 -15.9899L45.7845 -16.1582L45.2795 -16.4613L44.9764 -16.6296L44.6397 -16.7306L44.303 -16.8316L44 -16.9327L57.4343 -17L57.9731 -16.9327H58.2088L58.4781 -16.8653L58.7475 -16.798L58.9495 -16.7306L59.3872 -16.4949L59.5892 -16.3939L59.8249 -16.2929L60.0269 -16.1582L60.1953 -15.9899L60.5993 -15.6532L60.9024 -15.2828L61.0707 -15.0471L61.2054 -14.8788L61.4074 -14.6431L61.5421 -14.4411L61.6768 -14.2054L61.7778 -13.9697L61.9125 -13.7003L62.0135 -13.4646L62.1145 -13.1953L62.2155 -12.9596L62.3838 -12.3872L62.5185 -11.8485L62.6195 -11.2761L62.6869 -10.67V-9.17191L70.0943 -9.18848L70.6667 -9.15481L70.9697 -9.12114L71.239 -9.0538L71.5421 -8.98646L71.7778 -8.91912L72.2491 -8.64976L72.5185 -8.51508L72.7542 -8.41407L72.9899 -8.24572L73.1919 -8.07737L73.6296 -7.70699L73.9663 -7.30295L74.1683 -7.03359L74.3367 -6.83157L74.5387 -6.56221L74.6734 -6.32652L74.8417 -6.09083L74.9427 -5.7878L75.0774 -5.48477L75.2121 -5.24908L75.3131 -4.94605L75.4478 -4.67669L75.6161 -4.03696L75.7845 -3.4309L75.8855 -2.79117L75.9865 -2.15144V-0.838308L75.9529 -0.198576L75.9192 0.138124L75.8855 0.474825L75.7508 1.08088L75.5825 1.72062L75.3805 2.32668L75.3131 2.66338L75.1448 2.96641L75.0101 3.26944L74.8417 3.50513L74.7071 3.80816L74.505 4.07752L74.1347 4.58257L73.899 4.81826L73.697 5.05395L73.4613 5.28964L73.2592 5.49166L72.9899 5.69368L72.6869 5.8957L72.4175 6.06405L72.1481 6.2324L71.7104 6.50176L71.138 6.73745L70.532 6.97314L70.2626 7.07415H70.1279L64.303 7.08715V7.98313L64.2694 8.62286L64.202 8.95956V9.26259L64.0673 9.86865L63.899 10.4747L63.7306 11.0808L63.6296 11.3838L63.4949 11.6868L63.3603 11.9562L63.1919 12.1919L63.0572 12.4949L62.8889 12.7643L62.4848 13.2357L62.2828 13.4713L62.0808 13.707L61.8451 13.9427L61.6431 14.1447L61.4074 14.3131L61.1044 14.5488L60.8687 14.6835L60.5657 14.8518L60.1616 15.0875L59.5892 15.3569L59.0168 15.5926L58.7811 15.6599H58.6128L44 15.6936L44.3367 15.6262L44.6734 15.5252L45.2795 15.2895L45.6162 15.1548L45.8855 15.0202L46.1212 14.8518L46.4242 14.6498L46.6936 14.4814L46.9293 14.2794L47.4007 13.8417L47.6027 13.6397L47.771 13.404L48.1414 12.8653L48.5118 12.3602L48.6465 12.0909L48.8148 11.7878L48.9495 11.5185L49.0505 11.2491L49.2525 10.6431L49.3199 10.3064L49.4209 9.96966L49.5219 9.39727L49.5892 8.72387L49.6229 8.05047V7.41074L49.5892 6.77101L49.4882 6.13128L49.3535 5.45788L49.1515 4.88549L48.9158 4.27943L48.7811 3.97639L48.6465 3.67336L48.3098 3.10098L48.1077 2.86529L47.9057 2.59592L47.5017 2.09087L47.266 1.85518L47.064 1.61949L46.5589 1.18178L46.2896 0.979761L45.9529 0.811413L45.3468 0.474712L45.0438 0.306362L44.7071 0.171682L44.3367 0.0370026L44 -0.0640087L58.5791 -0.131348L59.1178 -0.0640087L59.4209 -0.0303383L59.6902 0.00333214L59.9596 0.104342L60.229 0.171682L60.6667 0.407372L60.7813 0.472891L60.835 -0.0638962L60.8687 -0.770967V-1.44437L60.8013 -2.0841L60.7003 -2.7575L60.5656 -3.4309L60.3804 -3.98651L60.2626 -3.86869L60.0269 -3.66667L59.7576 -3.49831L59.5556 -3.32996L59.2862 -3.19529L58.8822 -2.95959L58.3771 -2.75758L57.8384 -2.52188L57.6027 -2.45455H57.468L44 -2.42088ZM66 42.6936L66.3367 42.6262L66.6734 42.5252L67.2795 42.2895L67.6162 42.1548L67.8855 42.0202L68.1212 41.8518L68.4242 41.6498L68.6936 41.4814L68.9293 41.2794L69.4007 40.8417L69.6027 40.6397L69.771 40.404L70.1414 39.8653L70.5118 39.3602L70.6465 39.0909L70.8148 38.7878L70.9495 38.5185L71.0505 38.2491L71.2525 37.6431L71.3199 37.3064L71.4209 36.9697L71.5219 36.3973L71.5892 35.7239L71.6229 35.0505V34.4107L71.5892 33.771L71.4882 33.1313L71.3535 32.4579L71.1515 31.8855L70.9158 31.2794L70.7811 30.9764L70.6465 30.6734L70.3098 30.101L70.1077 29.8653L69.9057 29.5959L69.5017 29.0909L69.266 28.8552L69.064 28.6195L68.5589 28.1818L68.2896 27.9798L67.9529 27.8114L67.3468 27.4747L67.0438 27.3064L66.7071 27.1717L66.3367 27.037L66 26.936L80.5791 26.8687L81.1178 26.936L81.4209 26.9697L81.6902 27.0033L81.9596 27.1043L82.229 27.1717L82.6667 27.4074L82.7813 27.4729L82.835 26.9361L82.8687 26.229V25.5556L82.8013 24.9159L82.7003 24.2425L82.5657 23.5691L82.3804 23.0135L82.2626 23.1313L82.0269 23.3333L81.7576 23.5017L81.5556 23.67L81.2862 23.8047L80.8822 24.0404L80.3771 24.2424L79.8384 24.4781L79.6027 24.5455H79.468L66 24.5791L66.303 24.5118L66.6061 24.4444L67.1785 24.2088L67.4815 24.1077L67.7172 23.9394L67.9529 23.8047L68.2222 23.6027L68.4579 23.468L68.6936 23.266L69.1313 22.862L69.2997 22.6936L69.468 22.4579L69.8384 21.9865L70.1414 21.5152L70.2761 21.2458L70.4444 20.9764L70.5455 20.7407L70.6465 20.4714L70.8485 19.899L70.9158 19.6296L71.0168 19.3266L71.0842 18.7542L71.1515 18.1818L71.1852 17.5421V16.936L71.1515 16.3636L71.0505 15.7576L70.9158 15.1515L70.7138 14.6128L70.5455 14.0404L70.4108 13.771L70.2761 13.5017L69.9394 12.963L69.771 12.7609L69.6027 12.4916L69.2323 12.0539L68.9966 11.8182L68.7946 11.6162L68.3569 11.1785L68.0875 11.0101L67.7845 10.8418L67.2795 10.5387L66.9764 10.3704L66.6397 10.2694L66.303 10.1684L66 10.0673L79.4343 10L79.9731 10.0673H80.2088L80.4781 10.1347L80.7475 10.202L80.9495 10.2694L81.3872 10.5051L81.5892 10.6061L81.8249 10.7071L82.0269 10.8418L82.1953 11.0101L82.5993 11.3468L82.9024 11.7172L83.0707 11.9529L83.2054 12.1212L83.4074 12.3569L83.5421 12.5589L83.6768 12.7946L83.7778 13.0303L83.9125 13.2997L84.0135 13.5354L84.1145 13.8047L84.2155 14.0404L84.3838 14.6128L84.5185 15.1515L84.6195 15.7239L84.6869 16.33V17.8281L92.0943 17.8115L92.6667 17.8452L92.9697 17.8789L93.239 17.9462L93.5421 18.0135L93.7778 18.0809L94.2491 18.3502L94.5185 18.4849L94.7542 18.5859L94.9899 18.7543L95.1919 18.9226L95.6296 19.293L95.9663 19.697L96.1683 19.9664L96.3367 20.1684L96.5387 20.4378L96.6734 20.6735L96.8417 20.9092L96.9427 21.2122L97.0774 21.5152L97.2121 21.7509L97.3131 22.0539L97.4478 22.3233L97.6161 22.963L97.7845 23.5691L97.8855 24.2088L97.9865 24.8486V26.1617L97.9529 26.8014L97.9192 27.1381L97.8855 27.4748L97.7508 28.0809L97.5825 28.7206L97.3805 29.3267L97.3131 29.6634L97.1448 29.9664L97.0101 30.2694L96.8417 30.5051L96.7071 30.8082L96.505 31.0775L96.1347 31.5826L95.899 31.8183L95.697 32.054L95.4613 32.2896L95.2592 32.4917L94.9899 32.6937L94.6869 32.8957L94.4175 33.0641L94.1481 33.2324L93.7104 33.5018L93.138 33.7375L92.532 33.9731L92.2626 34.0742H92.1279L86.303 34.0872V34.9831L86.2694 35.6229L86.202 35.9596V36.2626L86.0673 36.8687L85.899 37.4747L85.7306 38.0808L85.6296 38.3838L85.4949 38.6868L85.3603 38.9562L85.1919 39.1919L85.0572 39.4949L84.8889 39.7643L84.4848 40.2357L84.2828 40.4713L84.0808 40.707L83.8451 40.9427L83.6431 41.1447L83.4074 41.3131L83.1044 41.5488L82.8687 41.6835L82.5657 41.8518L82.1616 42.0875L81.5892 42.3569L81.0168 42.5926L80.7811 42.6599H80.6128L66 42.6936ZM0.3367 15.6262L0 15.6936L14.6128 15.6599H14.7811L15.0168 15.5926L15.5892 15.3569L16.1616 15.0875L16.5657 14.8518L16.8687 14.6835L17.1044 14.5488L17.4074 14.3131L17.6431 14.1447L17.8451 13.9427L18.0808 13.707L18.2828 13.4713L18.4848 13.2357L18.8889 12.7643L19.0572 12.4949L19.1919 12.1919L19.3603 11.9562L19.495 11.6868L19.6296 11.3838L19.7306 11.0808L19.899 10.4747L20.0673 9.86865L20.202 9.26259V8.95956L20.2694 8.62286L20.303 7.98313V7.08715L26.1279 7.07415H26.2626L26.532 6.97314L27.138 6.73745L27.7104 6.50176L28.1481 6.2324L28.4175 6.06405L28.6869 5.8957L28.9899 5.69368L29.2592 5.49166L29.4613 5.28964L29.697 5.05395L29.899 4.81826L30.1347 4.58257L30.505 4.07752L30.7071 3.80816L30.8417 3.50513L31.0101 3.26944L31.1448 2.96641L31.3131 2.66338L31.3805 2.32668L31.5825 1.72062L31.7508 1.08088L31.8855 0.474825L31.9192 0.138124L31.9529 -0.198576L31.9865 -0.838308V-2.15144L31.8855 -2.79117L31.7845 -3.4309L31.6161 -4.03696L31.4478 -4.67669L31.3131 -4.94605L31.2121 -5.24908L31.0774 -5.48477L30.9427 -5.7878L30.8417 -6.09083L30.6734 -6.32652L30.5387 -6.56221L30.3367 -6.83157L30.1683 -7.03359L29.9663 -7.30295L29.6296 -7.70699L29.1919 -8.07737L28.9899 -8.24572L28.7542 -8.41407L28.5185 -8.51508L28.2491 -8.64976L27.7778 -8.91912L27.5421 -8.98646L27.239 -9.0538L26.9697 -9.12114L26.6667 -9.15481L26.0943 -9.18848L18.6869 -9.17191V-10.67L18.6195 -11.2761L18.5185 -11.8485L18.3838 -12.3872L18.2155 -12.9596L18.1145 -13.1953L18.0135 -13.4646L17.9125 -13.7003L17.7778 -13.9697L17.6768 -14.2054L17.5421 -14.4411L17.4074 -14.6431L17.2054 -14.8788L17.0707 -15.0471L16.9024 -15.2828L16.5993 -15.6532L16.1953 -15.9899L16.0269 -16.1582L15.8249 -16.2929L15.5892 -16.3939L15.3872 -16.4949L14.9495 -16.7306L14.7475 -16.798L14.4781 -16.8653L14.2088 -16.9327H13.9731L13.4343 -17L0 -16.9327L0.30303 -16.8316L0.639731 -16.7306L0.976431 -16.6296L1.27946 -16.4613L1.78451 -16.1582L2.08754 -15.9899L2.3569 -15.8215L2.79461 -15.3838L2.99663 -15.1818L3.23232 -14.9461L3.60269 -14.5084L3.77104 -14.2391L3.93939 -14.037L4.27609 -13.4983L4.41077 -13.229L4.54545 -12.9596L4.7138 -12.3872L4.91582 -11.8485L5.05051 -11.2424L5.15152 -10.6364L5.18519 -10.064V-9.45791L5.15152 -8.81818L5.08418 -8.24579L5.01684 -7.6734L4.91582 -7.37037L4.84849 -7.10101L4.64646 -6.52862L4.54545 -6.25926L4.44444 -6.02357L4.27609 -5.75421L4.14141 -5.48485L3.83838 -5.01347L3.46801 -4.54209L3.29966 -4.3064L3.13131 -4.13805L2.6936 -3.73401L2.45791 -3.53199L2.22222 -3.39731L1.95286 -3.19529L1.71717 -3.06061L1.48148 -2.89225L1.17845 -2.79124L0.606061 -2.55555L0.30303 -2.48821L0 -2.42088L13.468 -2.45455H13.6027L13.8384 -2.52188L14.3771 -2.75758L14.8822 -2.95959L15.2862 -3.19529L15.5556 -3.32996L15.7576 -3.49831L16.0269 -3.66667L16.2626 -3.86869L16.3804 -3.98651L16.5656 -3.4309L16.7003 -2.7575L16.8013 -2.0841L16.8687 -1.44437V-0.770967L16.835 -0.0638962L16.7813 0.472893L16.6667 0.407372L16.229 0.171682L15.9596 0.104342L15.6902 0.00333214L15.4209 -0.0303383L15.1178 -0.0640087L14.5791 -0.131348L0 -0.0640087L0.3367 0.0370026L0.707071 0.171682L1.04377 0.306362L1.3468 0.474712L1.95286 0.811413L2.28956 0.979761L2.55892 1.18178L3.06397 1.61949L3.26599 1.85518L3.50168 2.09087L3.90572 2.59592L4.10774 2.86529L4.30976 3.10098L4.64646 3.67336L4.78115 3.97639L4.91582 4.27943L5.15152 4.88549L5.35354 5.45788L5.48822 6.13128L5.58923 6.77101L5.6229 7.41074V8.05047L5.58923 8.72387L5.52189 9.39727L5.42088 9.96966L5.31987 10.3064L5.25253 10.6431L5.05051 11.2491L4.9495 11.5185L4.81482 11.7878L4.64646 12.0909L4.51179 12.3602L4.14141 12.8653L3.77104 13.404L3.60269 13.6397L3.40067 13.8417L2.92929 14.2794L2.6936 14.4814L2.42424 14.6498L2.12121 14.8518L1.88552 15.0202L1.61616 15.1548L1.27946 15.2895L0.673401 15.5252L0.3367 15.6262ZM22 42.6936L22.3367 42.6262L22.6734 42.5252L23.2795 42.2895L23.6162 42.1548L23.8855 42.0202L24.1212 41.8518L24.4242 41.6498L24.6936 41.4814L24.9293 41.2794L25.4007 40.8417L25.6027 40.6397L25.771 40.404L26.1414 39.8653L26.5118 39.3602L26.6465 39.0909L26.8148 38.7878L26.9495 38.5185L27.0505 38.2491L27.2525 37.6431L27.3199 37.3064L27.4209 36.9697L27.5219 36.3973L27.5892 35.7239L27.6229 35.0505V34.4107L27.5892 33.771L27.4882 33.1313L27.3535 32.4579L27.1515 31.8855L26.9158 31.2794L26.7811 30.9764L26.6465 30.6734L26.3098 30.101L26.1077 29.8653L25.9057 29.5959L25.5017 29.0909L25.266 28.8552L25.064 28.6195L24.5589 28.1818L24.2896 27.9798L23.9529 27.8114L23.3468 27.4747L23.0438 27.3064L22.7071 27.1717L22.3367 27.037L22 26.936L36.5791 26.8687L37.1178 26.936L37.4209 26.9697L37.6902 27.0033L37.9596 27.1043L38.229 27.1717L38.6667 27.4074L38.7813 27.4729L38.835 26.9361L38.8687 26.229V25.5556L38.8013 24.9159L38.7003 24.2425L38.5656 23.5691L38.3804 23.0135L38.2626 23.1313L38.0269 23.3333L37.7576 23.5017L37.5556 23.67L37.2862 23.8047L36.8822 24.0404L36.3771 24.2424L35.8384 24.4781L35.6027 24.5455H35.468L22 24.5791L22.303 24.5118L22.6061 24.4444L23.1785 24.2088L23.4815 24.1077L23.7172 23.9394L23.9529 23.8047L24.2222 23.6027L24.4579 23.468L24.6936 23.266L25.1313 22.862L25.2997 22.6936L25.468 22.4579L25.8384 21.9865L26.1414 21.5152L26.2761 21.2458L26.4444 20.9764L26.5455 20.7407L26.6465 20.4714L26.8485 19.899L26.9158 19.6296L27.0168 19.3266L27.0842 18.7542L27.1515 18.1818L27.1852 17.5421V16.936L27.1515 16.3636L27.0505 15.7576L26.9158 15.1515L26.7138 14.6128L26.5455 14.0404L26.4108 13.771L26.2761 13.5017L25.9394 12.963L25.771 12.7609L25.6027 12.4916L25.2323 12.0539L24.9966 11.8182L24.7946 11.6162L24.3569 11.1785L24.0875 11.0101L23.7845 10.8418L23.2795 10.5387L22.9764 10.3704L22.6397 10.2694L22.303 10.1684L22 10.0673L35.4343 10L35.9731 10.0673H36.2088L36.4781 10.1347L36.7475 10.202L36.9495 10.2694L37.3872 10.5051L37.5892 10.6061L37.8249 10.7071L38.0269 10.8418L38.1953 11.0101L38.5993 11.3468L38.9024 11.7172L39.0707 11.9529L39.2054 12.1212L39.4074 12.3569L39.5421 12.5589L39.6768 12.7946L39.7778 13.0303L39.9125 13.2997L40.0135 13.5354L40.1145 13.8047L40.2155 14.0404L40.3838 14.6128L40.5185 15.1515L40.6195 15.7239L40.6869 16.33V17.8281L48.0943 17.8115L48.6667 17.8452L48.9697 17.8789L49.239 17.9462L49.5421 18.0135L49.7778 18.0809L50.2491 18.3502L50.5185 18.4849L50.7542 18.5859L50.9899 18.7543L51.1919 18.9226L51.6296 19.293L51.9663 19.697L52.1683 19.9664L52.3367 20.1684L52.5387 20.4378L52.6734 20.6735L52.8417 20.9092L52.9427 21.2122L53.0774 21.5152L53.2121 21.7509L53.3131 22.0539L53.4478 22.3233L53.6161 22.963L53.7845 23.5691L53.8855 24.2088L53.9865 24.8486V26.1617L53.9529 26.8014L53.9192 27.1381L53.8855 27.4748L53.7508 28.0809L53.5825 28.7206L53.3805 29.3267L53.3131 29.6634L53.1448 29.9664L53.0101 30.2694L52.8417 30.5051L52.7071 30.8082L52.505 31.0775L52.1347 31.5826L51.899 31.8183L51.697 32.054L51.4613 32.2896L51.2592 32.4917L50.9899 32.6937L50.6869 32.8957L50.4175 33.0641L50.1481 33.2324L49.7104 33.5018L49.138 33.7375L48.532 33.9731L48.2626 34.0742H48.1279L42.303 34.0872V34.9831L42.2694 35.6229L42.202 35.9596V36.2626L42.0673 36.8687L41.899 37.4747L41.7306 38.0808L41.6296 38.3838L41.4949 38.6868L41.3603 38.9562L41.1919 39.1919L41.0572 39.4949L40.8889 39.7643L40.4848 40.2357L40.2828 40.4713L40.0808 40.707L39.8451 40.9427L39.6431 41.1447L39.4074 41.3131L39.1044 41.5488L38.8687 41.6835L38.5657 41.8518L38.1616 42.0875L37.5892 42.3569L37.0168 42.5926L36.7811 42.6599H36.6128L22 42.6936ZM132.337 15.6262L132 15.6936L146.613 15.6599H146.781L147.017 15.5926L147.589 15.3569L148.162 15.0875L148.566 14.8518L148.869 14.6835L149.104 14.5488L149.407 14.3131L149.643 14.1447L149.845 13.9427L150.081 13.707L150.283 13.4713L150.485 13.2357L150.889 12.7643L151.057 12.4949L151.192 12.1919L151.36 11.9562L151.495 11.6868L151.63 11.3838L151.731 11.0808L151.899 10.4747L152.067 9.86865L152.202 9.26259V8.95956L152.269 8.62286L152.303 7.98313V7.08715L158.128 7.07415H158.263L158.532 6.97314L159.138 6.73745L159.71 6.50176L160.148 6.2324L160.417 6.06405L160.687 5.8957L160.99 5.69368L161.259 5.49166L161.461 5.28964L161.697 5.05395L161.899 4.81826L162.135 4.58257L162.505 4.07752L162.707 3.80816L162.842 3.50513L163.01 3.26944L163.145 2.96641L163.313 2.66338L163.38 2.32668L163.582 1.72062L163.751 1.08088L163.886 0.474825L163.919 0.138124L163.953 -0.198576L163.987 -0.838308V-2.15144L163.886 -2.79117L163.785 -3.4309L163.616 -4.03696L163.448 -4.67669L163.313 -4.94605L163.212 -5.24908L163.077 -5.48477L162.943 -5.7878L162.842 -6.09083L162.673 -6.32652L162.539 -6.56221L162.337 -6.83157L162.168 -7.03359L161.966 -7.30295L161.63 -7.70699L161.192 -8.07737L160.99 -8.24572L160.754 -8.41407L160.519 -8.51508L160.249 -8.64976L159.778 -8.91912L159.542 -8.98646L159.239 -9.0538L158.97 -9.12114L158.667 -9.15481L158.094 -9.18848L150.687 -9.17191V-10.67L150.62 -11.2761L150.519 -11.8485L150.384 -12.3872L150.215 -12.9596L150.114 -13.1953L150.013 -13.4646L149.912 -13.7003L149.778 -13.9697L149.677 -14.2054L149.542 -14.4411L149.407 -14.6431L149.205 -14.8788L149.071 -15.0471L148.902 -15.2828L148.599 -15.6532L148.195 -15.9899L148.027 -16.1582L147.825 -16.2929L147.589 -16.3939L147.387 -16.4949L146.949 -16.7306L146.747 -16.798L146.478 -16.8653L146.209 -16.9327H145.973L145.434 -17L132 -16.9327L132.303 -16.8316L132.64 -16.7306L132.976 -16.6296L133.279 -16.4613L133.785 -16.1582L134.088 -15.9899L134.357 -15.8215L134.795 -15.3838L134.997 -15.1818L135.232 -14.9461L135.603 -14.5084L135.771 -14.2391L135.939 -14.037L136.276 -13.4983L136.411 -13.229L136.545 -12.9596L136.714 -12.3872L136.916 -11.8485L137.051 -11.2424L137.152 -10.6364L137.185 -10.064V-9.45791L137.152 -8.81818L137.084 -8.24579L137.017 -7.6734L136.916 -7.37037L136.848 -7.10101L136.646 -6.52862L136.545 -6.25926L136.444 -6.02357L136.276 -5.75421L136.141 -5.48485L135.838 -5.01347L135.468 -4.54209L135.3 -4.3064L135.131 -4.13805L134.694 -3.73401L134.458 -3.53199L134.222 -3.39731L133.953 -3.19529L133.717 -3.06061L133.481 -2.89225L133.178 -2.79124L132.606 -2.55555L132.303 -2.48821L132 -2.42088L145.468 -2.45455H145.603L145.838 -2.52188L146.377 -2.75758L146.882 -2.95959L147.286 -3.19529L147.556 -3.32996L147.758 -3.49831L148.027 -3.66667L148.263 -3.86869L148.38 -3.98651L148.566 -3.4309L148.7 -2.7575L148.801 -2.0841L148.869 -1.44437V-0.770967L148.835 -0.0638962L148.781 0.472893L148.667 0.407372L148.229 0.171682L147.96 0.104342L147.69 0.00333214L147.421 -0.0303383L147.118 -0.0640087L146.579 -0.131348L132 -0.0640087L132.337 0.0370026L132.707 0.171682L133.044 0.306362L133.347 0.474712L133.953 0.811413L134.29 0.979761L134.559 1.18178L135.064 1.61949L135.266 1.85518L135.502 2.09087L135.906 2.59592L136.108 2.86529L136.31 3.10098L136.646 3.67336L136.781 3.97639L136.916 4.27943L137.152 4.88549L137.354 5.45788L137.488 6.13128L137.589 6.77101L137.623 7.41074V8.05047L137.589 8.72387L137.522 9.39727L137.421 9.96966L137.32 10.3064L137.253 10.6431L137.051 11.2491L136.949 11.5185L136.815 11.7878L136.646 12.0909L136.512 12.3602L136.141 12.8653L135.771 13.404L135.603 13.6397L135.401 13.8417L134.929 14.2794L134.694 14.4814L134.424 14.6498L134.121 14.8518L133.886 15.0202L133.616 15.1548L133.279 15.2895L132.673 15.5252L132.337 15.6262ZM154 42.6936L154.337 42.6262L154.673 42.5252L155.279 42.2895L155.616 42.1548L155.886 42.0202L156.121 41.8518L156.424 41.6498L156.694 41.4814L156.929 41.2794L157.401 40.8417L157.603 40.6397L157.771 40.404L158.141 39.8653L158.512 39.3602L158.646 39.0909L158.815 38.7878L158.949 38.5185L159.051 38.2491L159.253 37.6431L159.32 37.3064L159.421 36.9697L159.522 36.3973L159.589 35.7239L159.623 35.0505V34.4107L159.589 33.771L159.488 33.1313L159.354 32.4579L159.152 31.8855L158.916 31.2794L158.781 30.9764L158.646 30.6734L158.31 30.101L158.108 29.8653L157.906 29.5959L157.502 29.0909L157.266 28.8552L157.064 28.6195L156.559 28.1818L156.29 27.9798L155.953 27.8114L155.347 27.4747L155.044 27.3064L154.707 27.1717L154.337 27.037L154 26.936L168.579 26.8687L169.118 26.936L169.421 26.9697L169.69 27.0033L169.96 27.1043L170.229 27.1717L170.667 27.4074L170.781 27.4729L170.835 26.9361L170.869 26.229V25.5556L170.801 24.9159L170.7 24.2425L170.566 23.5691L170.38 23.0135L170.263 23.1313L170.027 23.3333L169.758 23.5017L169.556 23.67L169.286 23.8047L168.882 24.0404L168.377 24.2424L167.838 24.4781L167.603 24.5455H167.468L154 24.5791L154.303 24.5118L154.606 24.4444L155.178 24.2088L155.481 24.1077L155.717 23.9394L155.953 23.8047L156.222 23.6027L156.458 23.468L156.694 23.266L157.131 22.862L157.3 22.6936L157.468 22.4579L157.838 21.9865L158.141 21.5152L158.276 21.2458L158.444 20.9764L158.545 20.7407L158.646 20.4714L158.848 19.899L158.916 19.6296L159.017 19.3266L159.084 18.7542L159.152 18.1818L159.185 17.5421V16.936L159.152 16.3636L159.051 15.7576L158.916 15.1515L158.714 14.6128L158.545 14.0404L158.411 13.771L158.276 13.5017L157.939 12.963L157.771 12.7609L157.603 12.4916L157.232 12.0539L156.997 11.8182L156.795 11.6162L156.357 11.1785L156.088 11.0101L155.785 10.8418L155.279 10.5387L154.976 10.3704L154.64 10.2694L154.303 10.1684L154 10.0673L167.434 10L167.973 10.0673H168.209L168.478 10.1347L168.747 10.202L168.949 10.2694L169.387 10.5051L169.589 10.6061L169.825 10.7071L170.027 10.8418L170.195 11.0101L170.599 11.3468L170.902 11.7172L171.071 11.9529L171.205 12.1212L171.407 12.3569L171.542 12.5589L171.677 12.7946L171.778 13.0303L171.912 13.2997L172.013 13.5354L172.114 13.8047L172.215 14.0404L172.384 14.6128L172.519 15.1515L172.62 15.7239L172.687 16.33V17.8281L180.094 17.8115L180.667 17.8452L180.97 17.8789L181.239 17.9462L181.542 18.0135L181.778 18.0809L182.249 18.3502L182.519 18.4849L182.754 18.5859L182.99 18.7543L183.192 18.9226L183.63 19.293L183.966 19.697L184.168 19.9664L184.337 20.1684L184.539 20.4378L184.673 20.6735L184.842 20.9092L184.943 21.2122L185.077 21.5152L185.212 21.7509L185.313 22.0539L185.448 22.3233L185.616 22.963L185.785 23.5691L185.886 24.2088L185.987 24.8486V26.1617L185.953 26.8014L185.919 27.1381L185.886 27.4748L185.751 28.0809L185.582 28.7206L185.38 29.3267L185.313 29.6634L185.145 29.9664L185.01 30.2694L184.842 30.5051L184.707 30.8082L184.505 31.0775L184.135 31.5826L183.899 31.8183L183.697 32.054L183.461 32.2896L183.259 32.4917L182.99 32.6937L182.687 32.8957L182.417 33.0641L182.148 33.2324L181.71 33.5018L181.138 33.7375L180.532 33.9731L180.263 34.0742H180.128L174.303 34.0872V34.9831L174.269 35.6229L174.202 35.9596V36.2626L174.067 36.8687L173.899 37.4747L173.731 38.0808L173.63 38.3838L173.495 38.6868L173.36 38.9562L173.192 39.1919L173.057 39.4949L172.889 39.7643L172.485 40.2357L172.283 40.4713L172.081 40.707L171.845 40.9427L171.643 41.1447L171.407 41.3131L171.104 41.5488L170.869 41.6835L170.566 41.8518L170.162 42.0875L169.589 42.3569L169.017 42.5926L168.781 42.6599H168.613L154 42.6936ZM88.3367 15.6262L88 15.6936L102.613 15.6599H102.781L103.017 15.5926L103.589 15.3569L104.162 15.0875L104.566 14.8518L104.869 14.6835L105.104 14.5488L105.407 14.3131L105.643 14.1447L105.845 13.9427L106.081 13.707L106.283 13.4713L106.485 13.2357L106.889 12.7643L107.057 12.4949L107.192 12.1919L107.36 11.9562L107.495 11.6868L107.63 11.3838L107.731 11.0808L107.899 10.4747L108.067 9.86865L108.202 9.26259V8.95956L108.269 8.62286L108.303 7.98313V7.08715L114.128 7.07415H114.263L114.532 6.97314L115.138 6.73745L115.71 6.50176L116.148 6.2324L116.417 6.06405L116.687 5.8957L116.99 5.69368L117.259 5.49166L117.461 5.28964L117.697 5.05395L117.899 4.81826L118.135 4.58257L118.505 4.07752L118.707 3.80816L118.842 3.50513L119.01 3.26944L119.145 2.96641L119.313 2.66338L119.38 2.32668L119.582 1.72062L119.751 1.08088L119.886 0.474825L119.919 0.138124L119.953 -0.198576L119.987 -0.838308V-2.15144L119.886 -2.79117L119.785 -3.4309L119.616 -4.03696L119.448 -4.67669L119.313 -4.94605L119.212 -5.24908L119.077 -5.48477L118.943 -5.7878L118.842 -6.09083L118.673 -6.32652L118.539 -6.56221L118.337 -6.83157L118.168 -7.03359L117.966 -7.30295L117.63 -7.70699L117.192 -8.07737L116.99 -8.24572L116.754 -8.41407L116.519 -8.51508L116.249 -8.64976L115.778 -8.91912L115.542 -8.98646L115.239 -9.0538L114.97 -9.12114L114.667 -9.15481L114.094 -9.18848L106.687 -9.17191V-10.67L106.62 -11.2761L106.519 -11.8485L106.384 -12.3872L106.215 -12.9596L106.114 -13.1953L106.013 -13.4646L105.912 -13.7003L105.778 -13.9697L105.677 -14.2054L105.542 -14.4411L105.407 -14.6431L105.205 -14.8788L105.071 -15.0471L104.902 -15.2828L104.599 -15.6532L104.195 -15.9899L104.027 -16.1582L103.825 -16.2929L103.589 -16.3939L103.387 -16.4949L102.949 -16.7306L102.747 -16.798L102.478 -16.8653L102.209 -16.9327H101.973L101.434 -17L88 -16.9327L88.303 -16.8316L88.6397 -16.7306L88.9764 -16.6296L89.2795 -16.4613L89.7845 -16.1582L90.0875 -15.9899L90.3569 -15.8215L90.7946 -15.3838L90.9966 -15.1818L91.2323 -14.9461L91.6027 -14.5084L91.771 -14.2391L91.9394 -14.037L92.2761 -13.4983L92.4108 -13.229L92.5455 -12.9596L92.7138 -12.3872L92.9158 -11.8485L93.0505 -11.2424L93.1515 -10.6364L93.1852 -10.064V-9.45791L93.1515 -8.81818L93.0842 -8.24579L93.0168 -7.6734L92.9158 -7.37037L92.8485 -7.10101L92.6465 -6.52862L92.5455 -6.25926L92.4444 -6.02357L92.2761 -5.75421L92.1414 -5.48485L91.8384 -5.01347L91.468 -4.54209L91.2997 -4.3064L91.1313 -4.13805L90.6936 -3.73401L90.4579 -3.53199L90.2222 -3.39731L89.9529 -3.19529L89.7172 -3.06061L89.4815 -2.89225L89.1785 -2.79124L88.6061 -2.55555L88.303 -2.48821L88 -2.42088L101.468 -2.45455H101.603L101.838 -2.52188L102.377 -2.75758L102.882 -2.95959L103.286 -3.19529L103.556 -3.32996L103.758 -3.49831L104.027 -3.66667L104.263 -3.86869L104.38 -3.9865L104.566 -3.4309L104.7 -2.7575L104.801 -2.0841L104.869 -1.44437V-0.770967L104.835 -0.0638962L104.781 0.472895L104.667 0.407372L104.229 0.171682L103.96 0.104342L103.69 0.00333214L103.421 -0.0303383L103.118 -0.0640087L102.579 -0.131348L88 -0.0640087L88.3367 0.0370026L88.7071 0.171682L89.0438 0.306362L89.3468 0.474712L89.9529 0.811413L90.2896 0.979761L90.5589 1.18178L91.064 1.61949L91.266 1.85518L91.5017 2.09087L91.9057 2.59592L92.1077 2.86529L92.3098 3.10098L92.6465 3.67336L92.7811 3.97639L92.9158 4.27943L93.1515 4.88549L93.3535 5.45788L93.4882 6.13128L93.5892 6.77101L93.6229 7.41074V8.05047L93.5892 8.72387L93.5219 9.39727L93.4209 9.96966L93.3199 10.3064L93.2525 10.6431L93.0505 11.2491L92.9495 11.5185L92.8148 11.7878L92.6465 12.0909L92.5118 12.3602L92.1414 12.8653L91.771 13.404L91.6027 13.6397L91.4007 13.8417L90.9293 14.2794L90.6936 14.4814L90.4242 14.6498L90.1212 14.8518L89.8855 15.0202L89.6162 15.1548L89.2795 15.2895L88.6734 15.5252L88.3367 15.6262ZM110 42.6936L110.337 42.6262L110.673 42.5252L111.279 42.2895L111.616 42.1548L111.886 42.0202L112.121 41.8518L112.424 41.6498L112.694 41.4814L112.929 41.2794L113.401 40.8417L113.603 40.6397L113.771 40.404L114.141 39.8653L114.512 39.3602L114.646 39.0909L114.815 38.7878L114.949 38.5185L115.051 38.2491L115.253 37.6431L115.32 37.3064L115.421 36.9697L115.522 36.3973L115.589 35.7239L115.623 35.0505V34.4107L115.589 33.771L115.488 33.1313L115.354 32.4579L115.152 31.8855L114.916 31.2794L114.781 30.9764L114.646 30.6734L114.31 30.101L114.108 29.8653L113.906 29.5959L113.502 29.0909L113.266 28.8552L113.064 28.6195L112.559 28.1818L112.29 27.9798L111.953 27.8114L111.347 27.4747L111.044 27.3064L110.707 27.1717L110.337 27.037L110 26.936L124.579 26.8687L125.118 26.936L125.421 26.9697L125.69 27.0033L125.96 27.1043L126.229 27.1717L126.667 27.4074L126.781 27.4729L126.835 26.9361L126.869 26.229V25.5556L126.801 24.9159L126.7 24.2425L126.566 23.5691L126.38 23.0135L126.263 23.1313L126.027 23.3333L125.758 23.5017L125.556 23.67L125.286 23.8047L124.882 24.0404L124.377 24.2424L123.838 24.4781L123.603 24.5455H123.468L110 24.5791L110.303 24.5118L110.606 24.4444L111.178 24.2088L111.481 24.1077L111.717 23.9394L111.953 23.8047L112.222 23.6027L112.458 23.468L112.694 23.266L113.131 22.862L113.3 22.6936L113.468 22.4579L113.838 21.9865L114.141 21.5152L114.276 21.2458L114.444 20.9764L114.545 20.7407L114.646 20.4714L114.848 19.899L114.916 19.6296L115.017 19.3266L115.084 18.7542L115.152 18.1818L115.185 17.5421V16.936L115.152 16.3636L115.051 15.7576L114.916 15.1515L114.714 14.6128L114.545 14.0404L114.411 13.771L114.276 13.5017L113.939 12.963L113.771 12.7609L113.603 12.4916L113.232 12.0539L112.997 11.8182L112.795 11.6162L112.357 11.1785L112.088 11.0101L111.785 10.8418L111.279 10.5387L110.976 10.3704L110.64 10.2694L110.303 10.1684L110 10.0673L123.434 10L123.973 10.0673H124.209L124.478 10.1347L124.747 10.202L124.949 10.2694L125.387 10.5051L125.589 10.6061L125.825 10.7071L126.027 10.8418L126.195 11.0101L126.599 11.3468L126.902 11.7172L127.071 11.9529L127.205 12.1212L127.407 12.3569L127.542 12.5589L127.677 12.7946L127.778 13.0303L127.912 13.2997L128.013 13.5354L128.114 13.8047L128.215 14.0404L128.384 14.6128L128.519 15.1515L128.62 15.7239L128.687 16.33V17.8281L136.094 17.8115L136.667 17.8452L136.97 17.8789L137.239 17.9462L137.542 18.0135L137.778 18.0809L138.249 18.3502L138.519 18.4849L138.754 18.5859L138.99 18.7543L139.192 18.9226L139.63 19.293L139.966 19.697L140.168 19.9664L140.337 20.1684L140.539 20.4378L140.673 20.6735L140.842 20.9092L140.943 21.2122L141.077 21.5152L141.212 21.7509L141.313 22.0539L141.448 22.3233L141.616 22.963L141.785 23.5691L141.886 24.2088L141.987 24.8486V26.1617L141.953 26.8014L141.919 27.1381L141.886 27.4748L141.751 28.0809L141.582 28.7206L141.38 29.3267L141.313 29.6634L141.145 29.9664L141.01 30.2694L140.842 30.5051L140.707 30.8082L140.505 31.0775L140.135 31.5826L139.899 31.8183L139.697 32.054L139.461 32.2896L139.259 32.4917L138.99 32.6937L138.687 32.8957L138.417 33.0641L138.148 33.2324L137.71 33.5018L137.138 33.7375L136.532 33.9731L136.263 34.0742H136.128L130.303 34.0872V34.9831L130.269 35.6229L130.202 35.9596V36.2626L130.067 36.8687L129.899 37.4747L129.731 38.0808L129.63 38.3838L129.495 38.6868L129.36 38.9562L129.192 39.1919L129.057 39.4949L128.889 39.7643L128.485 40.2357L128.283 40.4713L128.081 40.707L127.845 40.9427L127.643 41.1447L127.407 41.3131L127.104 41.5488L126.869 41.6835L126.566 41.8518L126.162 42.0875L125.589 42.3569L125.017 42.5926L124.781 42.6599H124.613L110 42.6936ZM44.303 51.5118L44 51.5791L57.468 51.5455H57.6027L57.8384 51.4781L58.3771 51.2424L58.8822 51.0404L59.2862 50.8047L59.5556 50.67L59.7576 50.5017L60.0269 50.3333L60.2626 50.1313L60.3804 50.0135L60.5656 50.5691L60.7003 51.2425L60.8013 51.9159L60.8687 52.5556V53.229L60.835 53.9361L60.7813 54.4729L60.6667 54.4074L60.229 54.1717L59.9596 54.1043L59.6902 54.0033L59.4209 53.9697L59.1178 53.936L58.5791 53.8687L44 53.936L44.3367 54.037L44.7071 54.1717L45.0438 54.3064L45.3468 54.4747L45.9529 54.8114L46.2896 54.9798L46.5589 55.1818L47.064 55.6195L47.266 55.8552L47.5017 56.0909L47.9057 56.5959L48.1077 56.8653L48.3098 57.101L48.6465 57.6734L48.7811 57.9764L48.9158 58.2794L49.1515 58.8855L49.3535 59.4579L49.4882 60.1313L49.5892 60.771L49.6229 61.4107V62.0505L49.5892 62.7239L49.5219 63.3973L49.4209 63.9697L49.3199 64.3064L49.2525 64.6431L49.0505 65.2491L48.9495 65.5185L48.8148 65.7878L48.6465 66.0909L48.5118 66.3602L48.1414 66.8653L47.771 67.404L47.6027 67.6397L47.4007 67.8417L46.9293 68.2794L46.6936 68.4814L46.4242 68.6498L46.1212 68.8518L45.8855 69.0202L45.6162 69.1548L45.2795 69.2895L44.6734 69.5252L44.3367 69.6262L44 69.6936L58.6128 69.6599H58.7811L59.0168 69.5926L59.5892 69.3569L60.1616 69.0875L60.5657 68.8518L60.8687 68.6835L61.1044 68.5488L61.4074 68.3131L61.6431 68.1447L61.8451 67.9427L62.0808 67.707L62.2828 67.4713L62.4848 67.2357L62.8889 66.7643L63.0572 66.4949L63.1919 66.1919L63.3603 65.9562L63.4949 65.6868L63.6296 65.3838L63.7306 65.0808L63.899 64.4747L64.0673 63.8687L64.202 63.2626V62.9596L64.2694 62.6229L64.303 61.9831V61.0872L70.1279 61.0742H70.2626L70.532 60.9731L71.138 60.7374L71.7104 60.5018L72.1481 60.2324L72.4175 60.0641L72.6869 59.8957L72.9899 59.6937L73.2592 59.4917L73.4613 59.2896L73.697 59.054L73.899 58.8183L74.1347 58.5826L74.505 58.0775L74.7071 57.8082L74.8417 57.5051L75.0101 57.2694L75.1448 56.9664L75.3131 56.6634L75.3805 56.3267L75.5825 55.7206L75.7508 55.0809L75.8855 54.4748L75.9192 54.1381L75.9529 53.8014L75.9865 53.1617V51.8486L75.8855 51.2088L75.7845 50.5691L75.6161 49.963L75.4478 49.3233L75.3131 49.0539L75.2121 48.7509L75.0774 48.5152L74.9427 48.2122L74.8417 47.9092L74.6734 47.6735L74.5387 47.4378L74.3367 47.1684L74.1683 46.9664L73.9663 46.697L73.6296 46.293L73.1919 45.9226L72.9899 45.7543L72.7542 45.5859L72.5185 45.4849L72.2491 45.3502L71.7778 45.0809L71.5421 45.0135L71.239 44.9462L70.9697 44.8789L70.6667 44.8452L70.0943 44.8115L62.6869 44.8281V43.33L62.6195 42.7239L62.5185 42.1515L62.3838 41.6128L62.2155 41.0404L62.1145 40.8047L62.0135 40.5354L61.9125 40.2997L61.7778 40.0303L61.6768 39.7946L61.5421 39.5589L61.4074 39.3569L61.2054 39.1212L61.0707 38.9529L60.9024 38.7172L60.5993 38.3468L60.1953 38.0101L60.0269 37.8418L59.8249 37.7071L59.5892 37.6061L59.3872 37.5051L58.9495 37.2694L58.7475 37.202L58.4781 37.1347L58.2088 37.0673H57.9731L57.4343 37L44 37.0673L44.303 37.1684L44.6397 37.2694L44.9764 37.3704L45.2795 37.5387L45.7845 37.8418L46.0875 38.0101L46.3569 38.1785L46.7946 38.6162L46.9966 38.8182L47.2323 39.0539L47.6027 39.4916L47.771 39.7609L47.9394 39.963L48.2761 40.5017L48.4108 40.771L48.5455 41.0404L48.7138 41.6128L48.9158 42.1515L49.0505 42.7576L49.1515 43.3636L49.1852 43.936V44.5421L49.1515 45.1818L49.0842 45.7542L49.0168 46.3266L48.9158 46.6296L48.8485 46.899L48.6465 47.4714L48.5455 47.7407L48.4444 47.9764L48.2761 48.2458L48.1414 48.5152L47.8384 48.9865L47.468 49.4579L47.2997 49.6936L47.1313 49.862L46.6936 50.266L46.4579 50.468L46.2222 50.6027L45.9529 50.8047L45.7172 50.9394L45.4815 51.1077L45.1785 51.2088L44.6061 51.4444L44.303 51.5118ZM66.3367 96.6262L66 96.6936L80.6128 96.6599H80.7811L81.0168 96.5926L81.5892 96.3569L82.1616 96.0875L82.5657 95.8518L82.8687 95.6835L83.1044 95.5488L83.4074 95.3131L83.6431 95.1447L83.8451 94.9427L84.0808 94.707L84.2828 94.4713L84.4848 94.2357L84.8889 93.7643L85.0572 93.4949L85.1919 93.1919L85.3603 92.9562L85.4949 92.6868L85.6296 92.3838L85.7306 92.0808L85.899 91.4747L86.0673 90.8687L86.202 90.2626V89.9596L86.2694 89.6229L86.303 88.9831V88.0872L92.1279 88.0742H92.2626L92.532 87.9731L93.138 87.7375L93.7104 87.5018L94.1481 87.2324L94.4175 87.0641L94.6869 86.8957L94.9899 86.6937L95.2592 86.4917L95.4613 86.2896L95.697 86.054L95.899 85.8183L96.1347 85.5826L96.505 85.0775L96.7071 84.8082L96.8417 84.5051L97.0101 84.2694L97.1448 83.9664L97.3131 83.6634L97.3805 83.3267L97.5825 82.7206L97.7508 82.0809L97.8855 81.4748L97.9192 81.1381L97.9529 80.8014L97.9865 80.1617V78.8486L97.8855 78.2088L97.7845 77.5691L97.6161 76.963L97.4478 76.3233L97.3131 76.0539L97.2121 75.7509L97.0774 75.5152L96.9427 75.2122L96.8417 74.9092L96.6734 74.6735L96.5387 74.4378L96.3367 74.1684L96.1683 73.9664L95.9663 73.697L95.6296 73.293L95.1919 72.9226L94.9899 72.7543L94.7542 72.5859L94.5185 72.4849L94.2491 72.3502L93.7778 72.0809L93.5421 72.0135L93.239 71.9462L92.9697 71.8789L92.6667 71.8452L92.0943 71.8115L84.6869 71.8281V70.33L84.6195 69.7239L84.5185 69.1515L84.3838 68.6128L84.2155 68.0404L84.1145 67.8047L84.0135 67.5354L83.9125 67.2997L83.7778 67.0303L83.6768 66.7946L83.5421 66.5589L83.4074 66.3569L83.2054 66.1212L83.0707 65.9529L82.9024 65.7172L82.5993 65.3468L82.1953 65.0101L82.0269 64.8418L81.8249 64.7071L81.5892 64.6061L81.3872 64.5051L80.9495 64.2694L80.7475 64.202L80.4781 64.1347L80.2088 64.0673H79.9731L79.4343 64L66 64.0673L66.303 64.1684L66.6397 64.2694L66.9764 64.3704L67.2795 64.5387L67.7845 64.8418L68.0875 65.0101L68.3569 65.1785L68.7946 65.6162L68.9966 65.8182L69.2323 66.0539L69.6027 66.4916L69.771 66.7609L69.9394 66.963L70.2761 67.5017L70.4108 67.771L70.5455 68.0404L70.7138 68.6128L70.9158 69.1515L71.0505 69.7576L71.1515 70.3636L71.1852 70.936V71.5421L71.1515 72.1818L71.0842 72.7542L71.0168 73.3266L70.9158 73.6296L70.8485 73.899L70.6465 74.4714L70.5455 74.7407L70.4444 74.9764L70.2761 75.2458L70.1414 75.5152L69.8384 75.9865L69.468 76.4579L69.2997 76.6936L69.1313 76.862L68.6936 77.266L68.4579 77.468L68.2222 77.6027L67.9529 77.8047L67.7172 77.9394L67.4815 78.1077L67.1785 78.2088L66.6061 78.4444L66.303 78.5118L66 78.5791L79.468 78.5455H79.6027L79.8384 78.4781L80.3771 78.2424L80.8822 78.0404L81.2862 77.8047L81.5556 77.67L81.7576 77.5017L82.0269 77.3333L82.2626 77.1313L82.3804 77.0135L82.5657 77.5691L82.7003 78.2425L82.8013 78.9159L82.8687 79.5556V80.229L82.835 80.9361L82.7813 81.4729L82.6667 81.4074L82.229 81.1717L81.9596 81.1043L81.6902 81.0033L81.4209 80.9697L81.1178 80.936L80.5791 80.8687L66 80.936L66.3367 81.037L66.7071 81.1717L67.0438 81.3064L67.3468 81.4747L67.9529 81.8114L68.2896 81.9798L68.5589 82.1818L69.064 82.6195L69.266 82.8552L69.5017 83.0909L69.9057 83.5959L70.1077 83.8653L70.3098 84.101L70.6465 84.6734L70.7811 84.9764L70.9158 85.2794L71.1515 85.8855L71.3535 86.4579L71.4882 87.1313L71.5892 87.771L71.6229 88.4107V89.0505L71.5892 89.7239L71.5219 90.3973L71.4209 90.9697L71.3199 91.3064L71.2525 91.6431L71.0505 92.2491L70.9495 92.5185L70.8148 92.7878L70.6465 93.0909L70.5118 93.3602L70.1414 93.8653L69.771 94.404L69.6027 94.6397L69.4007 94.8417L68.9293 95.2794L68.6936 95.4814L68.4242 95.6498L68.1212 95.8518L67.8855 96.0202L67.6162 96.1548L67.2795 96.2895L66.6734 96.5252L66.3367 96.6262ZM0 69.6936L0.3367 69.6262L0.673401 69.5252L1.27946 69.2895L1.61616 69.1548L1.88552 69.0202L2.12121 68.8518L2.42424 68.6498L2.6936 68.4814L2.92929 68.2794L3.40067 67.8417L3.60269 67.6397L3.77104 67.404L4.14141 66.8653L4.51179 66.3602L4.64646 66.0909L4.81482 65.7878L4.9495 65.5185L5.05051 65.2491L5.25253 64.6431L5.31987 64.3064L5.42088 63.9697L5.52189 63.3973L5.58923 62.7239L5.6229 62.0505V61.4107L5.58923 60.771L5.48822 60.1313L5.35354 59.4579L5.15152 58.8855L4.91582 58.2794L4.78115 57.9764L4.64646 57.6734L4.30976 57.101L4.10774 56.8653L3.90572 56.5959L3.50168 56.0909L3.26599 55.8552L3.06397 55.6195L2.55892 55.1818L2.28956 54.9798L1.95286 54.8114L1.3468 54.4747L1.04377 54.3064L0.707071 54.1717L0.3367 54.037L0 53.936L14.5791 53.8687L15.1178 53.936L15.4209 53.9697L15.6902 54.0033L15.9596 54.1043L16.229 54.1717L16.6667 54.4074L16.7813 54.4729L16.835 53.9361L16.8687 53.229V52.5556L16.8013 51.9159L16.7003 51.2425L16.5656 50.5691L16.3804 50.0135L16.2626 50.1313L16.0269 50.3333L15.7576 50.5017L15.5556 50.67L15.2862 50.8047L14.8822 51.0404L14.3771 51.2424L13.8384 51.4781L13.6027 51.5455H13.468L0 51.5791L0.30303 51.5118L0.606061 51.4444L1.17845 51.2088L1.48148 51.1077L1.71717 50.9394L1.95286 50.8047L2.22222 50.6027L2.45791 50.468L2.6936 50.266L3.13131 49.862L3.29966 49.6936L3.46801 49.4579L3.83838 48.9865L4.14141 48.5152L4.27609 48.2458L4.44444 47.9764L4.54545 47.7407L4.64646 47.4714L4.84849 46.899L4.91582 46.6296L5.01684 46.3266L5.08418 45.7542L5.15152 45.1818L5.18519 44.5421V43.936L5.15152 43.3636L5.05051 42.7576L4.91582 42.1515L4.7138 41.6128L4.54545 41.0404L4.41077 40.771L4.27609 40.5017L3.93939 39.963L3.77104 39.7609L3.60269 39.4916L3.23232 39.0539L2.99663 38.8182L2.79461 38.6162L2.3569 38.1785L2.08754 38.0101L1.78451 37.8418L1.27946 37.5387L0.976431 37.3704L0.639731 37.2694L0.30303 37.1684L0 37.0673L13.4343 37L13.9731 37.0673H14.2088L14.4781 37.1347L14.7475 37.202L14.9495 37.2694L15.3872 37.5051L15.5892 37.6061L15.8249 37.7071L16.0269 37.8418L16.1953 38.0101L16.5993 38.3468L16.9024 38.7172L17.0707 38.9529L17.2054 39.1212L17.4074 39.3569L17.5421 39.5589L17.6768 39.7946L17.7778 40.0303L17.9125 40.2997L18.0135 40.5354L18.1145 40.8047L18.2155 41.0404L18.3838 41.6128L18.5185 42.1515L18.6195 42.7239L18.6869 43.33V44.8281L26.0943 44.8115L26.6667 44.8452L26.9697 44.8789L27.239 44.9462L27.5421 45.0135L27.7778 45.0809L28.2491 45.3502L28.5185 45.4849L28.7542 45.5859L28.9899 45.7543L29.1919 45.9226L29.6296 46.293L29.9663 46.697L30.1683 46.9664L30.3367 47.1684L30.5387 47.4378L30.6734 47.6735L30.8417 47.9092L30.9427 48.2122L31.0774 48.5152L31.2121 48.7509L31.3131 49.0539L31.4478 49.3233L31.6161 49.963L31.7845 50.5691L31.8855 51.2088L31.9865 51.8486V53.1617L31.9529 53.8014L31.9192 54.1381L31.8855 54.4748L31.7508 55.0809L31.5825 55.7206L31.3805 56.3267L31.3131 56.6634L31.1448 56.9664L31.0101 57.2694L30.8417 57.5051L30.7071 57.8082L30.505 58.0775L30.1347 58.5826L29.899 58.8183L29.697 59.054L29.4613 59.2896L29.2592 59.4917L28.9899 59.6937L28.6869 59.8957L28.4175 60.0641L28.1481 60.2324L27.7104 60.5018L27.138 60.7374L26.532 60.9731L26.2626 61.0742H26.1279L20.303 61.0872V61.9831L20.2694 62.6229L20.202 62.9596V63.2626L20.0673 63.8687L19.899 64.4747L19.7306 65.0808L19.6296 65.3838L19.495 65.6868L19.3603 65.9562L19.1919 66.1919L19.0572 66.4949L18.8889 66.7643L18.4848 67.2357L18.2828 67.4713L18.0808 67.707L17.8451 67.9427L17.6431 68.1447L17.4074 68.3131L17.1044 68.5488L16.8687 68.6835L16.5657 68.8518L16.1616 69.0875L15.5892 69.3569L15.0168 69.5926L14.7811 69.6599H14.6128L0 69.6936ZM22.3367 96.6262L22 96.6936L36.6128 96.6599H36.7811L37.0168 96.5926L37.5892 96.3569L38.1616 96.0875L38.5657 95.8518L38.8687 95.6835L39.1044 95.5488L39.4074 95.3131L39.6431 95.1447L39.8451 94.9427L40.0808 94.707L40.2828 94.4713L40.4848 94.2357L40.8889 93.7643L41.0572 93.4949L41.1919 93.1919L41.3603 92.9562L41.4949 92.6868L41.6296 92.3838L41.7306 92.0808L41.899 91.4747L42.0673 90.8687L42.202 90.2626V89.9596L42.2694 89.6229L42.303 88.9831V88.0872L48.1279 88.0742H48.2626L48.532 87.9731L49.138 87.7375L49.7104 87.5018L50.1481 87.2324L50.4175 87.0641L50.6869 86.8957L50.9899 86.6937L51.2592 86.4917L51.4613 86.2896L51.697 86.054L51.899 85.8183L52.1347 85.5826L52.505 85.0775L52.7071 84.8082L52.8417 84.5051L53.0101 84.2694L53.1448 83.9664L53.3131 83.6634L53.3805 83.3267L53.5825 82.7206L53.7508 82.0809L53.8855 81.4748L53.9192 81.1381L53.9529 80.8014L53.9865 80.1617V78.8486L53.8855 78.2088L53.7845 77.5691L53.6161 76.963L53.4478 76.3233L53.3131 76.0539L53.2121 75.7509L53.0774 75.5152L52.9427 75.2122L52.8417 74.9092L52.6734 74.6735L52.5387 74.4378L52.3367 74.1684L52.1683 73.9664L51.9663 73.697L51.6296 73.293L51.1919 72.9226L50.9899 72.7543L50.7542 72.5859L50.5185 72.4849L50.2491 72.3502L49.7778 72.0809L49.5421 72.0135L49.239 71.9462L48.9697 71.8789L48.6667 71.8452L48.0943 71.8115L40.6869 71.8281V70.33L40.6195 69.7239L40.5185 69.1515L40.3838 68.6128L40.2155 68.0404L40.1145 67.8047L40.0135 67.5354L39.9125 67.2997L39.7778 67.0303L39.6768 66.7946L39.5421 66.5589L39.4074 66.3569L39.2054 66.1212L39.0707 65.9529L38.9024 65.7172L38.5993 65.3468L38.1953 65.0101L38.0269 64.8418L37.8249 64.7071L37.5892 64.6061L37.3872 64.5051L36.9495 64.2694L36.7475 64.202L36.4781 64.1347L36.2088 64.0673H35.9731L35.4343 64L22 64.0673L22.303 64.1684L22.6397 64.2694L22.9764 64.3704L23.2795 64.5387L23.7845 64.8418L24.0875 65.0101L24.3569 65.1785L24.7946 65.6162L24.9966 65.8182L25.2323 66.0539L25.6027 66.4916L25.771 66.7609L25.9394 66.963L26.2761 67.5017L26.4108 67.771L26.5455 68.0404L26.7138 68.6128L26.9158 69.1515L27.0505 69.7576L27.1515 70.3636L27.1852 70.936V71.5421L27.1515 72.1818L27.0842 72.7542L27.0168 73.3266L26.9158 73.6296L26.8485 73.899L26.6465 74.4714L26.5455 74.7407L26.4444 74.9764L26.2761 75.2458L26.1414 75.5152L25.8384 75.9865L25.468 76.4579L25.2997 76.6936L25.1313 76.862L24.6936 77.266L24.4579 77.468L24.2222 77.6027L23.9529 77.8047L23.7172 77.9394L23.4815 78.1077L23.1785 78.2088L22.6061 78.4444L22.303 78.5118L22 78.5791L35.468 78.5455H35.6027L35.8384 78.4781L36.3771 78.2424L36.8822 78.0404L37.2862 77.8047L37.5556 77.67L37.7576 77.5017L38.0269 77.3333L38.2626 77.1313L38.3804 77.0135L38.5656 77.5691L38.7003 78.2425L38.8013 78.9159L38.8687 79.5556V80.229L38.835 80.9361L38.7813 81.4729L38.6667 81.4074L38.229 81.1717L37.9596 81.1043L37.6902 81.0033L37.4209 80.9697L37.1178 80.936L36.5791 80.8687L22 80.936L22.3367 81.037L22.7071 81.1717L23.0438 81.3064L23.3468 81.4747L23.9529 81.8114L24.2896 81.9798L24.5589 82.1818L25.064 82.6195L25.266 82.8552L25.5017 83.0909L25.9057 83.5959L26.1077 83.8653L26.3098 84.101L26.6465 84.6734L26.7811 84.9764L26.9158 85.2794L27.1515 85.8855L27.3535 86.4579L27.4882 87.1313L27.5892 87.771L27.6229 88.4107V89.0505L27.5892 89.7239L27.5219 90.3973L27.4209 90.9697L27.3199 91.3064L27.2525 91.6431L27.0505 92.2491L26.9495 92.5185L26.8148 92.7878L26.6465 93.0909L26.5118 93.3602L26.1414 93.8653L25.771 94.404L25.6027 94.6397L25.4007 94.8417L24.9293 95.2794L24.6936 95.4814L24.4242 95.6498L24.1212 95.8518L23.8855 96.0202L23.6162 96.1548L23.2795 96.2895L22.6734 96.5252L22.3367 96.6262ZM132 69.6936L132.337 69.6262L132.673 69.5252L133.279 69.2895L133.616 69.1548L133.886 69.0202L134.121 68.8518L134.424 68.6498L134.694 68.4814L134.929 68.2794L135.401 67.8417L135.603 67.6397L135.771 67.404L136.141 66.8653L136.512 66.3602L136.646 66.0909L136.815 65.7878L136.949 65.5185L137.051 65.2491L137.253 64.6431L137.32 64.3064L137.421 63.9697L137.522 63.3973L137.589 62.7239L137.623 62.0505V61.4107L137.589 60.771L137.488 60.1313L137.354 59.4579L137.152 58.8855L136.916 58.2794L136.781 57.9764L136.646 57.6734L136.31 57.101L136.108 56.8653L135.906 56.5959L135.502 56.0909L135.266 55.8552L135.064 55.6195L134.559 55.1818L134.29 54.9798L133.953 54.8114L133.347 54.4747L133.044 54.3064L132.707 54.1717L132.337 54.037L132 53.936L146.579 53.8687L147.118 53.936L147.421 53.9697L147.69 54.0033L147.96 54.1043L148.229 54.1717L148.667 54.4074L148.781 54.4729L148.835 53.9361L148.869 53.229V52.5556L148.801 51.9159L148.7 51.2425L148.566 50.5691L148.38 50.0135L148.263 50.1313L148.027 50.3333L147.758 50.5017L147.556 50.67L147.286 50.8047L146.882 51.0404L146.377 51.2424L145.838 51.4781L145.603 51.5455H145.468L132 51.5791L132.303 51.5118L132.606 51.4444L133.178 51.2088L133.481 51.1077L133.717 50.9394L133.953 50.8047L134.222 50.6027L134.458 50.468L134.694 50.266L135.131 49.862L135.3 49.6936L135.468 49.4579L135.838 48.9865L136.141 48.5152L136.276 48.2458L136.444 47.9764L136.545 47.7407L136.646 47.4714L136.848 46.899L136.916 46.6296L137.017 46.3266L137.084 45.7542L137.152 45.1818L137.185 44.5421V43.936L137.152 43.3636L137.051 42.7576L136.916 42.1515L136.714 41.6128L136.545 41.0404L136.411 40.771L136.276 40.5017L135.939 39.963L135.771 39.7609L135.603 39.4916L135.232 39.0539L134.997 38.8182L134.795 38.6162L134.357 38.1785L134.088 38.0101L133.785 37.8418L133.279 37.5387L132.976 37.3704L132.64 37.2694L132.303 37.1684L132 37.0673L145.434 37L145.973 37.0673H146.209L146.478 37.1347L146.747 37.202L146.949 37.2694L147.387 37.5051L147.589 37.6061L147.825 37.7071L148.027 37.8418L148.195 38.0101L148.599 38.3468L148.902 38.7172L149.071 38.9529L149.205 39.1212L149.407 39.3569L149.542 39.5589L149.677 39.7946L149.778 40.0303L149.912 40.2997L150.013 40.5354L150.114 40.8047L150.215 41.0404L150.384 41.6128L150.519 42.1515L150.62 42.7239L150.687 43.33V44.8281L158.094 44.8115L158.667 44.8452L158.97 44.8789L159.239 44.9462L159.542 45.0135L159.778 45.0809L160.249 45.3502L160.519 45.4849L160.754 45.5859L160.99 45.7543L161.192 45.9226L161.63 46.293L161.966 46.697L162.168 46.9664L162.337 47.1684L162.539 47.4378L162.673 47.6735L162.842 47.9092L162.943 48.2122L163.077 48.5152L163.212 48.7509L163.313 49.0539L163.448 49.3233L163.616 49.963L163.785 50.5691L163.886 51.2088L163.987 51.8486V53.1617L163.953 53.8014L163.919 54.1381L163.886 54.4748L163.751 55.0809L163.582 55.7206L163.38 56.3267L163.313 56.6634L163.145 56.9664L163.01 57.2694L162.842 57.5051L162.707 57.8082L162.505 58.0775L162.135 58.5826L161.899 58.8183L161.697 59.054L161.461 59.2896L161.259 59.4917L160.99 59.6937L160.687 59.8957L160.417 60.0641L160.148 60.2324L159.71 60.5018L159.138 60.7374L158.532 60.9731L158.263 61.0742H158.128L152.303 61.0872V61.9831L152.269 62.6229L152.202 62.9596V63.2626L152.067 63.8687L151.899 64.4747L151.731 65.0808L151.63 65.3838L151.495 65.6868L151.36 65.9562L151.192 66.1919L151.057 66.4949L150.889 66.7643L150.485 67.2357L150.283 67.4713L150.081 67.707L149.845 67.9427L149.643 68.1447L149.407 68.3131L149.104 68.5488L148.869 68.6835L148.566 68.8518L148.162 69.0875L147.589 69.3569L147.017 69.5926L146.781 69.6599H146.613L132 69.6936ZM154.337 96.6262L154 96.6936L168.613 96.6599H168.781L169.017 96.5926L169.589 96.3569L170.162 96.0875L170.566 95.8518L170.869 95.6835L171.104 95.5488L171.407 95.3131L171.643 95.1447L171.845 94.9427L172.081 94.707L172.283 94.4713L172.485 94.2357L172.889 93.7643L173.057 93.4949L173.192 93.1919L173.36 92.9562L173.495 92.6868L173.63 92.3838L173.731 92.0808L173.899 91.4747L174.067 90.8687L174.202 90.2626V89.9596L174.269 89.6229L174.303 88.9831V88.0872L180.128 88.0742H180.263L180.532 87.9731L181.138 87.7375L181.71 87.5018L182.148 87.2324L182.417 87.0641L182.687 86.8957L182.99 86.6937L183.259 86.4917L183.461 86.2896L183.697 86.054L183.899 85.8183L184.135 85.5826L184.505 85.0775L184.707 84.8082L184.842 84.5051L185.01 84.2694L185.145 83.9664L185.313 83.6634L185.38 83.3267L185.582 82.7206L185.751 82.0809L185.886 81.4748L185.919 81.1381L185.953 80.8014L185.987 80.1617V78.8486L185.886 78.2088L185.785 77.5691L185.616 76.963L185.448 76.3233L185.313 76.0539L185.212 75.7509L185.077 75.5152L184.943 75.2122L184.842 74.9092L184.673 74.6735L184.539 74.4378L184.337 74.1684L184.168 73.9664L183.966 73.697L183.63 73.293L183.192 72.9226L182.99 72.7543L182.754 72.5859L182.519 72.4849L182.249 72.3502L181.778 72.0809L181.542 72.0135L181.239 71.9462L180.97 71.8789L180.667 71.8452L180.094 71.8115L172.687 71.8281V70.33L172.62 69.7239L172.519 69.1515L172.384 68.6128L172.215 68.0404L172.114 67.8047L172.013 67.5354L171.912 67.2997L171.778 67.0303L171.677 66.7946L171.542 66.5589L171.407 66.3569L171.205 66.1212L171.071 65.9529L170.902 65.7172L170.599 65.3468L170.195 65.0101L170.027 64.8418L169.825 64.7071L169.589 64.6061L169.387 64.5051L168.949 64.2694L168.747 64.202L168.478 64.1347L168.209 64.0673H167.973L167.434 64L154 64.0673L154.303 64.1684L154.64 64.2694L154.976 64.3704L155.279 64.5387L155.785 64.8418L156.088 65.0101L156.357 65.1785L156.795 65.6162L156.997 65.8182L157.232 66.0539L157.603 66.4916L157.771 66.7609L157.939 66.963L158.276 67.5017L158.411 67.771L158.545 68.0404L158.714 68.6128L158.916 69.1515L159.051 69.7576L159.152 70.3636L159.185 70.936V71.5421L159.152 72.1818L159.084 72.7542L159.017 73.3266L158.916 73.6296L158.848 73.899L158.646 74.4714L158.545 74.7407L158.444 74.9764L158.276 75.2458L158.141 75.5152L157.838 75.9865L157.468 76.4579L157.3 76.6936L157.131 76.862L156.694 77.266L156.458 77.468L156.222 77.6027L155.953 77.8047L155.717 77.9394L155.481 78.1077L155.178 78.2088L154.606 78.4444L154.303 78.5118L154 78.5791L167.468 78.5455H167.603L167.838 78.4781L168.377 78.2424L168.882 78.0404L169.286 77.8047L169.556 77.67L169.758 77.5017L170.027 77.3333L170.263 77.1313L170.38 77.0135L170.566 77.5691L170.7 78.2425L170.801 78.9159L170.869 79.5556V80.229L170.835 80.9361L170.781 81.4729L170.667 81.4074L170.229 81.1717L169.96 81.1043L169.69 81.0033L169.421 80.9697L169.118 80.936L168.579 80.8687L154 80.936L154.337 81.037L154.707 81.1717L155.044 81.3064L155.347 81.4747L155.953 81.8114L156.29 81.9798L156.559 82.1818L157.064 82.6195L157.266 82.8552L157.502 83.0909L157.906 83.5959L158.108 83.8653L158.31 84.101L158.646 84.6734L158.781 84.9764L158.916 85.2794L159.152 85.8855L159.354 86.4579L159.488 87.1313L159.589 87.771L159.623 88.4107V89.0505L159.589 89.7239L159.522 90.3973L159.421 90.9697L159.32 91.3064L159.253 91.6431L159.051 92.2491L158.949 92.5185L158.815 92.7878L158.646 93.0909L158.512 93.3602L158.141 93.8653L157.771 94.404L157.603 94.6397L157.401 94.8417L156.929 95.2794L156.694 95.4814L156.424 95.6498L156.121 95.8518L155.886 96.0202L155.616 96.1548L155.279 96.2895L154.673 96.5252L154.337 96.6262ZM88 69.6936L88.3367 69.6262L88.6734 69.5252L89.2795 69.2895L89.6162 69.1548L89.8855 69.0202L90.1212 68.8518L90.4242 68.6498L90.6936 68.4814L90.9293 68.2794L91.4007 67.8417L91.6027 67.6397L91.771 67.404L92.1414 66.8653L92.5118 66.3602L92.6465 66.0909L92.8148 65.7878L92.9495 65.5185L93.0505 65.2491L93.2525 64.6431L93.3199 64.3064L93.4209 63.9697L93.5219 63.3973L93.5892 62.7239L93.6229 62.0505V61.4107L93.5892 60.771L93.4882 60.1313L93.3535 59.4579L93.1515 58.8855L92.9158 58.2794L92.7811 57.9764L92.6465 57.6734L92.3098 57.101L92.1077 56.8653L91.9057 56.5959L91.5017 56.0909L91.266 55.8552L91.064 55.6195L90.5589 55.1818L90.2896 54.9798L89.9529 54.8114L89.3468 54.4747L89.0438 54.3064L88.7071 54.1717L88.3367 54.037L88 53.936L102.579 53.8687L103.118 53.936L103.421 53.9697L103.69 54.0033L103.96 54.1043L104.229 54.1717L104.667 54.4074L104.781 54.4729L104.835 53.9361L104.869 53.229V52.5556L104.801 51.9159L104.7 51.2425L104.566 50.5691L104.38 50.0135L104.263 50.1313L104.027 50.3333L103.758 50.5017L103.556 50.67L103.286 50.8047L102.882 51.0404L102.377 51.2424L101.838 51.4781L101.603 51.5455H101.468L88 51.5791L88.303 51.5118L88.6061 51.4444L89.1785 51.2088L89.4815 51.1077L89.7172 50.9394L89.9529 50.8047L90.2222 50.6027L90.4579 50.468L90.6936 50.266L91.1313 49.862L91.2997 49.6936L91.468 49.4579L91.8384 48.9865L92.1414 48.5152L92.2761 48.2458L92.4444 47.9764L92.5455 47.7407L92.6465 47.4714L92.8485 46.899L92.9158 46.6296L93.0168 46.3266L93.0842 45.7542L93.1515 45.1818L93.1852 44.5421V43.936L93.1515 43.3636L93.0505 42.7576L92.9158 42.1515L92.7138 41.6128L92.5455 41.0404L92.4108 40.771L92.2761 40.5017L91.9394 39.963L91.771 39.7609L91.6027 39.4916L91.2323 39.0539L90.9966 38.8182L90.7946 38.6162L90.3569 38.1785L90.0875 38.0101L89.7845 37.8418L89.2795 37.5387L88.9764 37.3704L88.6397 37.2694L88.303 37.1684L88 37.0673L101.434 37L101.973 37.0673H102.209L102.478 37.1347L102.747 37.202L102.949 37.2694L103.387 37.5051L103.589 37.6061L103.825 37.7071L104.027 37.8418L104.195 38.0101L104.599 38.3468L104.902 38.7172L105.071 38.9529L105.205 39.1212L105.407 39.3569L105.542 39.5589L105.677 39.7946L105.778 40.0303L105.912 40.2997L106.013 40.5354L106.114 40.8047L106.215 41.0404L106.384 41.6128L106.519 42.1515L106.62 42.7239L106.687 43.33V44.8281L114.094 44.8115L114.667 44.8452L114.97 44.8789L115.239 44.9462L115.542 45.0135L115.778 45.0809L116.249 45.3502L116.519 45.4849L116.754 45.5859L116.99 45.7543L117.192 45.9226L117.63 46.293L117.966 46.697L118.168 46.9664L118.337 47.1684L118.539 47.4378L118.673 47.6735L118.842 47.9092L118.943 48.2122L119.077 48.5152L119.212 48.7509L119.313 49.0539L119.448 49.3233L119.616 49.963L119.785 50.5691L119.886 51.2088L119.987 51.8486V53.1617L119.953 53.8014L119.919 54.1381L119.886 54.4748L119.751 55.0809L119.582 55.7206L119.38 56.3267L119.313 56.6634L119.145 56.9664L119.01 57.2694L118.842 57.5051L118.707 57.8082L118.505 58.0775L118.135 58.5826L117.899 58.8183L117.697 59.054L117.461 59.2896L117.259 59.4917L116.99 59.6937L116.687 59.8957L116.417 60.0641L116.148 60.2324L115.71 60.5018L115.138 60.7374L114.532 60.9731L114.263 61.0742H114.128L108.303 61.0872V61.9831L108.269 62.6229L108.202 62.9596V63.2626L108.067 63.8687L107.899 64.4747L107.731 65.0808L107.63 65.3838L107.495 65.6868L107.36 65.9562L107.192 66.1919L107.057 66.4949L106.889 66.7643L106.485 67.2357L106.283 67.4713L106.081 67.707L105.845 67.9427L105.643 68.1447L105.407 68.3131L105.104 68.5488L104.869 68.6835L104.566 68.8518L104.162 69.0875L103.589 69.3569L103.017 69.5926L102.781 69.6599H102.613L88 69.6936ZM110.337 96.6262L110 96.6936L124.613 96.6599H124.781L125.017 96.5926L125.589 96.3569L126.162 96.0875L126.566 95.8518L126.869 95.6835L127.104 95.5488L127.407 95.3131L127.643 95.1447L127.845 94.9427L128.081 94.707L128.283 94.4713L128.485 94.2357L128.889 93.7643L129.057 93.4949L129.192 93.1919L129.36 92.9562L129.495 92.6868L129.63 92.3838L129.731 92.0808L129.899 91.4747L130.067 90.8687L130.202 90.2626V89.9596L130.269 89.6229L130.303 88.9831V88.0872L136.128 88.0742H136.263L136.532 87.9731L137.138 87.7375L137.71 87.5018L138.148 87.2324L138.417 87.0641L138.687 86.8957L138.99 86.6937L139.259 86.4917L139.461 86.2896L139.697 86.054L139.899 85.8183L140.135 85.5826L140.505 85.0775L140.707 84.8082L140.842 84.5051L141.01 84.2694L141.145 83.9664L141.313 83.6634L141.38 83.3267L141.582 82.7206L141.751 82.0809L141.886 81.4748L141.919 81.1381L141.953 80.8014L141.987 80.1617V78.8486L141.886 78.2088L141.785 77.5691L141.616 76.963L141.448 76.3233L141.313 76.0539L141.212 75.7509L141.077 75.5152L140.943 75.2122L140.842 74.9092L140.673 74.6735L140.539 74.4378L140.337 74.1684L140.168 73.9664L139.966 73.697L139.63 73.293L139.192 72.9226L138.99 72.7543L138.754 72.5859L138.519 72.4849L138.249 72.3502L137.778 72.0809L137.542 72.0135L137.239 71.9462L136.97 71.8789L136.667 71.8452L136.094 71.8115L128.687 71.8281V70.33L128.62 69.7239L128.519 69.1515L128.384 68.6128L128.215 68.0404L128.114 67.8047L128.013 67.5354L127.912 67.2997L127.778 67.0303L127.677 66.7946L127.542 66.5589L127.407 66.3569L127.205 66.1212L127.071 65.9529L126.902 65.7172L126.599 65.3468L126.195 65.0101L126.027 64.8418L125.825 64.7071L125.589 64.6061L125.387 64.5051L124.949 64.2694L124.747 64.202L124.478 64.1347L124.209 64.0673H123.973L123.434 64L110 64.0673L110.303 64.1684L110.64 64.2694L110.976 64.3704L111.279 64.5387L111.785 64.8418L112.088 65.0101L112.357 65.1785L112.795 65.6162L112.997 65.8182L113.232 66.0539L113.603 66.4916L113.771 66.7609L113.939 66.963L114.276 67.5017L114.411 67.771L114.545 68.0404L114.714 68.6128L114.916 69.1515L115.051 69.7576L115.152 70.3636L115.185 70.936V71.5421L115.152 72.1818L115.084 72.7542L115.017 73.3266L114.916 73.6296L114.848 73.899L114.646 74.4714L114.545 74.7407L114.444 74.9764L114.276 75.2458L114.141 75.5152L113.838 75.9865L113.468 76.4579L113.3 76.6936L113.131 76.862L112.694 77.266L112.458 77.468L112.222 77.6027L111.953 77.8047L111.717 77.9394L111.481 78.1077L111.178 78.2088L110.606 78.4444L110.303 78.5118L110 78.5791L123.468 78.5455H123.603L123.838 78.4781L124.377 78.2424L124.882 78.0404L125.286 77.8047L125.556 77.67L125.758 77.5017L126.027 77.3333L126.263 77.1313L126.38 77.0135L126.566 77.5691L126.7 78.2425L126.801 78.9159L126.869 79.5556V80.229L126.835 80.9361L126.781 81.4729L126.667 81.4074L126.229 81.1717L125.96 81.1043L125.69 81.0033L125.421 80.9697L125.118 80.936L124.579 80.8687L110 80.936L110.337 81.037L110.707 81.1717L111.044 81.3064L111.347 81.4747L111.953 81.8114L112.29 81.9798L112.559 82.1818L113.064 82.6195L113.266 82.8552L113.502 83.0909L113.906 83.5959L114.108 83.8653L114.31 84.101L114.646 84.6734L114.781 84.9764L114.916 85.2794L115.152 85.8855L115.354 86.4579L115.488 87.1313L115.589 87.771L115.623 88.4107V89.0505L115.589 89.7239L115.522 90.3973L115.421 90.9697L115.32 91.3064L115.253 91.6431L115.051 92.2491L114.949 92.5185L114.815 92.7878L114.646 93.0909L114.512 93.3602L114.141 93.8653L113.771 94.404L113.603 94.6397L113.401 94.8417L112.929 95.2794L112.694 95.4814L112.424 95.6498L112.121 95.8518L111.886 96.0202L111.616 96.1548L111.279 96.2895L110.673 96.5252L110.337 96.6262ZM44.303 105.512L44 105.579L57.468 105.545H57.6027L57.8384 105.478L58.3771 105.242L58.8822 105.04L59.2862 104.805L59.5556 104.67L59.7576 104.502L60.0269 104.333L60.2626 104.131L60.3804 104.013L60.5656 104.569L60.7003 105.243L60.8013 105.916L60.8687 106.556V107.229L60.835 107.936L60.7813 108.473L60.6667 108.407L60.229 108.172L59.9596 108.104L59.6902 108.003L59.4209 107.97L59.1178 107.936L58.5791 107.869L44 107.936L44.3367 108.037L44.7071 108.172L45.0438 108.306L45.3468 108.475L45.9529 108.811L46.2896 108.98L46.5589 109.182L47.064 109.619L47.266 109.855L47.5017 110.091L47.9057 110.596L48.1077 110.865L48.3098 111.101L48.6465 111.673L48.7811 111.976L48.9158 112.279L49.1515 112.885L49.3535 113.458L49.4882 114.131L49.5892 114.771L49.6229 115.411V116.05L49.5892 116.724L49.5219 117.397L49.4209 117.97L49.3199 118.306L49.2525 118.643L49.0505 119.249L48.9495 119.518L48.8148 119.788L48.6465 120.091L48.5118 120.36L48.1414 120.865L47.771 121.404L47.6027 121.64L47.4007 121.842L46.9293 122.279L46.6936 122.481L46.4242 122.65L46.1212 122.852L45.8855 123.02L45.6162 123.155L45.2795 123.29L44.6734 123.525L44.3367 123.626L44 123.694L58.6128 123.66H58.7811L59.0168 123.593L59.5892 123.357L60.1616 123.088L60.5657 122.852L60.8687 122.683L61.1044 122.549L61.4074 122.313L61.6431 122.145L61.8451 121.943L62.0808 121.707L62.2828 121.471L62.4848 121.236L62.8889 120.764L63.0572 120.495L63.1919 120.192L63.3603 119.956L63.4949 119.687L63.6296 119.384L63.7306 119.081L63.899 118.475L64.0673 117.869L64.202 117.263V116.96L64.2694 116.623L64.303 115.983V115.087L70.1279 115.074H70.2626L70.532 114.973L71.138 114.737L71.7104 114.502L72.1481 114.232L72.4175 114.064L72.6869 113.896L72.9899 113.694L73.2592 113.492L73.4613 113.29L73.697 113.054L73.899 112.818L74.1347 112.583L74.505 112.078L74.7071 111.808L74.8417 111.505L75.0101 111.269L75.1448 110.966L75.3131 110.663L75.3805 110.327L75.5825 109.721L75.7508 109.081L75.8855 108.475L75.9192 108.138L75.9529 107.801L75.9865 107.162V105.849L75.8855 105.209L75.7845 104.569L75.6161 103.963L75.4478 103.323L75.3131 103.054L75.2121 102.751L75.0774 102.515L74.9427 102.212L74.8417 101.909L74.6734 101.673L74.5387 101.438L74.3367 101.168L74.1683 100.966L73.9663 100.697L73.6296 100.293L73.1919 99.9226L72.9899 99.7543L72.7542 99.5859L72.5185 99.4849L72.2491 99.3502L71.7778 99.0809L71.5421 99.0135L71.239 98.9462L70.9697 98.8789L70.6667 98.8452L70.0943 98.8115L62.6869 98.8281V97.33L62.6195 96.7239L62.5185 96.1515L62.3838 95.6128L62.2155 95.0404L62.1145 94.8047L62.0135 94.5354L61.9125 94.2997L61.7778 94.0303L61.6768 93.7946L61.5421 93.5589L61.4074 93.3569L61.2054 93.1212L61.0707 92.9529L60.9024 92.7172L60.5993 92.3468L60.1953 92.0101L60.0269 91.8418L59.8249 91.7071L59.5892 91.6061L59.3872 91.5051L58.9495 91.2694L58.7475 91.202L58.4781 91.1347L58.2088 91.0673H57.9731L57.4343 91L44 91.0673L44.303 91.1684L44.6397 91.2694L44.9764 91.3704L45.2795 91.5387L45.7845 91.8418L46.0875 92.0101L46.3569 92.1785L46.7946 92.6162L46.9966 92.8182L47.2323 93.0539L47.6027 93.4916L47.771 93.7609L47.9394 93.963L48.2761 94.5017L48.4108 94.771L48.5455 95.0404L48.7138 95.6128L48.9158 96.1515L49.0505 96.7576L49.1515 97.3636L49.1852 97.936V98.5421L49.1515 99.1818L49.0842 99.7542L49.0168 100.327L48.9158 100.63L48.8485 100.899L48.6465 101.471L48.5455 101.741L48.4444 101.976L48.2761 102.246L48.1414 102.515L47.8384 102.987L47.468 103.458L47.2997 103.694L47.1313 103.862L46.6936 104.266L46.4579 104.468L46.2222 104.603L45.9529 104.805L45.7172 104.939L45.4815 105.108L45.1785 105.209L44.6061 105.444L44.303 105.512ZM66.3367 150.626L66 150.694L80.6128 150.66H80.7811L81.0168 150.593L81.5892 150.357L82.1616 150.088L82.5657 149.852L82.8687 149.683L83.1044 149.549L83.4074 149.313L83.6431 149.145L83.8451 148.943L84.0808 148.707L84.2828 148.471L84.4848 148.236L84.8889 147.764L85.0572 147.495L85.1919 147.192L85.3603 146.956L85.4949 146.687L85.6296 146.384L85.7306 146.081L85.899 145.475L86.0673 144.869L86.202 144.263V143.96L86.2694 143.623L86.303 142.983V142.087L92.1279 142.074H92.2626L92.532 141.973L93.138 141.737L93.7104 141.502L94.1481 141.232L94.4175 141.064L94.6869 140.896L94.9899 140.694L95.2592 140.492L95.4613 140.29L95.697 140.054L95.899 139.818L96.1347 139.583L96.505 139.078L96.7071 138.808L96.8417 138.505L97.0101 138.269L97.1448 137.966L97.3131 137.663L97.3805 137.327L97.5825 136.721L97.7508 136.081L97.8855 135.475L97.9192 135.138L97.9529 134.801L97.9865 134.162V132.849L97.8855 132.209L97.7845 131.569L97.6161 130.963L97.4478 130.323L97.3131 130.054L97.2121 129.751L97.0774 129.515L96.9427 129.212L96.8417 128.909L96.6734 128.673L96.5387 128.438L96.3367 128.168L96.1683 127.966L95.9663 127.697L95.6296 127.293L95.1919 126.923L94.9899 126.754L94.7542 126.586L94.5185 126.485L94.2491 126.35L93.7778 126.081L93.5421 126.014L93.239 125.946L92.9697 125.879L92.6667 125.845L92.0943 125.812L84.6869 125.828V124.33L84.6195 123.724L84.5185 123.152L84.3838 122.613L84.2155 122.04L84.1145 121.805L84.0135 121.535L83.9125 121.3L83.7778 121.03L83.6768 120.795L83.5421 120.559L83.4074 120.357L83.2054 120.121L83.0707 119.953L82.9024 119.717L82.5993 119.347L82.1953 119.01L82.0269 118.842L81.8249 118.707L81.5892 118.606L81.3872 118.505L80.9495 118.269L80.7475 118.202L80.4781 118.135L80.2088 118.067H79.9731L79.4343 118L66 118.067L66.303 118.168L66.6397 118.269L66.9764 118.37L67.2795 118.539L67.7845 118.842L68.0875 119.01L68.3569 119.178L68.7946 119.616L68.9966 119.818L69.2323 120.054L69.6027 120.492L69.771 120.761L69.9394 120.963L70.2761 121.502L70.4108 121.771L70.5455 122.04L70.7138 122.613L70.9158 123.152L71.0505 123.758L71.1515 124.364L71.1852 124.936V125.542L71.1515 126.182L71.0842 126.754L71.0168 127.327L70.9158 127.63L70.8485 127.899L70.6465 128.471L70.5455 128.741L70.4444 128.976L70.2761 129.246L70.1414 129.515L69.8384 129.987L69.468 130.458L69.2997 130.694L69.1313 130.862L68.6936 131.266L68.4579 131.468L68.2222 131.603L67.9529 131.805L67.7172 131.939L67.4815 132.108L67.1785 132.209L66.6061 132.444L66.303 132.512L66 132.579L79.468 132.545H79.6027L79.8384 132.478L80.3771 132.242L80.8822 132.04L81.2862 131.805L81.5556 131.67L81.7576 131.502L82.0269 131.333L82.2626 131.131L82.3804 131.013L82.5657 131.569L82.7003 132.242L82.8013 132.916L82.8687 133.556V134.229L82.835 134.936L82.7813 135.473L82.6667 135.407L82.229 135.172L81.9596 135.104L81.6902 135.003L81.4209 134.97L81.1178 134.936L80.5791 134.869L66 134.936L66.3367 135.037L66.7071 135.172L67.0438 135.306L67.3468 135.475L67.9529 135.811L68.2896 135.98L68.5589 136.182L69.064 136.619L69.266 136.855L69.5017 137.091L69.9057 137.596L70.1077 137.865L70.3098 138.101L70.6465 138.673L70.7811 138.976L70.9158 139.279L71.1515 139.885L71.3535 140.458L71.4882 141.131L71.5892 141.771L71.6229 142.411V143.05L71.5892 143.724L71.5219 144.397L71.4209 144.97L71.3199 145.306L71.2525 145.643L71.0505 146.249L70.9495 146.518L70.8148 146.788L70.6465 147.091L70.5118 147.36L70.1414 147.865L69.771 148.404L69.6027 148.64L69.4007 148.842L68.9293 149.279L68.6936 149.481L68.4242 149.65L68.1212 149.852L67.8855 150.02L67.6162 150.155L67.2795 150.29L66.6734 150.525L66.3367 150.626ZM0 123.694L0.3367 123.626L0.673401 123.525L1.27946 123.29L1.61616 123.155L1.88552 123.02L2.12121 122.852L2.42424 122.65L2.6936 122.481L2.92929 122.279L3.40067 121.842L3.60269 121.64L3.77104 121.404L4.14141 120.865L4.51179 120.36L4.64646 120.091L4.81482 119.788L4.9495 119.518L5.05051 119.249L5.25253 118.643L5.31987 118.306L5.42088 117.97L5.52189 117.397L5.58923 116.724L5.6229 116.05V115.411L5.58923 114.771L5.48822 114.131L5.35354 113.458L5.15152 112.885L4.91582 112.279L4.78115 111.976L4.64646 111.673L4.30976 111.101L4.10774 110.865L3.90572 110.596L3.50168 110.091L3.26599 109.855L3.06397 109.619L2.55892 109.182L2.28956 108.98L1.95286 108.811L1.3468 108.475L1.04377 108.306L0.707071 108.172L0.3367 108.037L0 107.936L14.5791 107.869L15.1178 107.936L15.4209 107.97L15.6902 108.003L15.9596 108.104L16.229 108.172L16.6667 108.407L16.7813 108.473L16.835 107.936L16.8687 107.229V106.556L16.8013 105.916L16.7003 105.243L16.5656 104.569L16.3804 104.013L16.2626 104.131L16.0269 104.333L15.7576 104.502L15.5556 104.67L15.2862 104.805L14.8822 105.04L14.3771 105.242L13.8384 105.478L13.6027 105.545H13.468L0 105.579L0.30303 105.512L0.606061 105.444L1.17845 105.209L1.48148 105.108L1.71717 104.939L1.95286 104.805L2.22222 104.603L2.45791 104.468L2.6936 104.266L3.13131 103.862L3.29966 103.694L3.46801 103.458L3.83838 102.987L4.14141 102.515L4.27609 102.246L4.44444 101.976L4.54545 101.741L4.64646 101.471L4.84849 100.899L4.91582 100.63L5.01684 100.327L5.08418 99.7542L5.15152 99.1818L5.18519 98.5421V97.936L5.15152 97.3636L5.05051 96.7576L4.91582 96.1515L4.7138 95.6128L4.54545 95.0404L4.41077 94.771L4.27609 94.5017L3.93939 93.963L3.77104 93.7609L3.60269 93.4916L3.23232 93.0539L2.99663 92.8182L2.79461 92.6162L2.3569 92.1785L2.08754 92.0101L1.78451 91.8418L1.27946 91.5387L0.976431 91.3704L0.639731 91.2694L0.30303 91.1684L0 91.0673L13.4343 91L13.9731 91.0673H14.2088L14.4781 91.1347L14.7475 91.202L14.9495 91.2694L15.3872 91.5051L15.5892 91.6061L15.8249 91.7071L16.0269 91.8418L16.1953 92.0101L16.5993 92.3468L16.9024 92.7172L17.0707 92.9529L17.2054 93.1212L17.4074 93.3569L17.5421 93.5589L17.6768 93.7946L17.7778 94.0303L17.9125 94.2997L18.0135 94.5354L18.1145 94.8047L18.2155 95.0404L18.3838 95.6128L18.5185 96.1515L18.6195 96.7239L18.6869 97.33V98.8281L26.0943 98.8115L26.6667 98.8452L26.9697 98.8789L27.239 98.9462L27.5421 99.0135L27.7778 99.0809L28.2491 99.3502L28.5185 99.4849L28.7542 99.5859L28.9899 99.7543L29.1919 99.9226L29.6296 100.293L29.9663 100.697L30.1683 100.966L30.3367 101.168L30.5387 101.438L30.6734 101.673L30.8417 101.909L30.9427 102.212L31.0774 102.515L31.2121 102.751L31.3131 103.054L31.4478 103.323L31.6161 103.963L31.7845 104.569L31.8855 105.209L31.9865 105.849V107.162L31.9529 107.801L31.9192 108.138L31.8855 108.475L31.7508 109.081L31.5825 109.721L31.3805 110.327L31.3131 110.663L31.1448 110.966L31.0101 111.269L30.8417 111.505L30.7071 111.808L30.505 112.078L30.1347 112.583L29.899 112.818L29.697 113.054L29.4613 113.29L29.2592 113.492L28.9899 113.694L28.6869 113.896L28.4175 114.064L28.1481 114.232L27.7104 114.502L27.138 114.737L26.532 114.973L26.2626 115.074H26.1279L20.303 115.087V115.983L20.2694 116.623L20.202 116.96V117.263L20.0673 117.869L19.899 118.475L19.7306 119.081L19.6296 119.384L19.495 119.687L19.3603 119.956L19.1919 120.192L19.0572 120.495L18.8889 120.764L18.4848 121.236L18.2828 121.471L18.0808 121.707L17.8451 121.943L17.6431 122.145L17.4074 122.313L17.1044 122.549L16.8687 122.683L16.5657 122.852L16.1616 123.088L15.5892 123.357L15.0168 123.593L14.7811 123.66H14.6128L0 123.694ZM22.3367 150.626L22 150.694L36.6128 150.66H36.7811L37.0168 150.593L37.5892 150.357L38.1616 150.088L38.5657 149.852L38.8687 149.683L39.1044 149.549L39.4074 149.313L39.6431 149.145L39.8451 148.943L40.0808 148.707L40.2828 148.471L40.4848 148.236L40.8889 147.764L41.0572 147.495L41.1919 147.192L41.3603 146.956L41.4949 146.687L41.6296 146.384L41.7306 146.081L41.899 145.475L42.0673 144.869L42.202 144.263V143.96L42.2694 143.623L42.303 142.983V142.087L48.1279 142.074H48.2626L48.532 141.973L49.138 141.737L49.7104 141.502L50.1481 141.232L50.4175 141.064L50.6869 140.896L50.9899 140.694L51.2592 140.492L51.4613 140.29L51.697 140.054L51.899 139.818L52.1347 139.583L52.505 139.078L52.7071 138.808L52.8417 138.505L53.0101 138.269L53.1448 137.966L53.3131 137.663L53.3805 137.327L53.5825 136.721L53.7508 136.081L53.8855 135.475L53.9192 135.138L53.9529 134.801L53.9865 134.162V132.849L53.8855 132.209L53.7845 131.569L53.6161 130.963L53.4478 130.323L53.3131 130.054L53.2121 129.751L53.0774 129.515L52.9427 129.212L52.8417 128.909L52.6734 128.673L52.5387 128.438L52.3367 128.168L52.1683 127.966L51.9663 127.697L51.6296 127.293L51.1919 126.923L50.9899 126.754L50.7542 126.586L50.5185 126.485L50.2491 126.35L49.7778 126.081L49.5421 126.014L49.239 125.946L48.9697 125.879L48.6667 125.845L48.0943 125.812L40.6869 125.828V124.33L40.6195 123.724L40.5185 123.152L40.3838 122.613L40.2155 122.04L40.1145 121.805L40.0135 121.535L39.9125 121.3L39.7778 121.03L39.6768 120.795L39.5421 120.559L39.4074 120.357L39.2054 120.121L39.0707 119.953L38.9024 119.717L38.5993 119.347L38.1953 119.01L38.0269 118.842L37.8249 118.707L37.5892 118.606L37.3872 118.505L36.9495 118.269L36.7475 118.202L36.4781 118.135L36.2088 118.067H35.9731L35.4343 118L22 118.067L22.303 118.168L22.6397 118.269L22.9764 118.37L23.2795 118.539L23.7845 118.842L24.0875 119.01L24.3569 119.178L24.7946 119.616L24.9966 119.818L25.2323 120.054L25.6027 120.492L25.771 120.761L25.9394 120.963L26.2761 121.502L26.4108 121.771L26.5455 122.04L26.7138 122.613L26.9158 123.152L27.0505 123.758L27.1515 124.364L27.1852 124.936V125.542L27.1515 126.182L27.0842 126.754L27.0168 127.327L26.9158 127.63L26.8485 127.899L26.6465 128.471L26.5455 128.741L26.4444 128.976L26.2761 129.246L26.1414 129.515L25.8384 129.987L25.468 130.458L25.2997 130.694L25.1313 130.862L24.6936 131.266L24.4579 131.468L24.2222 131.603L23.9529 131.805L23.7172 131.939L23.4815 132.108L23.1785 132.209L22.6061 132.444L22.303 132.512L22 132.579L35.468 132.545H35.6027L35.8384 132.478L36.3771 132.242L36.8822 132.04L37.2862 131.805L37.5556 131.67L37.7576 131.502L38.0269 131.333L38.2626 131.131L38.3804 131.013L38.5656 131.569L38.7003 132.242L38.8013 132.916L38.8687 133.556V134.229L38.835 134.936L38.7813 135.473L38.6667 135.407L38.229 135.172L37.9596 135.104L37.6902 135.003L37.4209 134.97L37.1178 134.936L36.5791 134.869L22 134.936L22.3367 135.037L22.7071 135.172L23.0438 135.306L23.3468 135.475L23.9529 135.811L24.2896 135.98L24.5589 136.182L25.064 136.619L25.266 136.855L25.5017 137.091L25.9057 137.596L26.1077 137.865L26.3098 138.101L26.6465 138.673L26.7811 138.976L26.9158 139.279L27.1515 139.885L27.3535 140.458L27.4882 141.131L27.5892 141.771L27.6229 142.411V143.05L27.5892 143.724L27.5219 144.397L27.4209 144.97L27.3199 145.306L27.2525 145.643L27.0505 146.249L26.9495 146.518L26.8148 146.788L26.6465 147.091L26.5118 147.36L26.1414 147.865L25.771 148.404L25.6027 148.64L25.4007 148.842L24.9293 149.279L24.6936 149.481L24.4242 149.65L24.1212 149.852L23.8855 150.02L23.6162 150.155L23.2795 150.29L22.6734 150.525L22.3367 150.626ZM132 123.694L132.337 123.626L132.673 123.525L133.279 123.29L133.616 123.155L133.886 123.02L134.121 122.852L134.424 122.65L134.694 122.481L134.929 122.279L135.401 121.842L135.603 121.64L135.771 121.404L136.141 120.865L136.512 120.36L136.646 120.091L136.815 119.788L136.949 119.518L137.051 119.249L137.253 118.643L137.32 118.306L137.421 117.97L137.522 117.397L137.589 116.724L137.623 116.05V115.411L137.589 114.771L137.488 114.131L137.354 113.458L137.152 112.885L136.916 112.279L136.781 111.976L136.646 111.673L136.31 111.101L136.108 110.865L135.906 110.596L135.502 110.091L135.266 109.855L135.064 109.619L134.559 109.182L134.29 108.98L133.953 108.811L133.347 108.475L133.044 108.306L132.707 108.172L132.337 108.037L132 107.936L146.579 107.869L147.118 107.936L147.421 107.97L147.69 108.003L147.96 108.104L148.229 108.172L148.667 108.407L148.781 108.473L148.835 107.936L148.869 107.229V106.556L148.801 105.916L148.7 105.243L148.566 104.569L148.38 104.013L148.263 104.131L148.027 104.333L147.758 104.502L147.556 104.67L147.286 104.805L146.882 105.04L146.377 105.242L145.838 105.478L145.603 105.545H145.468L132 105.579L132.303 105.512L132.606 105.444L133.178 105.209L133.481 105.108L133.717 104.939L133.953 104.805L134.222 104.603L134.458 104.468L134.694 104.266L135.131 103.862L135.3 103.694L135.468 103.458L135.838 102.987L136.141 102.515L136.276 102.246L136.444 101.976L136.545 101.741L136.646 101.471L136.848 100.899L136.916 100.63L137.017 100.327L137.084 99.7542L137.152 99.1818L137.185 98.5421V97.936L137.152 97.3636L137.051 96.7576L136.916 96.1515L136.714 95.6128L136.545 95.0404L136.411 94.771L136.276 94.5017L135.939 93.963L135.771 93.7609L135.603 93.4916L135.232 93.0539L134.997 92.8182L134.795 92.6162L134.357 92.1785L134.088 92.0101L133.785 91.8418L133.279 91.5387L132.976 91.3704L132.64 91.2694L132.303 91.1684L132 91.0673L145.434 91L145.973 91.0673H146.209L146.478 91.1347L146.747 91.202L146.949 91.2694L147.387 91.5051L147.589 91.6061L147.825 91.7071L148.027 91.8418L148.195 92.0101L148.599 92.3468L148.902 92.7172L149.071 92.9529L149.205 93.1212L149.407 93.3569L149.542 93.5589L149.677 93.7946L149.778 94.0303L149.912 94.2997L150.013 94.5354L150.114 94.8047L150.215 95.0404L150.384 95.6128L150.519 96.1515L150.62 96.7239L150.687 97.33V98.8281L158.094 98.8115L158.667 98.8452L158.97 98.8789L159.239 98.9462L159.542 99.0135L159.778 99.0809L160.249 99.3502L160.519 99.4849L160.754 99.5859L160.99 99.7543L161.192 99.9226L161.63 100.293L161.966 100.697L162.168 100.966L162.337 101.168L162.539 101.438L162.673 101.673L162.842 101.909L162.943 102.212L163.077 102.515L163.212 102.751L163.313 103.054L163.448 103.323L163.616 103.963L163.785 104.569L163.886 105.209L163.987 105.849V107.162L163.953 107.801L163.919 108.138L163.886 108.475L163.751 109.081L163.582 109.721L163.38 110.327L163.313 110.663L163.145 110.966L163.01 111.269L162.842 111.505L162.707 111.808L162.505 112.078L162.135 112.583L161.899 112.818L161.697 113.054L161.461 113.29L161.259 113.492L160.99 113.694L160.687 113.896L160.417 114.064L160.148 114.232L159.71 114.502L159.138 114.737L158.532 114.973L158.263 115.074H158.128L152.303 115.087V115.983L152.269 116.623L152.202 116.96V117.263L152.067 117.869L151.899 118.475L151.731 119.081L151.63 119.384L151.495 119.687L151.36 119.956L151.192 120.192L151.057 120.495L150.889 120.764L150.485 121.236L150.283 121.471L150.081 121.707L149.845 121.943L149.643 122.145L149.407 122.313L149.104 122.549L148.869 122.683L148.566 122.852L148.162 123.088L147.589 123.357L147.017 123.593L146.781 123.66H146.613L132 123.694ZM154.337 150.626L154 150.694L168.613 150.66H168.781L169.017 150.593L169.589 150.357L170.162 150.088L170.566 149.852L170.869 149.683L171.104 149.549L171.407 149.313L171.643 149.145L171.845 148.943L172.081 148.707L172.283 148.471L172.485 148.236L172.889 147.764L173.057 147.495L173.192 147.192L173.36 146.956L173.495 146.687L173.63 146.384L173.731 146.081L173.899 145.475L174.067 144.869L174.202 144.263V143.96L174.269 143.623L174.303 142.983V142.087L180.128 142.074H180.263L180.532 141.973L181.138 141.737L181.71 141.502L182.148 141.232L182.417 141.064L182.687 140.896L182.99 140.694L183.259 140.492L183.461 140.29L183.697 140.054L183.899 139.818L184.135 139.583L184.505 139.078L184.707 138.808L184.842 138.505L185.01 138.269L185.145 137.966L185.313 137.663L185.38 137.327L185.582 136.721L185.751 136.081L185.886 135.475L185.919 135.138L185.953 134.801L185.987 134.162V132.849L185.886 132.209L185.785 131.569L185.616 130.963L185.448 130.323L185.313 130.054L185.212 129.751L185.077 129.515L184.943 129.212L184.842 128.909L184.673 128.673L184.539 128.438L184.337 128.168L184.168 127.966L183.966 127.697L183.63 127.293L183.192 126.923L182.99 126.754L182.754 126.586L182.519 126.485L182.249 126.35L181.778 126.081L181.542 126.014L181.239 125.946L180.97 125.879L180.667 125.845L180.094 125.812L172.687 125.828V124.33L172.62 123.724L172.519 123.152L172.384 122.613L172.215 122.04L172.114 121.805L172.013 121.535L171.912 121.3L171.778 121.03L171.677 120.795L171.542 120.559L171.407 120.357L171.205 120.121L171.071 119.953L170.902 119.717L170.599 119.347L170.195 119.01L170.027 118.842L169.825 118.707L169.589 118.606L169.387 118.505L168.949 118.269L168.747 118.202L168.478 118.135L168.209 118.067H167.973L167.434 118L154 118.067L154.303 118.168L154.64 118.269L154.976 118.37L155.279 118.539L155.785 118.842L156.088 119.01L156.357 119.178L156.795 119.616L156.997 119.818L157.232 120.054L157.603 120.492L157.771 120.761L157.939 120.963L158.276 121.502L158.411 121.771L158.545 122.04L158.714 122.613L158.916 123.152L159.051 123.758L159.152 124.364L159.185 124.936V125.542L159.152 126.182L159.084 126.754L159.017 127.327L158.916 127.63L158.848 127.899L158.646 128.471L158.545 128.741L158.444 128.976L158.276 129.246L158.141 129.515L157.838 129.987L157.468 130.458L157.3 130.694L157.131 130.862L156.694 131.266L156.458 131.468L156.222 131.603L155.953 131.805L155.717 131.939L155.481 132.108L155.178 132.209L154.606 132.444L154.303 132.512L154 132.579L167.468 132.545H167.603L167.838 132.478L168.377 132.242L168.882 132.04L169.286 131.805L169.556 131.67L169.758 131.502L170.027 131.333L170.263 131.131L170.38 131.013L170.566 131.569L170.7 132.242L170.801 132.916L170.869 133.556V134.229L170.835 134.936L170.781 135.473L170.667 135.407L170.229 135.172L169.96 135.104L169.69 135.003L169.421 134.97L169.118 134.936L168.579 134.869L154 134.936L154.337 135.037L154.707 135.172L155.044 135.306L155.347 135.475L155.953 135.811L156.29 135.98L156.559 136.182L157.064 136.619L157.266 136.855L157.502 137.091L157.906 137.596L158.108 137.865L158.31 138.101L158.646 138.673L158.781 138.976L158.916 139.279L159.152 139.885L159.354 140.458L159.488 141.131L159.589 141.771L159.623 142.411V143.05L159.589 143.724L159.522 144.397L159.421 144.97L159.32 145.306L159.253 145.643L159.051 146.249L158.949 146.518L158.815 146.788L158.646 147.091L158.512 147.36L158.141 147.865L157.771 148.404L157.603 148.64L157.401 148.842L156.929 149.279L156.694 149.481L156.424 149.65L156.121 149.852L155.886 150.02L155.616 150.155L155.279 150.29L154.673 150.525L154.337 150.626ZM88 123.694L88.3367 123.626L88.6734 123.525L89.2795 123.29L89.6162 123.155L89.8855 123.02L90.1212 122.852L90.4242 122.65L90.6936 122.481L90.9293 122.279L91.4007 121.842L91.6027 121.64L91.771 121.404L92.1414 120.865L92.5118 120.36L92.6465 120.091L92.8148 119.788L92.9495 119.518L93.0505 119.249L93.2525 118.643L93.3199 118.306L93.4209 117.97L93.5219 117.397L93.5892 116.724L93.6229 116.05V115.411L93.5892 114.771L93.4882 114.131L93.3535 113.458L93.1515 112.885L92.9158 112.279L92.7811 111.976L92.6465 111.673L92.3098 111.101L92.1077 110.865L91.9057 110.596L91.5017 110.091L91.266 109.855L91.064 109.619L90.5589 109.182L90.2896 108.98L89.9529 108.811L89.3468 108.475L89.0438 108.306L88.7071 108.172L88.3367 108.037L88 107.936L102.579 107.869L103.118 107.936L103.421 107.97L103.69 108.003L103.96 108.104L104.229 108.172L104.667 108.407L104.781 108.473L104.835 107.936L104.869 107.229V106.556L104.801 105.916L104.7 105.243L104.566 104.569L104.38 104.013L104.263 104.131L104.027 104.333L103.758 104.502L103.556 104.67L103.286 104.805L102.882 105.04L102.377 105.242L101.838 105.478L101.603 105.545H101.468L88 105.579L88.303 105.512L88.6061 105.444L89.1785 105.209L89.4815 105.108L89.7172 104.939L89.9529 104.805L90.2222 104.603L90.4579 104.468L90.6936 104.266L91.1313 103.862L91.2997 103.694L91.468 103.458L91.8384 102.987L92.1414 102.515L92.2761 102.246L92.4444 101.976L92.5455 101.741L92.6465 101.471L92.8485 100.899L92.9158 100.63L93.0168 100.327L93.0842 99.7542L93.1515 99.1818L93.1852 98.5421V97.936L93.1515 97.3636L93.0505 96.7576L92.9158 96.1515L92.7138 95.6128L92.5455 95.0404L92.4108 94.771L92.2761 94.5017L91.9394 93.963L91.771 93.7609L91.6027 93.4916L91.2323 93.0539L90.9966 92.8182L90.7946 92.6162L90.3569 92.1785L90.0875 92.0101L89.7845 91.8418L89.2795 91.5387L88.9764 91.3704L88.6397 91.2694L88.303 91.1684L88 91.0673L101.434 91L101.973 91.0673H102.209L102.478 91.1347L102.747 91.202L102.949 91.2694L103.387 91.5051L103.589 91.6061L103.825 91.7071L104.027 91.8418L104.195 92.0101L104.599 92.3468L104.902 92.7172L105.071 92.9529L105.205 93.1212L105.407 93.3569L105.542 93.5589L105.677 93.7946L105.778 94.0303L105.912 94.2997L106.013 94.5354L106.114 94.8047L106.215 95.0404L106.384 95.6128L106.519 96.1515L106.62 96.7239L106.687 97.33V98.8281L114.094 98.8115L114.667 98.8452L114.97 98.8789L115.239 98.9462L115.542 99.0135L115.778 99.0809L116.249 99.3502L116.519 99.4849L116.754 99.5859L116.99 99.7543L117.192 99.9226L117.63 100.293L117.966 100.697L118.168 100.966L118.337 101.168L118.539 101.438L118.673 101.673L118.842 101.909L118.943 102.212L119.077 102.515L119.212 102.751L119.313 103.054L119.448 103.323L119.616 103.963L119.785 104.569L119.886 105.209L119.987 105.849V107.162L119.953 107.801L119.919 108.138L119.886 108.475L119.751 109.081L119.582 109.721L119.38 110.327L119.313 110.663L119.145 110.966L119.01 111.269L118.842 111.505L118.707 111.808L118.505 112.078L118.135 112.583L117.899 112.818L117.697 113.054L117.461 113.29L117.259 113.492L116.99 113.694L116.687 113.896L116.417 114.064L116.148 114.232L115.71 114.502L115.138 114.737L114.532 114.973L114.263 115.074H114.128L108.303 115.087V115.983L108.269 116.623L108.202 116.96V117.263L108.067 117.869L107.899 118.475L107.731 119.081L107.63 119.384L107.495 119.687L107.36 119.956L107.192 120.192L107.057 120.495L106.889 120.764L106.485 121.236L106.283 121.471L106.081 121.707L105.845 121.943L105.643 122.145L105.407 122.313L105.104 122.549L104.869 122.683L104.566 122.852L104.162 123.088L103.589 123.357L103.017 123.593L102.781 123.66H102.613L88 123.694ZM110.337 150.626L110 150.694L124.613 150.66H124.781L125.017 150.593L125.589 150.357L126.162 150.088L126.566 149.852L126.869 149.683L127.104 149.549L127.407 149.313L127.643 149.145L127.845 148.943L128.081 148.707L128.283 148.471L128.485 148.236L128.889 147.764L129.057 147.495L129.192 147.192L129.36 146.956L129.495 146.687L129.63 146.384L129.731 146.081L129.899 145.475L130.067 144.869L130.202 144.263V143.96L130.269 143.623L130.303 142.983V142.087L136.128 142.074H136.263L136.532 141.973L137.138 141.737L137.71 141.502L138.148 141.232L138.417 141.064L138.687 140.896L138.99 140.694L139.259 140.492L139.461 140.29L139.697 140.054L139.899 139.818L140.135 139.583L140.505 139.078L140.707 138.808L140.842 138.505L141.01 138.269L141.145 137.966L141.313 137.663L141.38 137.327L141.582 136.721L141.751 136.081L141.886 135.475L141.919 135.138L141.953 134.801L141.987 134.162V132.849L141.886 132.209L141.785 131.569L141.616 130.963L141.448 130.323L141.313 130.054L141.212 129.751L141.077 129.515L140.943 129.212L140.842 128.909L140.673 128.673L140.539 128.438L140.337 128.168L140.168 127.966L139.966 127.697L139.63 127.293L139.192 126.923L138.99 126.754L138.754 126.586L138.519 126.485L138.249 126.35L137.778 126.081L137.542 126.014L137.239 125.946L136.97 125.879L136.667 125.845L136.094 125.812L128.687 125.828V124.33L128.62 123.724L128.519 123.152L128.384 122.613L128.215 122.04L128.114 121.805L128.013 121.535L127.912 121.3L127.778 121.03L127.677 120.795L127.542 120.559L127.407 120.357L127.205 120.121L127.071 119.953L126.902 119.717L126.599 119.347L126.195 119.01L126.027 118.842L125.825 118.707L125.589 118.606L125.387 118.505L124.949 118.269L124.747 118.202L124.478 118.135L124.209 118.067H123.973L123.434 118L110 118.067L110.303 118.168L110.64 118.269L110.976 118.37L111.279 118.539L111.785 118.842L112.088 119.01L112.357 119.178L112.795 119.616L112.997 119.818L113.232 120.054L113.603 120.492L113.771 120.761L113.939 120.963L114.276 121.502L114.411 121.771L114.545 122.04L114.714 122.613L114.916 123.152L115.051 123.758L115.152 124.364L115.185 124.936V125.542L115.152 126.182L115.084 126.754L115.017 127.327L114.916 127.63L114.848 127.899L114.646 128.471L114.545 128.741L114.444 128.976L114.276 129.246L114.141 129.515L113.838 129.987L113.468 130.458L113.3 130.694L113.131 130.862L112.694 131.266L112.458 131.468L112.222 131.603L111.953 131.805L111.717 131.939L111.481 132.108L111.178 132.209L110.606 132.444L110.303 132.512L110 132.579L123.468 132.545H123.603L123.838 132.478L124.377 132.242L124.882 132.04L125.286 131.805L125.556 131.67L125.758 131.502L126.027 131.333L126.263 131.131L126.38 131.013L126.566 131.569L126.7 132.242L126.801 132.916L126.869 133.556V134.229L126.835 134.936L126.781 135.473L126.667 135.407L126.229 135.172L125.96 135.104L125.69 135.003L125.421 134.97L125.118 134.936L124.579 134.869L110 134.936L110.337 135.037L110.707 135.172L111.044 135.306L111.347 135.475L111.953 135.811L112.29 135.98L112.559 136.182L113.064 136.619L113.266 136.855L113.502 137.091L113.906 137.596L114.108 137.865L114.31 138.101L114.646 138.673L114.781 138.976L114.916 139.279L115.152 139.885L115.354 140.458L115.488 141.131L115.589 141.771L115.623 142.411V143.05L115.589 143.724L115.522 144.397L115.421 144.97L115.32 145.306L115.253 145.643L115.051 146.249L114.949 146.518L114.815 146.788L114.646 147.091L114.512 147.36L114.141 147.865L113.771 148.404L113.603 148.64L113.401 148.842L112.929 149.279L112.694 149.481L112.424 149.65L112.121 149.852L111.886 150.02L111.616 150.155L111.279 150.29L110.673 150.525L110.337 150.626Z" fill="url(#paint0_linear_1489_25614)"/>
</g>
</g>
<defs>
<linearGradient id="paint0_linear_1489_25614" x1="14" y1="104.5" x2="266" y2="104" gradientUnits="userSpaceOnUse">
<stop stop-color="#023F88"/>
<stop offset="1" stop-color="#0066A5" stop-opacity="0.69"/>
</linearGradient>
<clipPath id="clip0_1489_25614">
<rect width="167" height="132" rx="6" fill="white"/>
</clipPath>
</defs>
</svg>
