<svg width="33" height="32" viewBox="0 0 33 32" fill="none" xmlns="http://www.w3.org/2000/svg">
<path d="M26.2375 22.9645L22.5512 25.2269L18.9783 25.5601L16.0277 23.6016C15.9827 23.576 15.9625 23.5219 15.9799 23.4734C15.9891 23.4241 16.0323 23.3883 16.0826 23.3891C16.115 23.3858 16.1469 23.3784 16.1778 23.3672L18.5097 22.5143C18.9152 22.4711 19.2955 22.2964 19.5922 22.0168C19.8889 21.737 20.086 21.368 20.1535 20.9658C20.2464 20.5023 20.11 20.0225 19.7873 19.6773C19.4254 19.318 18.9155 19.1497 18.4109 19.2233C18.0228 19.2708 17.6019 19.3476 17.1553 19.4283C15.9516 19.6796 14.7241 19.8021 13.4943 19.7942C10.1997 19.7209 8.44238 21.4454 8.00315 21.965L3.89937 22.1407C3.69713 22.1407 3.53345 22.3049 3.53345 22.5069V28.9755C3.53345 29.0725 3.57201 29.1657 3.6407 29.2344C3.70939 29.3031 3.80234 29.3417 3.89962 29.3417L10.1229 29.5357L19.7578 30.9999H19.8127C19.8592 31.0009 19.9054 30.9923 19.9483 30.9744L24.8905 28.9867C24.9395 28.9678 24.9832 28.9374 25.0184 28.8986L28.313 25.4759C28.6176 25.1585 28.7811 24.7315 28.7668 24.2918C28.7522 23.8523 28.5609 23.4372 28.2361 23.1404C27.9693 22.8945 27.6284 22.7439 27.2668 22.7122C26.9052 22.6803 26.5435 22.7691 26.2375 22.9645ZM27.7385 24.978L24.506 28.3423L19.7324 30.286L10.1778 28.8218H10.1339L4.27656 28.6352V22.8621L8.1937 22.6939C8.30427 22.6885 8.40667 22.6331 8.47178 22.5437C8.53766 22.4595 10.0861 20.4498 13.4834 20.5302C14.7614 20.5364 16.0362 20.4077 17.2869 20.1459C17.7225 20.0691 18.1362 19.9958 18.4985 19.9519C18.7743 19.9046 19.0568 19.9902 19.2602 20.1824C19.4288 20.3568 19.5003 20.6038 19.4505 20.8415C19.4089 21.092 19.2845 21.3213 19.0976 21.4932C18.9104 21.665 18.6714 21.7692 18.4181 21.7896C18.3854 21.7843 18.3519 21.7843 18.3192 21.7896L15.9873 22.6463C15.6377 22.6923 15.353 22.9492 15.2718 23.2924C15.1904 23.6353 15.3296 23.9931 15.6214 24.191L18.6816 26.2594C18.751 26.3048 18.8335 26.3255 18.916 26.3178L22.7049 25.9516C22.7606 25.9468 22.8145 25.9294 22.8622 25.9006L26.6182 23.6016C26.9607 23.3963 27.3968 23.4379 27.6946 23.704C27.8736 23.8669 27.9793 24.0955 27.9875 24.3373C27.9944 24.5791 27.9047 24.8135 27.7385 24.989L27.7385 24.978Z" fill="#FF8200" stroke="#FF8200" stroke-width="0.6"/>
<path d="M21.2022 1C18.8886 1 16.6696 1.91924 15.0336 3.55508C13.3978 5.19111 12.4785 7.41019 12.4785 9.72366C12.4785 12.0375 13.3978 14.2562 15.0336 15.8922C16.6696 17.5283 18.8887 18.4473 21.2022 18.4473C23.516 18.4473 25.7347 17.5283 27.3708 15.8922C29.0068 14.2562 29.9258 12.0374 29.9258 9.72366C29.9228 7.41091 29.0027 5.19366 27.3674 3.55842C25.7321 1.92317 23.5149 1.00307 21.2022 1V1ZM13.2106 9.72373C13.2106 7.60428 14.0525 5.57164 15.5512 4.07301C17.0499 2.57439 19.0825 1.73241 21.2019 1.73241C23.3213 1.73241 25.354 2.57432 26.8526 4.07301C28.3513 5.5717 29.1935 7.60434 29.1935 9.72373C29.1935 11.8431 28.3513 13.8758 26.8526 15.3744C25.3539 16.8731 23.3213 17.7153 21.2019 17.7153C19.083 17.7133 17.0517 16.8706 15.5532 15.3724C14.0551 13.8742 13.2124 11.8427 13.2106 9.72373V9.72373Z" fill="#FF8200" stroke="#FF8200" stroke-width="0.6"/>
<path d="M23.6212 7.66976C23.7182 7.66976 23.8114 7.6312 23.8801 7.56251C23.9488 7.49382 23.9874 7.40061 23.9874 7.30358C23.9868 6.62844 23.7414 5.97623 23.2964 5.46863C22.8513 4.96098 22.2369 4.63208 21.5677 4.5435V4.14438C21.5677 3.94214 21.4037 3.7782 21.2015 3.7782C20.9992 3.7782 20.8353 3.94214 20.8353 4.14438V4.5435C19.9379 4.66607 19.156 5.21715 18.7394 6.02121C18.3224 6.82533 18.3224 7.7819 18.7394 8.58596C19.1561 9.39009 19.938 9.9411 20.8353 10.0637V14.1784C20.3619 14.0926 19.9336 13.8434 19.6251 13.4742C19.3167 13.1047 19.1479 12.6389 19.1479 12.1578C19.1479 11.9556 18.984 11.7916 18.7817 11.7916C18.5795 11.7916 18.4155 11.9556 18.4155 12.1578C18.4178 12.8317 18.664 13.4818 19.109 13.9882C19.5539 14.4943 20.1673 14.8219 20.8352 14.9105V15.3096C20.8352 15.5119 20.9992 15.6756 21.2014 15.6756C21.4037 15.6756 21.5676 15.5119 21.5676 15.3096V14.9105C22.4649 14.7879 23.2468 14.2369 23.6635 13.4328C24.0805 12.6287 24.0805 11.6721 23.6635 10.8681C23.2468 10.0639 22.4649 9.51292 21.5676 9.39035V5.28297C22.041 5.36852 22.4692 5.618 22.7777 5.98721C23.0862 6.35645 23.2552 6.82246 23.2552 7.30358C23.2552 7.40062 23.2938 7.49383 23.3622 7.56251C23.4309 7.6312 23.5241 7.66976 23.6212 7.66976H23.6212ZM21.5676 10.1225C22.1925 10.2481 22.7239 10.6567 23.0053 11.2287C23.2869 11.8007 23.2869 12.471 23.0053 13.043C22.7239 13.615 22.1924 14.0235 21.5676 14.1492V10.1225ZM20.8355 9.32449L20.8353 9.32423C20.2104 9.19885 19.6793 8.79003 19.3976 8.21803C19.116 7.64603 19.116 6.97572 19.3976 6.40373C19.6793 5.83199 20.2105 5.42317 20.8353 5.29752L20.8355 9.32449Z" fill="#FF8200" stroke="#FF8200" stroke-width="0.6"/>
</svg>
