<svg width="32" height="32" viewBox="0 0 32 32" fill="none" xmlns="http://www.w3.org/2000/svg">
<path d="M16 28.0002C22.6274 28.0002 28 22.6277 28 16.0002C28 9.37283 22.6274 4.00024 16 4.00024C9.37258 4.00024 4 9.37283 4 16.0002C4 22.6277 9.37258 28.0002 16 28.0002Z" stroke="#FF8200" stroke-width="1.33333" stroke-linecap="round" stroke-linejoin="round"/>
<path d="M19.7333 12.0002C19.4918 11.5813 19.1409 11.2359 18.7181 11.001C18.2954 10.7661 17.8167 10.6506 17.3333 10.6669H14.6667C13.9594 10.6669 13.2811 10.9479 12.781 11.448C12.281 11.9481 12 12.6263 12 13.3336C12 14.0408 12.281 14.7191 12.781 15.2192C13.2811 15.7193 13.9594 16.0002 14.6667 16.0002H17.3333C18.0406 16.0002 18.7189 16.2812 19.219 16.7813C19.719 17.2814 20 17.9597 20 18.6669C20 19.3742 19.719 20.0524 19.219 20.5525C18.7189 21.0526 18.0406 21.3336 17.3333 21.3336H14.6667C14.1833 21.3499 13.7046 21.2344 13.2819 20.9995C12.8591 20.7646 12.5082 20.4192 12.2667 20.0002" stroke="#FF8200" stroke-width="1.33333" stroke-linecap="round" stroke-linejoin="round"/>
<path d="M16 21.3336V24.0002M16 8.00024V10.6669V8.00024Z" stroke="#FF8200" stroke-width="1.33333" stroke-linecap="round" stroke-linejoin="round"/>
</svg>
