<svg width="33" height="32" viewBox="0 0 33 32" fill="none" xmlns="http://www.w3.org/2000/svg">
<mask id="path-1-inside-1_1489_26282" fill="white">
<path fill-rule="evenodd" clip-rule="evenodd" d="M11.4204 8.89669C10.5315 8.00605 9.35276 7.52201 8.09672 7.52201H7.13053L13.2175 1.42308C15.1112 -0.474361 18.203 -0.474361 20.0967 1.42308L26.203 7.54137H25.6233C24.3673 7.54137 23.1885 8.02542 22.2996 8.91605L17.488 13.7177C17.1402 14.0663 16.5798 14.0663 16.232 13.7177L11.4204 8.89669ZM31.2465 12.5949L27.5556 8.8968C27.4783 8.93553 27.3817 8.95489 27.2851 8.95489H25.604C24.7344 8.95489 23.8841 9.3034 23.2851 9.92297L18.4928 14.7247C18.0484 15.17 17.4494 15.4023 16.8696 15.4023C16.2706 15.4023 15.6909 15.17 15.2465 14.7247L10.4349 9.90361C9.81651 9.28404 8.96627 8.93553 8.11603 8.93553H6.04839C5.95177 8.93553 5.87448 8.91616 5.79719 8.87744L2.08704 12.5949C0.193318 14.4923 0.193318 17.5902 2.08704 19.4876L5.77785 23.1857C5.85515 23.147 5.93245 23.1276 6.02907 23.1276H8.0967C8.96626 23.1276 9.8165 22.7791 10.4155 22.1595L15.2271 17.3385C16.0967 16.4672 17.6233 16.4672 18.4928 17.3385L23.2851 22.1402C23.9035 22.7598 24.7537 23.1083 25.604 23.1083H27.2851C27.3817 23.1083 27.459 23.1276 27.5556 23.1664L31.2465 19.4683C33.1402 17.5708 33.1402 14.4923 31.2465 12.5949ZM25.6232 24.4589C24.3672 24.4589 23.1885 23.9748 22.2996 23.0842L17.5073 18.2825C17.1788 17.9534 16.5798 17.9534 16.2513 18.2825L11.4397 23.1036C10.5508 23.9942 9.37203 24.4782 8.11599 24.4782H7.16913L13.2561 30.5772C15.1498 32.4746 18.2416 32.4746 20.1353 30.5772L26.2416 24.4589H25.6232Z"/>
</mask>
<path d="M11.4204 8.89669L10.3587 9.95631H10.3587L11.4204 8.89669ZM7.13053 7.52201L6.06883 6.46239L3.51424 9.02201H7.13053V7.52201ZM13.2175 1.42308L14.2792 2.4827V2.4827L13.2175 1.42308ZM20.0967 1.42308L19.035 2.4827V2.4827L20.0967 1.42308ZM26.203 7.54137V9.04137H29.8193L27.2647 6.48176L26.203 7.54137ZM22.2996 8.91605L23.3592 9.97781L23.3613 9.97567L22.2996 8.91605ZM17.488 13.7177L16.4285 12.656L16.4263 12.6581L17.488 13.7177ZM16.232 13.7177L17.2937 12.6581L17.2937 12.6581L16.232 13.7177ZM27.5556 8.8968L28.6173 7.83718L27.8522 7.07053L26.8838 7.55569L27.5556 8.8968ZM31.2465 12.5949L32.3082 11.5353L32.3082 11.5353L31.2465 12.5949ZM23.2851 9.92297L24.3468 10.9826L24.3552 10.9742L24.3635 10.9656L23.2851 9.92297ZM18.4928 14.7247L17.4311 13.665L18.4928 14.7247ZM15.2465 14.7247L14.1848 15.7843H14.1848L15.2465 14.7247ZM10.4349 9.90361L11.4966 8.84399L11.4966 8.84399L10.4349 9.90361ZM5.79719 8.87744L6.46906 7.53633L5.50064 7.05117L4.73548 7.81782L5.79719 8.87744ZM2.08704 12.5949L1.02534 11.5353H1.02534L2.08704 12.5949ZM2.08704 19.4876L3.14874 18.428H3.14874L2.08704 19.4876ZM5.77785 23.1857L4.71615 24.2453L5.4813 25.012L6.44972 24.5268L5.77785 23.1857ZM10.4155 22.1595L9.35384 21.0999L9.34543 21.1084L9.33715 21.1169L10.4155 22.1595ZM15.2271 17.3385L14.1654 16.2789L15.2271 17.3385ZM18.4928 17.3385L19.5545 16.2789H19.5545L18.4928 17.3385ZM23.2851 22.1402L24.3468 21.0806L23.2851 22.1402ZM27.5556 23.1664L26.9976 24.5587L27.9174 24.9273L28.6173 24.226L27.5556 23.1664ZM31.2465 19.4683L32.3082 20.5279H32.3082L31.2465 19.4683ZM22.2996 23.0842L23.3613 22.0246L22.2996 23.0842ZM17.5073 18.2825L18.569 17.2229L18.569 17.2229L17.5073 18.2825ZM16.2513 18.2825L15.1896 17.2229L15.1896 17.2229L16.2513 18.2825ZM11.4397 23.1036L12.5014 24.1632L12.5014 24.1632L11.4397 23.1036ZM7.16913 24.4782V22.9782H3.55283L6.10743 25.5379L7.16913 24.4782ZM13.2561 30.5772L14.3178 29.5176L13.2561 30.5772ZM20.1353 30.5772L21.197 31.6368L20.1353 30.5772ZM26.2416 24.4589L27.3033 25.5185L29.8579 22.9589H26.2416V24.4589ZM8.09672 9.02201C8.95806 9.02201 9.75375 9.35018 10.3587 9.95631L12.4821 7.83707C11.3093 6.66193 9.74746 6.02201 8.09672 6.02201V9.02201ZM7.13053 9.02201H8.09672V6.02201H7.13053V9.02201ZM12.1558 0.363466L6.06883 6.46239L8.19224 8.58163L14.2792 2.4827L12.1558 0.363466ZM21.1584 0.363466C18.6787 -2.12116 14.6355 -2.12116 12.1558 0.363466L14.2792 2.4827C15.5869 1.17243 17.7273 1.17243 19.035 2.4827L21.1584 0.363466ZM27.2647 6.48176L21.1584 0.363466L19.035 2.4827L25.1413 8.60099L27.2647 6.48176ZM25.6233 9.04137H26.203V6.04137H25.6233V9.04137ZM23.3613 9.97567C23.9663 9.36954 24.762 9.04137 25.6233 9.04137V6.04137C23.9726 6.04137 22.4108 6.68129 21.2379 7.85643L23.3613 9.97567ZM18.5476 14.7795L23.3592 9.9778L21.24 7.8543L16.4285 12.656L18.5476 14.7795ZM15.1703 14.7774C16.1041 15.7131 17.6159 15.7131 18.5497 14.7774L16.4263 12.6581C16.6645 12.4195 17.0555 12.4195 17.2937 12.6581L15.1703 14.7774ZM10.3587 9.95631L15.1703 14.7774L17.2937 12.6581L12.4821 7.83707L10.3587 9.95631ZM26.4939 9.95642L30.1848 13.6545L32.3082 11.5353L28.6173 7.83718L26.4939 9.95642ZM27.2851 10.4549C27.5625 10.4549 27.8993 10.4024 28.2275 10.2379L26.8838 7.55569C26.9766 7.50918 27.0579 7.48536 27.118 7.47267C27.1794 7.45971 27.2351 7.45489 27.2851 7.45489V10.4549ZM25.604 10.4549H27.2851V7.45489H25.604V10.4549ZM24.3635 10.9656C24.6689 10.6498 25.1248 10.4549 25.604 10.4549V7.45489C24.344 7.45489 23.0994 7.95704 22.2067 8.88034L24.3635 10.9656ZM19.5545 15.7843L24.3468 10.9826L22.2234 8.86335L17.4311 13.665L19.5545 15.7843ZM16.8696 16.9023C17.8378 16.9023 18.8218 16.5184 19.5545 15.7843L17.4311 13.665C17.275 13.8215 17.0609 13.9023 16.8696 13.9023V16.9023ZM14.1848 15.7843C14.9128 16.5138 15.8754 16.9023 16.8696 16.9023V13.9023C16.6658 13.9023 16.469 13.8262 16.3082 13.665L14.1848 15.7843ZM9.37316 10.9632L14.1848 15.7843L16.3082 13.665L11.4966 8.84399L9.37316 10.9632ZM8.11603 10.4355C8.56671 10.4355 9.03533 10.6247 9.37317 10.9632L11.4966 8.84399C10.5977 7.94334 9.36582 7.43553 8.11603 7.43553V10.4355ZM6.04839 10.4355H8.11603V7.43553H6.04839V10.4355ZM5.12532 10.2186C5.41242 10.3624 5.71992 10.4355 6.04839 10.4355V7.43553C6.10274 7.43553 6.17581 7.44124 6.25974 7.46103C6.34428 7.48096 6.41524 7.50936 6.46906 7.53633L5.12532 10.2186ZM3.14874 13.6545L6.85889 9.93706L4.73548 7.81782L1.02534 11.5353L3.14874 13.6545ZM3.14874 18.428C1.83942 17.1161 1.83942 14.9664 3.14874 13.6545L1.02534 11.5353C-1.45278 14.0183 -1.45278 18.0643 1.02534 20.5473L3.14874 18.428ZM6.83956 22.1261L3.14874 18.428L1.02534 20.5473L4.71615 24.2453L6.83956 22.1261ZM6.02907 21.6276C5.70063 21.6276 5.39312 21.7008 5.10599 21.8446L6.44972 24.5268C6.39588 24.5538 6.32492 24.5822 6.24039 24.6021C6.15648 24.6219 6.08342 24.6276 6.02907 24.6276V21.6276ZM8.0967 21.6276H6.02907V24.6276H8.0967V21.6276ZM9.33715 21.1169C9.03177 21.4328 8.57582 21.6276 8.0967 21.6276V24.6276C9.3567 24.6276 10.6012 24.1255 11.4939 23.2022L9.33715 21.1169ZM14.1654 16.2789L9.35384 21.0999L11.4772 23.2192L16.2888 18.3981L14.1654 16.2789ZM19.5545 16.2789C18.099 14.8204 15.621 14.8204 14.1654 16.2789L16.2888 18.3981C16.5724 18.114 17.1476 18.114 17.4311 18.3981L19.5545 16.2789ZM24.3468 21.0806L19.5545 16.2789L17.4311 18.3981L22.2234 23.1998L24.3468 21.0806ZM25.604 21.6083C25.1533 21.6083 24.6846 21.4191 24.3468 21.0806L22.2234 23.1998C23.1223 24.1005 24.3542 24.6083 25.604 24.6083V21.6083ZM27.2851 21.6083H25.604V24.6083H27.2851V21.6083ZM28.1137 21.774C27.8975 21.6874 27.6267 21.6083 27.2851 21.6083V24.6083C27.2271 24.6083 27.1611 24.6018 27.0943 24.5869C27.0335 24.5734 26.9961 24.5581 26.9976 24.5587L28.1137 21.774ZM30.1848 18.4087L26.4939 22.1067L28.6173 24.226L32.3082 20.5279L30.1848 18.4087ZM30.1848 13.6545C31.4941 14.9664 31.4941 17.0968 30.1848 18.4087L32.3082 20.5279C34.7863 18.0449 34.7863 14.0183 32.3082 11.5353L30.1848 13.6545ZM21.2379 24.1438C22.4107 25.319 23.9725 25.9589 25.6232 25.9589V22.9589C24.7619 22.9589 23.9662 22.6307 23.3613 22.0246L21.2379 24.1438ZM16.4456 19.3421L21.2379 24.1438L23.3613 22.0246L18.569 17.2229L16.4456 19.3421ZM17.313 19.3421C17.155 19.5004 16.9839 19.5356 16.8793 19.5356C16.7746 19.5356 16.6036 19.5004 16.4456 19.3421L18.569 17.2229C17.6545 16.3066 16.1041 16.3066 15.1896 17.2229L17.313 19.3421ZM12.5014 24.1632L17.313 19.3421L15.1896 17.2229L10.378 22.0439L12.5014 24.1632ZM8.11599 25.9782C9.76673 25.9782 11.3285 25.3383 12.5014 24.1632L10.378 22.0439C9.77302 22.6501 8.97733 22.9782 8.11599 22.9782V25.9782ZM7.16913 25.9782H8.11599V22.9782H7.16913V25.9782ZM14.3178 29.5176L8.23083 23.4186L6.10743 25.5379L12.1944 31.6368L14.3178 29.5176ZM19.0736 29.5176C17.7659 30.8278 15.6255 30.8278 14.3178 29.5176L12.1944 31.6368C14.6741 34.1214 18.7173 34.1214 21.197 31.6368L19.0736 29.5176ZM25.1799 23.3993L19.0736 29.5176L21.197 31.6368L27.3033 25.5185L25.1799 23.3993ZM25.6232 25.9589H26.2416V22.9589H25.6232V25.9589Z" fill="#FF8200" mask="url(#path-1-inside-1_1489_26282)"/>
</svg>
