<svg width="32" height="32" viewBox="0 0 32 32" fill="none" xmlns="http://www.w3.org/2000/svg">
<path d="M2.00049 11.9985C2.00049 7.79603 5.40729 4.38916 9.60982 4.38916H30.1718" stroke="#FF8200" stroke-width="1.5" stroke-miterlimit="10" stroke-linecap="round" stroke-linejoin="round"/>
<path d="M26.782 1L30.1714 4.38967L26.782 7.77907" stroke="#FF8200" stroke-width="1.5" stroke-miterlimit="10" stroke-linecap="round" stroke-linejoin="round"/>
<path d="M30.1713 20.0015C30.1713 24.2039 26.7645 27.6108 22.562 27.6108C22.562 27.6108 10.4205 27.6108 2 27.6108" stroke="#FF8200" stroke-width="1.5" stroke-miterlimit="10" stroke-linecap="round" stroke-linejoin="round"/>
<path d="M5.38989 30.9998L2.00049 27.6101L5.38989 24.2207" stroke="#FF8200" stroke-width="1.5" stroke-miterlimit="10" stroke-linecap="round" stroke-linejoin="round"/>
<path d="M13.1021 18.9841C13.1021 20.632 14.4379 21.9679 16.0859 21.9679C17.7338 21.9679 19.0697 20.632 19.0697 18.9841C19.0697 17.3362 17.7338 16.0003 16.0859 16.0003C14.4379 16.0003 13.1021 14.6644 13.1021 13.0165C13.1021 11.3686 14.4379 10.0327 16.0859 10.0327C17.7338 10.0327 19.0697 11.3686 19.0697 13.0165" stroke="#FF8200" stroke-width="1.5" stroke-miterlimit="10" stroke-linecap="round" stroke-linejoin="round"/>
<path d="M16.0859 10.0326V8.92383" stroke="#FF8200" stroke-width="1.5" stroke-miterlimit="10" stroke-linecap="round" stroke-linejoin="round"/>
<path d="M16.0859 23.076V21.9673" stroke="#FF8200" stroke-width="1.5" stroke-miterlimit="10" stroke-linecap="round" stroke-linejoin="round"/>
</svg>
